<svg width="24" height="24" viewBox="0 0 24 24" fill="none"
  xmlns="http://www.w3.org/2000/svg">
  <path d="M18.4798 3H6.51385C5.1061 3 4 4.04211 4 5.36842V18.5368C4 19.9579 5.1061 21 6.51385 21H15.4632L20.9937 15.7895V5.36842C21.0942 4.04211 19.9881 3 18.4798 3Z" stroke="currentColor" stroke-width="2" stroke-miterlimit="10"/>
  <path d="M21 15H17.8C16.3 15 15 16.2 15 17.8V21L21 15Z" fill="currentColor"/>
  <path d="M11.2611 13.112C11.2611 12.5573 11.3837 12.0987 11.6291 11.736C11.8851 11.3733 12.2531 10.9733 12.7331 10.536C13.0851 10.216 13.3411 9.94933 13.5011 9.736C13.6717 9.512 13.7571 9.26133 13.7571 8.984C13.7571 8.58933 13.5971 8.28 13.2771 8.056C12.9677 7.82133 12.5517 7.704 12.0291 7.704C11.5277 7.704 11.0797 7.81067 10.6851 8.024C10.3011 8.22667 9.97573 8.51467 9.70906 8.888L7.77306 7.752C8.22106 7.06933 8.82373 6.54133 9.58106 6.168C10.3491 5.79467 11.2557 5.608 12.3011 5.608C13.5277 5.608 14.5091 5.86933 15.2451 6.392C15.9917 6.91467 16.3651 7.64 16.3651 8.568C16.3651 9.00533 16.2904 9.38933 16.1411 9.72C16.0024 10.0507 15.8264 10.3333 15.6131 10.568C15.4104 10.792 15.1437 11.0533 14.8131 11.352C14.4184 11.704 14.1304 12.0027 13.9491 12.248C13.7677 12.4827 13.6771 12.7707 13.6771 13.112H11.2611ZM12.4771 17.128C12.0397 17.128 11.6717 16.9893 11.3731 16.712C11.0851 16.424 10.9411 16.0773 10.9411 15.672C10.9411 15.2667 11.0851 14.9307 11.3731 14.664C11.6611 14.3867 12.0291 14.248 12.4771 14.248C12.9251 14.248 13.2931 14.3867 13.5811 14.664C13.8691 14.9307 14.0131 15.2667 14.0131 15.672C14.0131 16.0773 13.8637 16.424 13.5651 16.712C13.2771 16.9893 12.9144 17.128 12.4771 17.128Z" fill="currentColor"/>
</svg>
