<svg width="24" height="24" viewBox="0 0 24 24"
  xmlns="http://www.w3.org/2000/svg">
  <path fill-rule="evenodd" clip-rule="evenodd" d="M21.9606 10.0902C21.866 9.80286 21.6123 9.59276 21.3085 9.54899L15.3773 8.70065L12.7244 3.40766C12.4521 2.86411 11.5479 2.86411 11.2756 3.40766L8.6227 8.70065L2.69152 9.54899C2.38769 9.59276 2.13477 9.80206 2.03942 10.0902C1.94488 10.379 2.02326 10.695 2.24386 10.9059L6.53629 15.0266L5.52298 20.8441C5.47126 21.1425 5.5957 21.4449 5.84378 21.6224C6.09347 21.8014 6.42316 21.8245 6.69547 21.6828L12.0004 18.9357L17.3045 21.6821C17.4225 21.7433 17.5526 21.7736 17.6811 21.7736C17.8484 21.7736 18.0148 21.7226 18.1562 21.6216C18.4051 21.4441 18.5295 21.1417 18.477 20.8433L17.4637 15.0258L21.7561 10.9051C21.9767 10.6942 22.0551 10.379 21.9606 10.0902Z" fill="inherit" stroke="currentColor"/>
</svg>
