<svg width="206" height="135" viewBox="0 0 206 135" fill="none" xmlns="http://www.w3.org/2000/svg">
<g clip-path="url(#clip0)">
<rect width="206" height="135" fill="white"/>
<path d="M80.608 99.076C80.608 99.6493 80.2353 100.108 79.49 100.452C78.802 100.796 78.286 100.968 77.942 100.968C77.7127 100.968 77.3687 100.882 76.91 100.71C76.5087 100.481 76.2507 100.223 76.136 99.936C75.5053 97.7 74.9893 95.636 74.588 93.744C74.244 91.852 73.9287 90.0173 73.642 88.24C73.4127 86.4627 73.1833 84.6567 72.954 82.822C72.782 80.9873 72.5527 78.9807 72.266 76.802C71.8073 76.974 71.2053 77.318 70.46 77.834C69.7147 78.2927 68.9693 78.78 68.224 79.296C67.4787 79.7547 66.8193 80.1847 66.246 80.586C65.73 80.9873 65.4147 81.188 65.3 81.188C65.128 81.188 64.956 80.9587 64.784 80.5C64.6693 80.0413 64.612 79.726 64.612 79.554C64.612 79.4393 64.6407 79.2673 64.698 79.038C64.8127 78.7513 64.9273 78.522 65.042 78.35C65.1567 78.178 65.6153 77.748 66.418 77.06C67.278 76.3147 68.1667 75.512 69.084 74.652C70.0587 73.7347 70.9187 72.846 71.664 71.986C72.4093 71.0687 72.782 70.352 72.782 69.836C72.782 69.3773 72.954 69.0907 73.298 68.976C73.642 68.8613 73.8713 68.804 73.986 68.804C74.4447 68.804 74.8173 68.976 75.104 69.32C75.3907 69.664 75.62 70.094 75.792 70.61C75.964 71.126 76.0787 71.6707 76.136 72.244C76.2507 72.76 76.308 73.19 76.308 73.534C76.308 76.5153 76.4227 79.038 76.652 81.102C76.9387 83.1087 77.254 85.0293 77.598 86.864C77.8273 88.8707 78.114 90.5907 78.458 92.024C78.802 93.4 79.1173 94.5753 79.404 95.55C79.748 96.4673 80.0347 97.2127 80.264 97.786C80.4933 98.3593 80.608 98.7893 80.608 99.076Z" fill="#EA472C"/>
<path d="M119.014 110.316C119.014 110.603 118.842 110.947 118.498 111.348C118.211 111.749 117.896 112.007 117.552 112.122C116.807 112.466 116.004 112.638 115.144 112.638C114.284 112.638 113.481 112.695 112.736 112.81C111.991 112.867 111.36 113.068 110.844 113.412C110.385 113.699 110.156 114.301 110.156 115.218C110.156 115.505 110.213 116.193 110.328 117.282C110.443 118.314 110.557 119.547 110.672 120.98C110.844 122.356 110.987 123.847 111.102 125.452C111.217 127.057 111.274 128.519 111.274 129.838C111.274 130.182 111.245 130.555 111.188 130.956C111.131 131.415 111.016 131.845 110.844 132.246C110.672 132.647 110.443 132.991 110.156 133.278C109.869 133.565 109.468 133.708 108.952 133.708C108.493 133.708 108.121 133.45 107.834 132.934C107.605 132.475 107.404 131.959 107.232 131.386C107.117 130.813 107.031 130.268 106.974 129.752C106.974 129.236 106.974 128.949 106.974 128.892C106.974 128.835 106.945 128.29 106.888 127.258C106.888 126.226 106.859 124.993 106.802 123.56C106.802 122.069 106.773 120.521 106.716 118.916C106.716 117.253 106.687 115.791 106.63 114.53C106.63 113.957 106.487 113.67 106.2 113.67C106.028 113.67 105.598 113.727 104.91 113.842C104.279 113.899 103.649 113.928 103.018 113.928C102.731 113.928 102.072 113.899 101.04 113.842C100.065 113.785 99.0047 113.613 97.858 113.326C96.7113 112.982 95.6793 112.523 94.762 111.95C93.902 111.319 93.472 110.431 93.472 109.284C93.472 108.481 93.7873 107.621 94.418 106.704C95.0487 105.787 95.8513 104.841 96.826 103.866C97.8007 102.891 98.8327 101.945 99.922 101.028C101.011 100.053 102.043 99.136 103.018 98.276C103.993 97.416 104.795 96.642 105.426 95.954C106.057 95.266 106.372 94.6927 106.372 94.234V91.224C106.372 90.9373 106.487 90.7367 106.716 90.622C107.003 90.5073 107.232 90.45 107.404 90.45C107.92 90.45 108.321 90.6793 108.608 91.138C108.952 91.5393 109.21 92.0553 109.382 92.686C109.554 93.2593 109.669 93.8327 109.726 94.406C109.783 94.9793 109.812 95.4093 109.812 95.696C109.812 97.244 109.812 98.534 109.812 99.566C109.869 100.541 109.927 101.458 109.984 102.318C110.041 103.121 110.07 103.981 110.07 104.898C110.127 105.758 110.156 106.876 110.156 108.252C110.156 108.825 110.385 109.112 110.844 109.112C111.016 109.112 111.36 109.055 111.876 108.94C112.449 108.768 113.051 108.625 113.682 108.51C114.37 108.338 115.001 108.195 115.574 108.08C116.147 107.908 116.549 107.822 116.778 107.822C117.409 107.822 117.925 108.051 118.326 108.51C118.785 108.969 119.014 109.571 119.014 110.316ZM106.544 104.812C106.544 103.895 106.515 102.977 106.458 102.06C106.458 101.143 106.343 100.455 106.114 99.996C104.623 101.487 103.305 102.834 102.158 104.038C101.183 105.07 100.266 106.102 99.406 107.134C98.6033 108.109 98.202 108.739 98.202 109.026C98.9473 109.313 99.8073 109.485 100.782 109.542C101.757 109.599 102.617 109.628 103.362 109.628C103.821 109.628 104.337 109.628 104.91 109.628C105.541 109.571 106.085 109.485 106.544 109.37V104.812Z" fill="#6CC2BB"/>
<path d="M140.294 26.308C140.294 26.824 140.065 27.426 139.606 28.114C139.147 28.802 138.603 29.662 137.972 30.694C137.399 31.726 136.768 33.016 136.08 34.564C135.392 36.0547 134.819 37.918 134.36 40.154C134.073 41.53 133.873 43.078 133.758 44.798C133.701 46.518 133.385 48.0373 132.812 49.356C132.525 49.9867 132.124 50.5887 131.608 51.162C131.149 51.7353 130.576 52.022 129.888 52.022C129.429 52.022 129.114 51.678 128.942 50.99C128.827 50.302 128.77 49.7287 128.77 49.27C128.77 48.5247 128.942 47.2347 129.286 45.4C129.63 43.508 130.06 41.5013 130.576 39.38C131.092 37.2013 131.665 35.1087 132.296 33.102C132.927 31.038 133.529 29.49 134.102 28.458C133.987 28.3433 133.844 28.2573 133.672 28.2C133.5 28.0853 133.127 28.028 132.554 28.028C132.554 28.028 132.067 28.0853 131.092 28.2C130.175 28.2573 129.085 28.3433 127.824 28.458C126.62 28.5153 125.387 28.6013 124.126 28.716C122.865 28.7733 121.89 28.802 121.202 28.802C120.113 28.802 119.109 28.7733 118.192 28.716C117.275 28.6587 116.472 28.5153 115.784 28.286C115.096 28.0567 114.551 27.7127 114.15 27.254C113.749 26.7953 113.548 26.1647 113.548 25.362C113.548 24.9033 113.691 24.588 113.978 24.416C114.322 24.244 114.637 24.158 114.924 24.158C114.867 24.158 115.526 24.3013 116.902 24.588C118.335 24.8173 119.969 24.932 121.804 24.932C125.015 24.932 127.967 24.76 130.662 24.416C133.414 24.0147 135.363 23.5847 136.51 23.126C136.854 23.0113 137.055 22.954 137.112 22.954C137.284 22.954 137.513 23.0687 137.8 23.298C138.431 23.642 139.004 24.0433 139.52 24.502C140.036 24.9033 140.294 25.5053 140.294 26.308Z" fill="#F1C517"/>
<path d="M109.518 21.696C109.518 22.4413 109.088 23.3013 108.228 24.276C107.425 25.2507 106.365 26.254 105.046 27.286C103.785 28.2607 102.38 29.2353 100.832 30.21C99.3413 31.1847 97.908 32.102 96.532 32.962C95.2133 33.7647 94.0667 34.4527 93.092 35.026C92.1173 35.542 91.5153 35.886 91.286 36.058C91.6873 36.574 92.0887 37.3193 92.49 38.294C92.9487 39.2113 93.35 40.2147 93.694 41.304C94.0953 42.3933 94.4107 43.454 94.64 44.486C94.9267 45.518 95.07 46.4067 95.07 47.152C95.07 48.0693 94.8693 48.9293 94.468 49.732C94.124 50.4773 93.6367 51.1367 93.006 51.71C92.3753 52.226 91.6587 52.656 90.856 53C90.1107 53.2867 89.3653 53.43 88.62 53.43C87.416 53.43 86.2407 53.2867 85.094 53C83.9473 52.7133 82.944 52.2833 82.084 51.71C81.224 51.1367 80.5073 50.42 79.934 49.56C79.418 48.6427 79.16 47.582 79.16 46.378C79.16 44.7727 79.5327 43.3393 80.278 42.078C81.0807 40.7593 81.9407 39.6413 82.858 38.724C83.7753 37.7493 84.6067 37.004 85.352 36.488C86.1547 35.9147 86.556 35.542 86.556 35.37C86.556 35.198 86.2407 34.682 85.61 33.822C85.0367 32.962 84.3773 31.93 83.632 30.726C82.8867 29.522 82.1987 28.2607 81.568 26.942C80.9947 25.566 80.708 24.3333 80.708 23.244C80.708 22.1547 80.966 21.18 81.482 20.32C82.0553 19.46 82.772 18.7433 83.632 18.17C84.5493 17.5967 85.5813 17.1667 86.728 16.88C87.8747 16.5933 89.05 16.45 90.254 16.45C91.458 16.45 92.662 16.536 93.866 16.708C95.07 16.8227 96.1307 17.0807 97.048 17.482C97.9653 17.826 98.7107 18.342 99.284 19.03C99.8573 19.6607 100.144 20.5207 100.144 21.61C100.144 21.7247 100.029 21.9827 99.8 22.384C99.628 22.728 99.37 23.1293 99.026 23.588C98.7393 23.9893 98.424 24.362 98.08 24.706C97.7933 25.05 97.5353 25.222 97.306 25.222C96.962 25.222 96.79 24.9353 96.79 24.362C96.79 24.19 96.8187 23.9893 96.876 23.76C96.9907 23.4733 97.048 23.244 97.048 23.072C97.048 22.04 96.4747 21.3233 95.328 20.922C94.2387 20.4633 92.92 20.234 91.372 20.234C90.856 20.234 90.2253 20.2913 89.48 20.406C88.7347 20.5207 87.9893 20.75 87.244 21.094C86.4987 21.3807 85.868 21.8107 85.352 22.384C84.836 22.9 84.578 23.5593 84.578 24.362C84.578 24.6487 84.8073 25.222 85.266 26.082C85.7247 26.942 86.2407 27.8593 86.814 28.834C87.3873 29.8087 87.932 30.726 88.448 31.586C89.0213 32.3887 89.394 32.9047 89.566 33.134C90.77 32.5033 92.1173 31.7293 93.608 30.812C95.0987 29.8373 96.7613 28.8913 98.596 27.974C99.8573 27.3433 101.09 26.6267 102.294 25.824C103.498 24.964 104.559 24.19 105.476 23.502C106.451 22.7567 107.253 22.126 107.884 21.61C108.515 21.094 108.887 20.836 109.002 20.836C109.174 20.836 109.289 20.9507 109.346 21.18C109.461 21.4093 109.518 21.5813 109.518 21.696ZM91.2 46.206C91.2 46.034 91.114 45.5467 90.942 44.744C90.8273 43.9413 90.6267 43.11 90.34 42.25C90.1107 41.3327 89.7953 40.53 89.394 39.842C89.05 39.0967 88.6487 38.724 88.19 38.724C87.9607 38.724 87.5307 38.982 86.9 39.498C86.3267 39.9567 85.7247 40.53 85.094 41.218C84.5207 41.906 83.976 42.6513 83.46 43.454C83.0013 44.1993 82.772 44.83 82.772 45.346C82.772 46.3207 83.1733 47.2667 83.976 48.184C84.7787 49.1013 85.9253 49.56 87.416 49.56C88.3907 49.56 89.2507 49.2447 89.996 48.614C90.7987 47.9833 91.2 47.1807 91.2 46.206Z" fill="#428DFC"/>
<path d="M170.608 74.076C170.608 74.6493 170.235 75.108 169.49 75.452C168.802 75.796 168.286 75.968 167.942 75.968C167.713 75.968 167.369 75.882 166.91 75.71C166.509 75.4807 166.251 75.2227 166.136 74.936C165.505 72.7 164.989 70.636 164.588 68.744C164.244 66.852 163.929 65.0173 163.642 63.24C163.413 61.4627 163.183 59.6567 162.954 57.822C162.782 55.9873 162.553 53.9807 162.266 51.802C161.807 51.974 161.205 52.318 160.46 52.834C159.715 53.2927 158.969 53.78 158.224 54.296C157.479 54.7547 156.819 55.1847 156.246 55.586C155.73 55.9873 155.415 56.188 155.3 56.188C155.128 56.188 154.956 55.9587 154.784 55.5C154.669 55.0413 154.612 54.726 154.612 54.554C154.612 54.4393 154.641 54.2673 154.698 54.038C154.813 53.7513 154.927 53.522 155.042 53.35C155.157 53.178 155.615 52.748 156.418 52.06C157.278 51.3147 158.167 50.512 159.084 49.652C160.059 48.7347 160.919 47.846 161.664 46.986C162.409 46.0687 162.782 45.352 162.782 44.836C162.782 44.3773 162.954 44.0907 163.298 43.976C163.642 43.8613 163.871 43.804 163.986 43.804C164.445 43.804 164.817 43.976 165.104 44.32C165.391 44.664 165.62 45.094 165.792 45.61C165.964 46.126 166.079 46.6707 166.136 47.244C166.251 47.76 166.308 48.19 166.308 48.534C166.308 51.5153 166.423 54.038 166.652 56.102C166.939 58.1087 167.254 60.0293 167.598 61.864C167.827 63.8707 168.114 65.5907 168.458 67.024C168.802 68.4 169.117 69.5753 169.404 70.55C169.748 71.4673 170.035 72.2127 170.264 72.786C170.493 73.3593 170.608 73.7893 170.608 74.076ZM208.453 60.316C208.453 60.6027 208.281 60.9467 207.937 61.348C207.651 61.7493 207.335 62.0073 206.991 62.122C206.246 62.466 205.443 62.638 204.583 62.638C203.723 62.638 202.921 62.6953 202.175 62.81C201.43 62.8673 200.799 63.068 200.283 63.412C199.825 63.6987 199.595 64.3007 199.595 65.218C199.595 65.5047 199.653 66.1927 199.767 67.282C199.882 68.314 199.997 69.5467 200.111 70.98C200.283 72.356 200.427 73.8467 200.541 75.452C200.656 77.0573 200.713 78.5193 200.713 79.838C200.713 80.182 200.685 80.5547 200.627 80.956C200.57 81.4147 200.455 81.8447 200.283 82.246C200.111 82.6473 199.882 82.9913 199.595 83.278C199.309 83.5647 198.907 83.708 198.391 83.708C197.933 83.708 197.56 83.45 197.273 82.934C197.044 82.4753 196.843 81.9593 196.671 81.386C196.557 80.8127 196.471 80.268 196.413 79.752C196.413 79.236 196.413 78.9493 196.413 78.892C196.413 78.8347 196.385 78.29 196.327 77.258C196.327 76.226 196.299 74.9933 196.241 73.56C196.241 72.0693 196.213 70.5213 196.155 68.916C196.155 67.2533 196.127 65.7913 196.069 64.53C196.069 63.9567 195.926 63.67 195.639 63.67C195.467 63.67 195.037 63.7273 194.349 63.842C193.719 63.8993 193.088 63.928 192.457 63.928C192.171 63.928 191.511 63.8993 190.479 63.842C189.505 63.7847 188.444 63.6127 187.297 63.326C186.151 62.982 185.119 62.5233 184.201 61.95C183.341 61.3193 182.911 60.4307 182.911 59.284C182.911 58.4813 183.227 57.6213 183.857 56.704C184.488 55.7867 185.291 54.8407 186.265 53.866C187.24 52.8913 188.272 51.9453 189.361 51.028C190.451 50.0533 191.483 49.136 192.457 48.276C193.432 47.416 194.235 46.642 194.865 45.954C195.496 45.266 195.811 44.6927 195.811 44.234V41.224C195.811 40.9373 195.926 40.7367 196.155 40.622C196.442 40.5073 196.671 40.45 196.843 40.45C197.359 40.45 197.761 40.6793 198.047 41.138C198.391 41.5393 198.649 42.0553 198.821 42.686C198.993 43.2593 199.108 43.8327 199.165 44.406C199.223 44.9793 199.251 45.4093 199.251 45.696C199.251 47.244 199.251 48.534 199.251 49.566C199.309 50.5407 199.366 51.458 199.423 52.318C199.481 53.1207 199.509 53.9807 199.509 54.898C199.567 55.758 199.595 56.876 199.595 58.252C199.595 58.8253 199.825 59.112 200.283 59.112C200.455 59.112 200.799 59.0547 201.315 58.94C201.889 58.768 202.491 58.6247 203.121 58.51C203.809 58.338 204.44 58.1947 205.013 58.08C205.587 57.908 205.988 57.822 206.217 57.822C206.848 57.822 207.364 58.0513 207.765 58.51C208.224 58.9687 208.453 59.5707 208.453 60.316ZM195.983 54.812C195.983 53.8947 195.955 52.9773 195.897 52.06C195.897 51.1427 195.783 50.4547 195.553 49.996C194.063 51.4867 192.744 52.834 191.597 54.038C190.623 55.07 189.705 56.102 188.845 57.134C188.043 58.1087 187.641 58.7393 187.641 59.026C188.387 59.3127 189.247 59.4847 190.221 59.542C191.196 59.5993 192.056 59.628 192.801 59.628C193.26 59.628 193.776 59.628 194.349 59.628C194.98 59.5707 195.525 59.4847 195.983 59.37V54.812Z" fill="#428DFC"/>
<path d="M23.262 66.76C23.262 67.7347 22.746 68.6807 21.714 69.598C20.7393 70.5153 19.65 71.3753 18.446 72.178C17.242 72.9233 16.0953 73.554 15.006 74.07C13.974 74.5287 13.372 74.7867 13.2 74.844C12.512 75.1307 12.168 75.446 12.168 75.79C12.168 76.0193 12.3973 76.1627 12.856 76.22C13.372 76.22 14.232 76.4493 15.436 76.908C16.124 77.1373 16.8693 77.4527 17.672 77.854C18.4747 78.198 19.22 78.6853 19.908 79.316C20.596 79.8893 21.1693 80.6347 21.628 81.552C22.0867 82.412 22.316 83.4727 22.316 84.734C22.316 86.0527 21.8287 87.314 20.854 88.518C19.8793 89.722 18.6753 90.7827 17.242 91.7C15.866 92.6173 14.3467 93.3627 12.684 93.936C11.0787 94.452 9.61667 94.71 8.298 94.71C7.49533 94.71 6.664 94.6527 5.804 94.538C5.00133 94.366 4.22733 94.1367 3.482 93.85C2.794 93.5633 2.22067 93.1907 1.762 92.732C1.30333 92.2733 1.074 91.7 1.074 91.012C1.074 90.668 1.18867 90.238 1.418 89.722C1.70467 89.1487 1.99133 88.7187 2.278 88.432C2.966 89.0627 3.74 89.55 4.6 89.894C5.51733 90.238 6.664 90.41 8.04 90.41C8.95733 90.41 9.98933 90.238 11.136 89.894C12.34 89.4927 13.458 89.0053 14.49 88.432C15.522 87.8013 16.382 87.1133 17.07 86.368C17.758 85.5653 18.102 84.734 18.102 83.874C18.102 82.67 17.5 81.81 16.296 81.294C15.092 80.778 13.7733 80.348 12.34 80.004C10.9067 79.6027 9.588 79.1727 8.384 78.714C7.18 78.198 6.578 77.338 6.578 76.134C6.578 75.3313 7.15133 74.5287 8.298 73.726C9.502 72.9233 10.8207 72.1493 12.254 71.404C13.6873 70.6587 14.9773 69.9707 16.124 69.34C17.328 68.652 17.93 68.0213 17.93 67.448C17.93 67.0467 17.5573 66.846 16.812 66.846C15.8947 66.846 14.8913 66.9893 13.802 67.276C12.7127 67.5627 11.652 67.878 10.62 68.222C9.64533 68.566 8.728 68.8813 7.868 69.168C7.06533 69.4547 6.46333 69.598 6.062 69.598C5.25933 69.598 4.71467 69.4547 4.428 69.168C4.19867 68.8813 4.084 68.394 4.084 67.706C4.084 67.3047 4.37067 66.932 4.944 66.588C5.51733 66.1867 6.234 65.814 7.094 65.47C8.01133 65.126 8.986 64.8393 10.018 64.61C11.1073 64.3233 12.1393 64.094 13.114 63.922C14.0887 63.6927 14.9487 63.5207 15.694 63.406C16.4967 63.2913 17.0413 63.234 17.328 63.234C17.7293 63.234 18.2453 63.2913 18.876 63.406C19.564 63.4633 20.2233 63.6353 20.854 63.922C21.4847 64.1513 22.0293 64.4953 22.488 64.954C23.004 65.4127 23.262 66.0147 23.262 66.76ZM64.6441 65.642C64.6441 65.8713 63.9848 66.2153 62.6661 66.674C59.9141 67.534 57.4201 68.2793 55.1841 68.91C52.9481 69.5407 50.7408 70.3433 48.5621 71.318C46.5555 72.2353 45.0648 73.038 44.0901 73.726C43.1155 74.414 42.5421 74.758 42.3701 74.758C42.2555 74.758 42.1408 74.7293 42.0261 74.672C41.9115 74.5573 41.8255 74.5 41.7681 74.5C41.4815 74.7867 41.0228 75.2453 40.3921 75.876C39.7615 76.4493 39.3028 76.9653 39.0161 77.424C39.1308 77.5387 39.3028 77.6247 39.5321 77.682C39.7615 77.7393 40.0195 77.7967 40.3061 77.854C40.5928 77.9113 40.9081 77.94 41.2521 77.94C41.8255 77.94 42.8001 78.0547 44.1761 78.284C45.5521 78.5133 46.9568 78.9147 48.3901 79.488C49.8235 80.0613 51.0848 80.8927 52.1741 81.982C53.3208 83.014 53.8941 84.3327 53.8941 85.938C53.8941 86.9127 53.4068 87.7727 52.4321 88.518C51.5148 89.2633 50.4541 89.894 49.2501 90.41C48.1035 90.926 46.9568 91.3273 45.8101 91.614C44.7208 91.8433 44.0041 91.958 43.6601 91.958C42.5708 91.958 41.5961 91.528 40.7361 90.668C39.8761 89.7507 39.4461 88.7473 39.4461 87.658C39.4461 87.4287 39.6181 87.314 39.9621 87.314C40.3635 87.314 40.7935 87.4 41.2521 87.572C41.7681 87.6867 42.2555 87.744 42.7141 87.744C42.8288 87.744 43.2301 87.6867 43.9181 87.572C44.6061 87.4 45.3228 87.1707 46.0681 86.884C46.8708 86.54 47.5588 86.1673 48.1321 85.766C48.7628 85.3647 49.0781 84.906 49.0781 84.39C49.0781 84.046 48.7915 83.7307 48.2181 83.444C47.7021 83.1573 47.1001 82.8993 46.4121 82.67C45.7241 82.4407 45.0361 82.2687 44.3481 82.154C43.7175 82.0393 43.2588 81.982 42.9721 81.982C42.6281 81.982 42.2841 82.0107 41.9401 82.068C41.5961 82.1253 41.0228 82.154 40.2201 82.154C39.7041 82.154 39.1021 82.1253 38.4141 82.068C37.7261 81.9533 37.0381 81.7813 36.3501 81.552C35.7195 81.2653 35.1748 80.864 34.7161 80.348C34.2575 79.7747 34.0281 79.058 34.0281 78.198C34.0281 77.7967 34.3721 77.1087 35.0601 76.134C35.7481 75.102 36.5508 74.0987 37.4681 73.124C38.4428 72.092 39.4175 71.2033 40.3921 70.458C41.3668 69.6553 42.1695 69.254 42.8001 69.254C42.9721 69.254 43.0868 69.34 43.1441 69.512C43.2015 69.6267 43.3161 69.684 43.4881 69.684C44.3481 69.2827 45.4948 68.7953 46.9281 68.222C48.4188 67.6487 49.9668 67.104 51.5721 66.588C53.1775 66.072 54.7541 65.642 56.3021 65.298C57.8501 64.8967 59.1115 64.696 60.0861 64.696C61.2901 64.696 62.3508 64.782 63.2681 64.954C64.1855 65.0687 64.6441 65.298 64.6441 65.642Z" fill="#6742FC"/>
<path d="M192.756 93.846C192.756 94.4767 192.498 95.4227 191.982 96.684C191.523 97.888 190.95 99.522 190.262 101.586C189.631 103.593 188.972 106.087 188.284 109.068C187.596 111.992 187.08 115.461 186.736 119.474C186.679 120.219 186.621 120.821 186.564 121.28C186.564 121.739 186.535 122.14 186.478 122.484C186.478 122.828 186.478 123.143 186.478 123.43C186.478 123.774 186.478 124.147 186.478 124.548C186.478 124.949 186.507 125.236 186.564 125.408C186.679 125.637 186.736 125.895 186.736 126.182C186.736 127.501 186.048 128.16 184.672 128.16C184.041 128.16 183.439 127.845 182.866 127.214C182.35 126.583 182.121 125.895 182.178 125.15C182.235 124.405 182.35 123.029 182.522 121.022C182.751 119.015 183.009 116.808 183.296 114.4C183.64 111.992 184.013 109.613 184.414 107.262C184.815 104.911 185.245 103.019 185.704 101.586C185.073 101.93 184.357 102.274 183.554 102.618C182.751 102.962 181.891 103.277 180.974 103.564C180.057 103.793 179.168 103.994 178.308 104.166C177.448 104.338 176.674 104.424 175.986 104.424C173.578 104.424 171.571 103.593 169.966 101.93C168.361 100.267 167.558 98.1747 167.558 95.652C167.558 94.1613 167.873 92.8427 168.504 91.696C169.192 90.5493 170.023 89.6033 170.998 88.858C172.03 88.0553 173.119 87.4533 174.266 87.052C175.413 86.6507 176.473 86.45 177.448 86.45C179.799 86.45 181.691 86.8513 183.124 87.654C184.615 88.4567 185.847 90.234 186.822 92.986C186.879 93.1007 186.908 93.2727 186.908 93.502C186.965 93.674 186.994 93.7887 186.994 93.846C186.994 94.0753 186.937 94.3047 186.822 94.534C186.765 94.706 186.736 94.9067 186.736 95.136C186.736 95.1933 186.793 95.394 186.908 95.738C187.539 95.394 188.055 94.7633 188.456 93.846C188.915 92.9287 189.459 92.0973 190.09 91.352C190.205 91.352 190.405 91.438 190.692 91.61C190.979 91.782 191.265 92.0113 191.552 92.298C191.896 92.5273 192.183 92.7853 192.412 93.072C192.641 93.3587 192.756 93.6167 192.756 93.846ZM184.758 97.372C184.758 96.856 184.643 96.2253 184.414 95.48C184.242 94.6773 183.898 93.932 183.382 93.244C182.923 92.4987 182.293 91.8967 181.49 91.438C180.687 90.922 179.684 90.664 178.48 90.664C177.62 90.664 176.76 90.8073 175.9 91.094C175.04 91.3807 174.266 91.7533 173.578 92.212C172.89 92.6707 172.317 93.244 171.858 93.932C171.457 94.5627 171.256 95.2507 171.256 95.996C171.256 97.6587 171.772 98.7767 172.804 99.35C173.836 99.866 175.097 100.124 176.588 100.124C177.333 100.124 178.165 100.038 179.082 99.866C180.057 99.694 180.945 99.4933 181.748 99.264C182.608 98.9773 183.325 98.6907 183.898 98.404C184.471 98.06 184.758 97.716 184.758 97.372Z" fill="#EA472C"/>
<path d="M42.608 134.076C42.608 134.649 42.2353 135.108 41.49 135.452C40.802 135.796 40.286 135.968 39.942 135.968C39.7127 135.968 39.3687 135.882 38.91 135.71C38.5087 135.481 38.2507 135.223 38.136 134.936C37.5053 132.7 36.9893 130.636 36.588 128.744C36.244 126.852 35.9287 125.017 35.642 123.24C35.4127 121.463 35.1833 119.657 34.954 117.822C34.782 115.987 34.5527 113.981 34.266 111.802C33.8073 111.974 33.2053 112.318 32.46 112.834C31.7147 113.293 30.9693 113.78 30.224 114.296C29.4787 114.755 28.8193 115.185 28.246 115.586C27.73 115.987 27.4147 116.188 27.3 116.188C27.128 116.188 26.956 115.959 26.784 115.5C26.6693 115.041 26.612 114.726 26.612 114.554C26.612 114.439 26.6407 114.267 26.698 114.038C26.8127 113.751 26.9273 113.522 27.042 113.35C27.1567 113.178 27.6153 112.748 28.418 112.06C29.278 111.315 30.1667 110.512 31.084 109.652C32.0587 108.735 32.9187 107.846 33.664 106.986C34.4093 106.069 34.782 105.352 34.782 104.836C34.782 104.377 34.954 104.091 35.298 103.976C35.642 103.861 35.8713 103.804 35.986 103.804C36.4447 103.804 36.8173 103.976 37.104 104.32C37.3907 104.664 37.62 105.094 37.792 105.61C37.964 106.126 38.0787 106.671 38.136 107.244C38.2507 107.76 38.308 108.19 38.308 108.534C38.308 111.515 38.4227 114.038 38.652 116.102C38.9387 118.109 39.254 120.029 39.598 121.864C39.8273 123.871 40.114 125.591 40.458 127.024C40.802 128.4 41.1173 129.575 41.404 130.55C41.748 131.467 42.0347 132.213 42.264 132.786C42.4933 133.359 42.608 133.789 42.608 134.076ZM78.4754 116.532C78.4754 118.94 78.16 121.033 77.5294 122.81C76.956 124.53 76.2107 126.021 75.2934 127.282C74.4334 128.486 73.43 129.489 72.2834 130.292C71.194 131.037 70.1334 131.639 69.1014 132.098C68.0694 132.499 67.1234 132.786 66.2634 132.958C65.4607 133.13 64.8874 133.216 64.5434 133.216C63.2247 133.216 61.9634 132.929 60.7594 132.356C59.5554 131.725 58.4947 130.894 57.5774 129.862C56.66 128.83 55.9147 127.626 55.3414 126.25C54.8254 124.817 54.5674 123.297 54.5674 121.692C54.5674 120.316 54.7394 118.969 55.0834 117.65C55.4274 116.274 55.7714 115.013 56.1154 113.866C56.5167 112.662 56.8894 111.601 57.2334 110.684C57.5774 109.767 57.7494 109.021 57.7494 108.448C57.7494 108.333 57.7207 108.19 57.6634 108.018C57.6634 107.846 57.6634 107.674 57.6634 107.502C57.6634 107.158 57.778 106.9 58.0074 106.728C58.466 106.384 58.81 106.126 59.0394 105.954C59.326 105.782 59.6414 105.696 59.9854 105.696C60.3867 105.696 60.96 105.811 61.7054 106.04C62.4507 106.212 62.9667 106.298 63.2534 106.298C63.54 106.298 63.8554 106.298 64.1994 106.298C64.6007 106.298 65.002 106.269 65.4034 106.212C65.862 106.155 66.3207 106.097 66.7794 106.04C67.5247 106.04 68.5567 106.183 69.8754 106.47C71.194 106.699 72.484 107.187 73.7454 107.932C75.064 108.677 76.182 109.738 77.0994 111.114C78.0167 112.49 78.4754 114.296 78.4754 116.532ZM64.9734 129.174C66.5214 129.174 67.8974 128.859 69.1014 128.228C70.3054 127.54 71.3087 126.623 72.1114 125.476C72.9714 124.329 73.602 123.011 74.0034 121.52C74.4047 119.972 74.6054 118.367 74.6054 116.704C74.6054 115.443 74.376 114.353 73.9174 113.436C73.4587 112.519 72.8567 111.773 72.1114 111.2C71.4234 110.627 70.6207 110.225 69.7034 109.996C68.786 109.709 67.8974 109.566 67.0374 109.566C65.8907 109.566 64.8874 109.652 64.0274 109.824C63.1674 109.996 62.25 110.082 61.2754 110.082C61.1034 110.598 60.874 111.286 60.5874 112.146C60.3007 113.006 60.014 113.923 59.7274 114.898C59.4407 115.815 59.1827 116.733 58.9534 117.65C58.7814 118.51 58.6954 119.284 58.6954 119.972C58.6954 120.832 58.7527 121.807 58.8674 122.896C59.0394 123.985 59.3547 124.989 59.8134 125.906C60.272 126.823 60.9027 127.597 61.7054 128.228C62.5654 128.859 63.6547 129.174 64.9734 129.174Z" fill="#F1C517"/>
<path d="M66.416 53.192C66.416 53.6027 66.2293 53.92 65.856 54.144C65.52 54.368 65.24 54.48 65.016 54.48C64.68 54.48 64.4187 54.424 64.232 54.312C64.0827 54.2 63.896 54.0693 63.672 53.92C63.4853 53.7707 63.224 53.64 62.888 53.528C62.5893 53.416 62.1413 53.36 61.544 53.36C60.7973 53.36 60.1253 53.5467 59.528 53.92C58.968 54.2933 58.4267 54.704 57.904 55.152C57.4187 55.5627 56.9333 55.9547 56.448 56.328C55.9627 56.7013 55.4587 56.888 54.936 56.888C54.3013 56.888 53.8907 56.664 53.704 56.216C53.5173 55.768 53.424 55.1893 53.424 54.48C53.424 54.3307 53.6667 53.7893 54.152 52.856C54.6373 51.8853 55.1973 50.8213 55.832 49.664C56.504 48.5067 57.1387 47.4053 57.736 46.36C58.3333 45.2773 58.744 44.5307 58.968 44.12C59.192 43.7093 59.5093 43.1307 59.92 42.384C60.3307 41.6373 60.7413 40.8907 61.152 40.144C61.6 39.36 61.9733 38.688 62.272 38.128C62.5707 37.5307 62.72 37.176 62.72 37.064C62.72 36.8027 62.664 36.6347 62.552 36.56C62.44 36.4853 62.328 36.448 62.216 36.448C61.9547 36.448 61.376 36.5973 60.48 36.896C59.6213 37.1947 58.688 37.512 57.68 37.848C56.7093 38.184 55.776 38.5013 54.88 38.8C54.0213 39.0987 53.48 39.248 53.256 39.248C53.2187 39.248 53.1067 39.1547 52.92 38.968C52.8453 38.856 52.7707 38.744 52.696 38.632C52.6587 38.52 52.64 38.408 52.64 38.296C52.64 38.1467 53.0693 37.8293 53.928 37.344C54.824 36.8587 55.888 36.3733 57.12 35.888C58.352 35.3653 59.6027 34.9173 60.872 34.544C62.1787 34.1333 63.2427 33.928 64.064 33.928C64.5493 33.928 64.9787 34.0773 65.352 34.376C65.7253 34.6747 65.912 35.0853 65.912 35.608C65.912 36.168 65.7067 36.9333 65.296 37.904C64.8853 38.8747 64.3627 39.9387 63.728 41.096C63.0933 42.2533 62.4027 43.448 61.656 44.68C60.9467 45.912 60.2747 47.0507 59.64 48.096C59.0053 49.104 58.464 49.9813 58.016 50.728C57.568 51.4373 57.3253 51.8853 57.288 52.072C57.5493 51.9227 57.8853 51.792 58.296 51.68C58.7067 51.5307 59.1173 51.4 59.528 51.288C59.976 51.176 60.3867 51.0827 60.76 51.008C61.1707 50.9333 61.488 50.896 61.712 50.896C62.0107 50.896 62.4213 50.9333 62.944 51.008C63.4667 51.0827 63.9893 51.2133 64.512 51.4C65.0347 51.5493 65.4827 51.7733 65.856 52.072C66.2293 52.3707 66.416 52.744 66.416 53.192Z" fill="#428DFC"/>
<path d="M142.288 96.24C142.288 96.9653 141.904 97.6693 141.136 98.352C140.411 99.0347 139.6 99.6747 138.704 100.272C137.808 100.827 136.955 101.296 136.144 101.68C135.376 102.021 134.928 102.213 134.8 102.256C134.288 102.469 134.032 102.704 134.032 102.96C134.032 103.131 134.203 103.237 134.544 103.28C134.928 103.28 135.568 103.451 136.464 103.792C136.976 103.963 137.531 104.197 138.128 104.496C138.725 104.752 139.28 105.115 139.792 105.584C140.304 106.011 140.731 106.565 141.072 107.248C141.413 107.888 141.584 108.677 141.584 109.616C141.584 110.597 141.221 111.536 140.496 112.432C139.771 113.328 138.875 114.117 137.808 114.8C136.784 115.483 135.653 116.037 134.416 116.464C133.221 116.848 132.133 117.04 131.152 117.04C130.555 117.04 129.936 116.997 129.296 116.912C128.699 116.784 128.123 116.613 127.568 116.4C127.056 116.187 126.629 115.909 126.288 115.568C125.947 115.227 125.776 114.8 125.776 114.288C125.776 114.032 125.861 113.712 126.032 113.328C126.245 112.901 126.459 112.581 126.672 112.368C127.184 112.837 127.76 113.2 128.4 113.456C129.083 113.712 129.936 113.84 130.96 113.84C131.643 113.84 132.411 113.712 133.264 113.456C134.16 113.157 134.992 112.795 135.76 112.368C136.528 111.899 137.168 111.387 137.68 110.832C138.192 110.235 138.448 109.616 138.448 108.976C138.448 108.08 138 107.44 137.104 107.056C136.208 106.672 135.227 106.352 134.16 106.096C133.093 105.797 132.112 105.477 131.216 105.136C130.32 104.752 129.872 104.112 129.872 103.216C129.872 102.619 130.299 102.021 131.152 101.424C132.048 100.827 133.029 100.251 134.096 99.696C135.163 99.1413 136.123 98.6293 136.976 98.16C137.872 97.648 138.32 97.1787 138.32 96.752C138.32 96.4533 138.043 96.304 137.488 96.304C136.805 96.304 136.059 96.4107 135.248 96.624C134.437 96.8373 133.648 97.072 132.88 97.328C132.155 97.584 131.472 97.8187 130.832 98.032C130.235 98.2453 129.787 98.352 129.488 98.352C128.891 98.352 128.485 98.2453 128.272 98.032C128.101 97.8187 128.016 97.456 128.016 96.944C128.016 96.6453 128.229 96.368 128.656 96.112C129.083 95.8133 129.616 95.536 130.256 95.28C130.939 95.024 131.664 94.8107 132.432 94.64C133.243 94.4267 134.011 94.256 134.736 94.128C135.461 93.9573 136.101 93.8293 136.656 93.744C137.253 93.6587 137.659 93.616 137.872 93.616C138.171 93.616 138.555 93.6587 139.024 93.744C139.536 93.7867 140.027 93.9147 140.496 94.128C140.965 94.2987 141.371 94.5547 141.712 94.896C142.096 95.2373 142.288 95.6853 142.288 96.24Z" fill="#F1C517"/>
<path d="M166.864 120.768C166.864 122.56 166.629 124.117 166.16 125.44C165.733 126.72 165.179 127.829 164.496 128.768C163.856 129.664 163.109 130.411 162.256 131.008C161.445 131.563 160.656 132.011 159.888 132.352C159.12 132.651 158.416 132.864 157.776 132.992C157.179 133.12 156.752 133.184 156.496 133.184C155.515 133.184 154.576 132.971 153.68 132.544C152.784 132.075 151.995 131.456 151.312 130.688C150.629 129.92 150.075 129.024 149.648 128C149.264 126.933 149.072 125.803 149.072 124.608C149.072 123.584 149.2 122.581 149.456 121.6C149.712 120.576 149.968 119.637 150.224 118.784C150.523 117.888 150.8 117.099 151.056 116.416C151.312 115.733 151.44 115.179 151.44 114.752C151.44 114.667 151.419 114.56 151.376 114.432C151.376 114.304 151.376 114.176 151.376 114.048C151.376 113.792 151.461 113.6 151.632 113.472C151.973 113.216 152.229 113.024 152.4 112.896C152.613 112.768 152.848 112.704 153.104 112.704C153.403 112.704 153.829 112.789 154.384 112.96C154.939 113.088 155.323 113.152 155.536 113.152C155.749 113.152 155.984 113.152 156.24 113.152C156.539 113.152 156.837 113.131 157.136 113.088C157.477 113.045 157.819 113.003 158.16 112.96C158.715 112.96 159.483 113.067 160.464 113.28C161.445 113.451 162.405 113.813 163.344 114.368C164.325 114.923 165.157 115.712 165.84 116.736C166.523 117.76 166.864 119.104 166.864 120.768ZM156.816 130.176C157.968 130.176 158.992 129.941 159.888 129.472C160.784 128.96 161.531 128.277 162.128 127.424C162.768 126.571 163.237 125.589 163.536 124.48C163.835 123.328 163.984 122.133 163.984 120.896C163.984 119.957 163.813 119.147 163.472 118.464C163.131 117.781 162.683 117.227 162.128 116.8C161.616 116.373 161.019 116.075 160.336 115.904C159.653 115.691 158.992 115.584 158.352 115.584C157.499 115.584 156.752 115.648 156.112 115.776C155.472 115.904 154.789 115.968 154.064 115.968C153.936 116.352 153.765 116.864 153.552 117.504C153.339 118.144 153.125 118.827 152.912 119.552C152.699 120.235 152.507 120.917 152.336 121.6C152.208 122.24 152.144 122.816 152.144 123.328C152.144 123.968 152.187 124.693 152.272 125.504C152.4 126.315 152.635 127.061 152.976 127.744C153.317 128.427 153.787 129.003 154.384 129.472C155.024 129.941 155.835 130.176 156.816 130.176Z" fill="#6742FC"/>
<path d="M114.664 55.408C114.664 55.5787 114.173 55.8347 113.192 56.176C111.144 56.816 109.288 57.3707 107.624 57.84C105.96 58.3093 104.317 58.9067 102.696 59.632C101.203 60.3147 100.093 60.912 99.368 61.424C98.6427 61.936 98.216 62.192 98.088 62.192C98.0027 62.192 97.9173 62.1707 97.832 62.128C97.7467 62.0427 97.6827 62 97.64 62C97.4267 62.2133 97.0853 62.5547 96.616 63.024C96.1467 63.4507 95.8053 63.8347 95.592 64.176C95.6773 64.2613 95.8053 64.3253 95.976 64.368C96.1467 64.4107 96.3387 64.4533 96.552 64.496C96.7653 64.5387 97 64.56 97.256 64.56C97.6827 64.56 98.408 64.6453 99.432 64.816C100.456 64.9867 101.501 65.2853 102.568 65.712C103.635 66.1387 104.573 66.7573 105.384 67.568C106.237 68.336 106.664 69.3173 106.664 70.512C106.664 71.2373 106.301 71.8773 105.576 72.432C104.893 72.9867 104.104 73.456 103.208 73.84C102.355 74.224 101.501 74.5227 100.648 74.736C99.8373 74.9067 99.304 74.992 99.048 74.992C98.2373 74.992 97.512 74.672 96.872 74.032C96.232 73.3493 95.912 72.6027 95.912 71.792C95.912 71.6213 96.04 71.536 96.296 71.536C96.5947 71.536 96.9147 71.6 97.256 71.728C97.64 71.8133 98.0027 71.856 98.344 71.856C98.4293 71.856 98.728 71.8133 99.24 71.728C99.752 71.6 100.285 71.4293 100.84 71.216C101.437 70.96 101.949 70.6827 102.376 70.384C102.845 70.0853 103.08 69.744 103.08 69.36C103.08 69.104 102.867 68.8693 102.44 68.656C102.056 68.4427 101.608 68.2507 101.096 68.08C100.584 67.9093 100.072 67.7813 99.56 67.696C99.0907 67.6107 98.7493 67.568 98.536 67.568C98.28 67.568 98.024 67.5893 97.768 67.632C97.512 67.6747 97.0853 67.696 96.488 67.696C96.104 67.696 95.656 67.6747 95.144 67.632C94.632 67.5467 94.12 67.4187 93.608 67.248C93.1387 67.0347 92.7333 66.736 92.392 66.352C92.0507 65.9253 91.88 65.392 91.88 64.752C91.88 64.4533 92.136 63.9413 92.648 63.216C93.16 62.448 93.7573 61.7013 94.44 60.976C95.1653 60.208 95.8907 59.5467 96.616 58.992C97.3413 58.3947 97.9387 58.096 98.408 58.096C98.536 58.096 98.6213 58.16 98.664 58.288C98.7067 58.3733 98.792 58.416 98.92 58.416C99.56 58.1173 100.413 57.7547 101.48 57.328C102.589 56.9013 103.741 56.496 104.936 56.112C106.131 55.728 107.304 55.408 108.456 55.152C109.608 54.8533 110.547 54.704 111.272 54.704C112.168 54.704 112.957 54.768 113.64 54.896C114.323 54.9813 114.664 55.152 114.664 55.408Z" fill="#6742FC"/>
<path d="M23.592 33.824C23.592 34.2507 23.3147 34.592 22.76 34.848C22.248 35.104 21.864 35.232 21.608 35.232C21.4373 35.232 21.1813 35.168 20.84 35.04C20.5413 34.8693 20.3493 34.6773 20.264 34.464C19.7947 32.8 19.4107 31.264 19.112 29.856C18.856 28.448 18.6213 27.0827 18.408 25.76C18.2373 24.4373 18.0667 23.0933 17.896 21.728C17.768 20.3627 17.5973 18.8693 17.384 17.248C17.0427 17.376 16.5947 17.632 16.04 18.016C15.4853 18.3573 14.9307 18.72 14.376 19.104C13.8213 19.4453 13.3307 19.7653 12.904 20.064C12.52 20.3627 12.2853 20.512 12.2 20.512C12.072 20.512 11.944 20.3413 11.816 20C11.7307 19.6587 11.688 19.424 11.688 19.296C11.688 19.2107 11.7093 19.0827 11.752 18.912C11.8373 18.6987 11.9227 18.528 12.008 18.4C12.0933 18.272 12.4347 17.952 13.032 17.44C13.672 16.8853 14.3333 16.288 15.016 15.648C15.7413 14.9653 16.3813 14.304 16.936 13.664C17.4907 12.9813 17.768 12.448 17.768 12.064C17.768 11.7227 17.896 11.5093 18.152 11.424C18.408 11.3387 18.5787 11.296 18.664 11.296C19.0053 11.296 19.2827 11.424 19.496 11.68C19.7093 11.936 19.88 12.256 20.008 12.64C20.136 13.024 20.2213 13.4293 20.264 13.856C20.3493 14.24 20.392 14.56 20.392 14.816C20.392 17.0347 20.4773 18.912 20.648 20.448C20.8613 21.9413 21.096 23.3707 21.352 24.736C21.5227 26.2293 21.736 27.5093 21.992 28.576C22.248 29.6 22.4827 30.4747 22.696 31.2C22.952 31.8827 23.1653 32.4373 23.336 32.864C23.5067 33.2907 23.592 33.6107 23.592 33.824ZM49.708 14.24C49.708 14.9653 49.324 15.6693 48.556 16.352C47.8307 17.0347 47.02 17.6747 46.124 18.272C45.228 18.8267 44.3747 19.296 43.564 19.68C42.796 20.0213 42.348 20.2133 42.22 20.256C41.708 20.4693 41.452 20.704 41.452 20.96C41.452 21.1307 41.6227 21.2373 41.964 21.28C42.348 21.28 42.988 21.4507 43.884 21.792C44.396 21.9627 44.9507 22.1973 45.548 22.496C46.1453 22.752 46.7 23.1147 47.212 23.584C47.724 24.0107 48.1507 24.5653 48.492 25.248C48.8333 25.888 49.004 26.6773 49.004 27.616C49.004 28.5973 48.6413 29.536 47.916 30.432C47.1907 31.328 46.2947 32.1173 45.228 32.8C44.204 33.4827 43.0733 34.0373 41.836 34.464C40.6413 34.848 39.5533 35.04 38.572 35.04C37.9747 35.04 37.356 34.9973 36.716 34.912C36.1187 34.784 35.5427 34.6133 34.988 34.4C34.476 34.1867 34.0493 33.9093 33.708 33.568C33.3667 33.2267 33.196 32.8 33.196 32.288C33.196 32.032 33.2813 31.712 33.452 31.328C33.6653 30.9013 33.8787 30.5813 34.092 30.368C34.604 30.8373 35.18 31.2 35.82 31.456C36.5027 31.712 37.356 31.84 38.38 31.84C39.0627 31.84 39.8307 31.712 40.684 31.456C41.58 31.1573 42.412 30.7947 43.18 30.368C43.948 29.8987 44.588 29.3867 45.1 28.832C45.612 28.2347 45.868 27.616 45.868 26.976C45.868 26.08 45.42 25.44 44.524 25.056C43.628 24.672 42.6467 24.352 41.58 24.096C40.5133 23.7973 39.532 23.4773 38.636 23.136C37.74 22.752 37.292 22.112 37.292 21.216C37.292 20.6187 37.7187 20.0213 38.572 19.424C39.468 18.8267 40.4493 18.2507 41.516 17.696C42.5827 17.1413 43.5427 16.6293 44.396 16.16C45.292 15.648 45.74 15.1787 45.74 14.752C45.74 14.4533 45.4627 14.304 44.908 14.304C44.2253 14.304 43.4787 14.4107 42.668 14.624C41.8573 14.8373 41.068 15.072 40.3 15.328C39.5747 15.584 38.892 15.8187 38.252 16.032C37.6547 16.2453 37.2067 16.352 36.908 16.352C36.3107 16.352 35.9053 16.2453 35.692 16.032C35.5213 15.8187 35.436 15.456 35.436 14.944C35.436 14.6453 35.6493 14.368 36.076 14.112C36.5027 13.8133 37.036 13.536 37.676 13.28C38.3587 13.024 39.084 12.8107 39.852 12.64C40.6627 12.4267 41.4307 12.256 42.156 12.128C42.8813 11.9573 43.5213 11.8293 44.076 11.744C44.6733 11.6587 45.0787 11.616 45.292 11.616C45.5907 11.616 45.9747 11.6587 46.444 11.744C46.956 11.7867 47.4467 11.9147 47.916 12.128C48.3853 12.2987 48.7907 12.5547 49.132 12.896C49.516 13.2373 49.708 13.6853 49.708 14.24Z" fill="#EA472C"/>
<path d="M160.592 28.824C160.592 29.2507 160.315 29.592 159.76 29.848C159.248 30.104 158.864 30.232 158.608 30.232C158.437 30.232 158.181 30.168 157.84 30.04C157.541 29.8693 157.349 29.6773 157.264 29.464C156.795 27.8 156.411 26.264 156.112 24.856C155.856 23.448 155.621 22.0827 155.408 20.76C155.237 19.4373 155.067 18.0933 154.896 16.728C154.768 15.3627 154.597 13.8693 154.384 12.248C154.043 12.376 153.595 12.632 153.04 13.016C152.485 13.3573 151.931 13.72 151.376 14.104C150.821 14.4453 150.331 14.7653 149.904 15.064C149.52 15.3627 149.285 15.512 149.2 15.512C149.072 15.512 148.944 15.3413 148.816 15C148.731 14.6587 148.688 14.424 148.688 14.296C148.688 14.2107 148.709 14.0827 148.752 13.912C148.837 13.6987 148.923 13.528 149.008 13.4C149.093 13.272 149.435 12.952 150.032 12.44C150.672 11.8853 151.333 11.288 152.016 10.648C152.741 9.96533 153.381 9.304 153.936 8.664C154.491 7.98133 154.768 7.448 154.768 7.064C154.768 6.72267 154.896 6.50933 155.152 6.424C155.408 6.33867 155.579 6.296 155.664 6.296C156.005 6.296 156.283 6.424 156.496 6.68C156.709 6.936 156.88 7.256 157.008 7.64C157.136 8.024 157.221 8.42933 157.264 8.856C157.349 9.24 157.392 9.56 157.392 9.816C157.392 12.0347 157.477 13.912 157.648 15.448C157.861 16.9413 158.096 18.3707 158.352 19.736C158.523 21.2293 158.736 22.5093 158.992 23.576C159.248 24.6 159.483 25.4747 159.696 26.2C159.952 26.8827 160.165 27.4373 160.336 27.864C160.507 28.2907 160.592 28.6107 160.592 28.824ZM186.324 26.648C186.324 27.1173 186.111 27.48 185.684 27.736C185.3 27.992 184.98 28.12 184.724 28.12C184.34 28.12 184.041 28.056 183.828 27.928C183.657 27.8 183.444 27.6507 183.188 27.48C182.975 27.3093 182.676 27.16 182.292 27.032C181.951 26.904 181.439 26.84 180.756 26.84C179.903 26.84 179.135 27.0533 178.452 27.48C177.812 27.9067 177.193 28.376 176.596 28.888C176.041 29.3573 175.487 29.8053 174.932 30.232C174.377 30.6587 173.801 30.872 173.204 30.872C172.479 30.872 172.009 30.616 171.796 30.104C171.583 29.592 171.476 28.9307 171.476 28.12C171.476 27.9493 171.753 27.3307 172.308 26.264C172.863 25.1547 173.503 23.9387 174.228 22.616C174.996 21.2933 175.721 20.0347 176.404 18.84C177.087 17.6027 177.556 16.7493 177.812 16.28C178.068 15.8107 178.431 15.1493 178.9 14.296C179.369 13.4427 179.839 12.5893 180.308 11.736C180.82 10.84 181.247 10.072 181.588 9.432C181.929 8.74933 182.1 8.344 182.1 8.216C182.1 7.91733 182.036 7.72533 181.908 7.64C181.78 7.55467 181.652 7.512 181.524 7.512C181.225 7.512 180.564 7.68267 179.54 8.024C178.559 8.36533 177.492 8.728 176.34 9.112C175.231 9.496 174.164 9.85867 173.14 10.2C172.159 10.5413 171.54 10.712 171.284 10.712C171.241 10.712 171.113 10.6053 170.9 10.392C170.815 10.264 170.729 10.136 170.644 10.008C170.601 9.88 170.58 9.752 170.58 9.624C170.58 9.45333 171.071 9.09067 172.052 8.536C173.076 7.98133 174.292 7.42667 175.7 6.872C177.108 6.27467 178.537 5.76266 179.988 5.336C181.481 4.86666 182.697 4.632 183.636 4.632C184.191 4.632 184.681 4.80267 185.108 5.144C185.535 5.48533 185.748 5.95466 185.748 6.552C185.748 7.192 185.513 8.06667 185.044 9.176C184.575 10.2853 183.977 11.5013 183.252 12.824C182.527 14.1467 181.737 15.512 180.884 16.92C180.073 18.328 179.305 19.6293 178.58 20.824C177.855 21.976 177.236 22.9787 176.724 23.832C176.212 24.6427 175.935 25.1547 175.892 25.368C176.191 25.1973 176.575 25.048 177.044 24.92C177.513 24.7493 177.983 24.6 178.452 24.472C178.964 24.344 179.433 24.2373 179.86 24.152C180.329 24.0667 180.692 24.024 180.948 24.024C181.289 24.024 181.759 24.0667 182.356 24.152C182.953 24.2373 183.551 24.3867 184.148 24.6C184.745 24.7707 185.257 25.0267 185.684 25.368C186.111 25.7093 186.324 26.136 186.324 26.648Z" fill="#6742FC"/>
<path d="M146.616 76.976C146.616 77.8293 146.403 78.7467 145.976 79.728C145.592 80.6667 145.101 81.5627 144.504 82.416C143.907 83.2693 143.267 83.9733 142.584 84.528C141.901 85.0827 141.283 85.36 140.728 85.36C140.131 85.36 139.469 85.1467 138.744 84.72C138.019 84.2933 137.485 83.76 137.144 83.12C137.059 82.9067 136.973 82.8 136.888 82.8C136.717 82.8 136.547 82.9067 136.376 83.12C136.248 83.2907 136.099 83.376 135.928 83.376C135.843 83.376 135.715 83.248 135.544 82.992C135.416 82.6933 135.288 82.3733 135.16 82.032C135.032 81.648 134.904 81.2853 134.776 80.944C134.691 80.6027 134.648 80.3467 134.648 80.176C134.648 80.048 134.691 79.792 134.776 79.408C134.904 78.9813 134.968 78.704 134.968 78.576V75.376C134.968 73.7547 135.139 71.9413 135.48 69.936C135.864 67.888 136.376 65.968 137.016 64.176C137.699 62.384 138.488 60.8907 139.384 59.696C140.28 58.4587 141.283 57.84 142.392 57.84C143.117 57.84 143.651 58.0107 143.992 58.352C144.333 58.6507 144.504 58.928 144.504 59.184C144.504 59.44 144.397 59.632 144.184 59.76C143.971 59.888 143.757 60.0373 143.544 60.208C142.648 60.9333 141.837 61.8507 141.112 62.96C140.429 64.0693 139.832 65.264 139.32 66.544C138.851 67.824 138.467 69.1467 138.168 70.512C137.912 71.8347 137.784 73.0933 137.784 74.288C137.997 74.0747 138.275 73.84 138.616 73.584C139 73.2853 139.405 73.008 139.832 72.752C140.259 72.496 140.707 72.2827 141.176 72.112C141.645 71.8987 142.072 71.792 142.456 71.792C143.309 71.792 143.992 71.9627 144.504 72.304C145.059 72.6027 145.485 73.008 145.784 73.52C146.125 73.9893 146.339 74.544 146.424 75.184C146.552 75.7813 146.616 76.3787 146.616 76.976ZM143.928 76.592C143.928 75.3973 143.501 74.8 142.648 74.8C142.179 74.8 141.667 74.992 141.112 75.376C140.6 75.7173 140.109 76.144 139.64 76.656C139.171 77.1253 138.787 77.616 138.488 78.128C138.189 78.64 138.04 79.024 138.04 79.28C138.04 79.4933 138.125 79.7707 138.296 80.112C138.467 80.4107 138.659 80.7093 138.872 81.008C139.085 81.3067 139.32 81.584 139.576 81.84C139.832 82.0533 140.067 82.16 140.28 82.16C140.707 82.16 141.133 81.9467 141.56 81.52C141.987 81.0933 142.371 80.6027 142.712 80.048C143.096 79.4507 143.395 78.832 143.608 78.192C143.821 77.552 143.928 77.0187 143.928 76.592Z" fill="#6CC2BB"/>
</g>
<defs>
<clipPath id="clip0">
<rect width="206" height="135" fill="white"/>
</clipPath>
</defs>
</svg>
