<svg width="207" height="140" viewBox="0 0 207 140" fill="none" xmlns="http://www.w3.org/2000/svg">
<g clip-path="url(#clip0)">
<g clip-path="url(#clip1)">
<path fill-rule="evenodd" clip-rule="evenodd" d="M25.711 85.4694C25.8303 85.2922 26.0689 85.2331 26.2479 85.3512C26.4268 85.4694 26.4865 85.7056 26.3672 85.8828C26.3075 85.9418 10.3799 110.509 22.9669 124.801C23.0862 124.978 23.0862 125.214 22.9072 125.392C22.7283 125.51 22.4897 125.51 22.3107 125.333C9.36575 110.568 25.6513 85.5284 25.711 85.4694Z" fill="#000618"/>
<path fill-rule="evenodd" clip-rule="evenodd" d="M72.2413 82.0444C72.122 81.8672 72.1816 81.631 72.3606 81.5129C72.5396 81.3948 72.7782 81.4538 72.8975 81.631C72.8975 81.69 82.0245 95.6864 72.4203 106.435C72.3009 106.612 72.0027 106.612 71.8237 106.494C71.6448 106.376 71.6448 106.08 71.7641 105.903C81.0701 95.5683 72.2413 82.1034 72.2413 82.0444Z" fill="#000618"/>
<path fill-rule="evenodd" clip-rule="evenodd" d="M28.2761 68.8748L21.5949 76.1978C21.5949 76.1978 24.8162 81.8081 24.5179 89.2493C24.2196 96.6313 -0.95442 137.617 45.5162 137.38C92.0465 137.144 66.1565 113.403 66.1565 113.403C66.1565 113.403 81.4877 108.502 73.7326 86.4736C65.9776 64.5046 28.2761 68.8748 28.2761 68.8748Z" fill="black"/>
<path fill-rule="evenodd" clip-rule="evenodd" d="M66.5741 113.817C66.2758 113.521 66.1565 113.403 66.1565 113.403C66.1565 113.403 66.6934 113.226 67.5285 112.813C68.8409 111.336 70.213 109.624 71.5254 107.616C77.8487 97.8713 71.1078 84.4064 71.1078 84.4064L67.5285 83.3434C67.5285 83.3434 60.37 80.804 58.4611 80.1544C56.5522 79.5048 34.3608 80.9221 28.0375 92.6153C21.7141 104.308 28.7533 121.317 28.7533 121.317C28.7533 121.317 54.9415 120.49 56.4329 120.372C57.5066 120.372 61.8017 118.718 66.5741 113.817Z" fill="#01020E"/>
<path fill-rule="evenodd" clip-rule="evenodd" d="M79.0418 120.254C86.4986 123.502 87.5127 130.234 88.4672 137.794C89.3024 144.467 89.6006 154.566 87.811 169.861C86.0214 185.157 57.805 149.664 57.805 149.664L79.0418 120.254Z" fill="#EAB68D"/>
<path fill-rule="evenodd" clip-rule="evenodd" d="M35.1371 120.018L27.8593 116.356C27.8593 116.356 20.2235 118.246 16.2864 123.148C12.3492 128.049 0.478002 169.743 0.0604224 174.822C-0.416811 179.901 3.10279 199.331 9.48579 199.331C15.8688 199.331 19.0305 156.869 19.0305 156.869L24.2204 140.924L35.1371 120.018Z" fill="#EAB68D"/>
<path fill-rule="evenodd" clip-rule="evenodd" d="M35.1363 120.018L27.8585 116.356C27.8585 116.356 25.4127 116.947 22.5493 118.364C23.5038 118.837 24.2196 119.959 24.16 122.498C23.9214 129.171 13.6608 154.566 11.4536 161.653C9.18677 168.739 7.39714 172.991 7.39714 172.991L2.74412 163.247C2.32654 164.842 1.90896 166.259 1.61069 167.617C3.34066 176.948 5.54786 189.704 5.84613 197.027C6.91991 198.445 8.17265 199.331 9.48504 199.331C15.868 199.331 19.0297 156.869 19.0297 156.869L24.2196 140.924L35.1363 120.018Z" fill="#EAB68D"/>
<path fill-rule="evenodd" clip-rule="evenodd" d="M54.345 110.864C54.345 110.864 73.6133 117.656 79.0418 120.254C79.0418 120.254 78.0277 121.317 76.8346 127.164C75.6416 133.069 76.8346 141.573 75.5819 150.018C74.6871 156.101 70.5113 186.929 68.3041 203.524L20.8194 199.744C20.8194 198.976 20.7597 198.09 20.7597 197.087C24.6372 200.098 28.3955 200.217 26.0689 191.417C22.0125 176.121 22.8476 149.487 24.16 141.514C25.5321 133.542 27.5006 125.097 25.5917 117.006C26.8444 115.943 54.345 110.864 54.345 110.864Z" fill="#FF6373"/>
<path fill-rule="evenodd" clip-rule="evenodd" d="M66.9917 115.47C71.8237 117.242 76.7153 119.132 79.0418 120.254C79.0418 120.254 78.0277 121.317 76.8346 127.163C75.6415 133.069 76.8346 141.573 75.5819 150.018C75.4029 151.258 75.1047 153.444 74.6871 156.337C63.9493 157.991 32.273 161.593 24.6372 160.944C24.1003 160.885 23.5635 160.826 23.0266 160.708C23.0266 152.381 23.5038 145.176 24.1003 141.573C24.16 141.396 24.16 141.16 24.2196 140.983C26.9041 148.837 60.728 153.207 60.728 153.207C60.728 153.207 66.3355 140.924 64.9038 136.376C63.4721 131.829 56.7312 131.947 56.7312 131.947L56.9101 127.872C56.9101 127.872 63.6511 118.836 65.2617 116.12C65.4407 115.765 66.0372 115.529 66.9917 115.47Z" fill="#FF6373"/>
<path fill-rule="evenodd" clip-rule="evenodd" d="M69.7358 116.474L70.1534 116.651C69.3182 120.077 68.1251 124.093 66.5741 126.455C65.1424 128.581 63.4721 130.53 60.9666 131.947C58.5208 133.364 55.2995 134.191 50.8254 134.073C46.9479 133.955 43.7862 132.538 41.4001 130.53C38.2384 127.931 36.2698 124.27 35.4346 121.258C34.1819 117.006 33.0485 115.588 32.6309 115.234L33.1081 115.116C33.645 115.766 34.7188 117.36 35.8522 121.14C36.6874 124.093 38.5963 127.695 41.6983 130.234C44.0248 132.183 47.0672 133.601 50.8851 133.66C55.2398 133.778 58.4015 132.951 60.7877 131.593C63.1738 130.234 64.8442 128.286 66.2162 126.219C67.7672 123.856 68.9006 119.84 69.7358 116.474ZM77.6698 119.604C77.7891 119.663 77.9084 119.722 78.0277 119.781C77.0733 121.435 75.8205 124.801 74.5678 131.947C73.1361 140.51 74.8064 144.349 76.0591 146.003C76.0591 146.18 76.0591 146.416 75.9995 146.593C74.6274 145.058 72.5992 141.16 74.1502 131.888C75.3433 124.86 76.6557 121.317 77.6698 119.604ZM23.8021 143.936C23.8617 143.64 23.8617 143.404 23.9214 143.168C24.9951 141.042 29.1113 131.77 26.7848 116.592C26.9041 116.533 27.0234 116.533 27.2024 116.474C29.8868 133.837 24.16 143.581 24.0407 143.817C24.0407 143.817 24.0407 143.876 23.981 143.876C23.9214 143.876 23.8617 143.936 23.8021 143.936Z" fill="#FF6373"/>
<path fill-rule="evenodd" clip-rule="evenodd" d="M52.8536 90.4302H52.973C57.1488 90.3712 60.6683 93.7374 60.6683 97.8713L60.7877 113.167C63.5914 114.171 66.932 115.411 70.0937 116.592C65.1424 127.163 59.356 134.132 50.0499 132.124C37.3436 129.408 37.7611 118.777 33.8836 114.88C37.5225 114.112 41.758 113.285 45.4565 112.517L45.3372 98.0485C45.2776 93.9145 48.6779 90.4893 52.8536 90.4302Z" fill="#EAB68D"/>
<path fill-rule="evenodd" clip-rule="evenodd" d="M60.1911 95.3319C60.4894 96.0996 60.6684 96.9855 60.6684 97.8713L60.7877 113.167C63.5914 114.171 66.932 115.411 70.0937 116.592C66.4548 124.329 62.3387 130.175 56.7312 131.888C65.6793 125.923 62.9352 118.541 61.0263 117.773C59.1174 117.006 44.0249 112.813 44.0249 112.813C44.5021 112.695 44.9793 112.635 45.4566 112.517L45.3372 98.0485C45.3372 95.6862 46.411 93.6193 48.0813 92.2019C52.0782 92.2019 56.075 93.4421 60.1911 95.3319Z" fill="#EAB68D"/>
<path fill-rule="evenodd" clip-rule="evenodd" d="M70.034 75.9617C70.1534 75.9617 70.3323 75.9617 70.4516 75.9617C73.1361 76.1388 75.4626 78.2058 75.8802 80.9224C76.3574 84.1115 74.1502 87.1233 70.8692 87.6549C67.6479 88.1273 64.6055 85.9422 64.0686 82.6941C63.7704 80.8043 64.4266 79.0326 65.6196 77.7334C65.6793 79.5051 66.2758 81.572 68.5427 81.513L68.0058 78.1468C67.8865 76.8475 69.0796 76.0798 70.034 75.9617Z" fill="#EAB68D"/>
<path fill-rule="evenodd" clip-rule="evenodd" d="M27.5603 82.635C27.441 82.6941 27.262 82.6941 27.1427 82.7531C24.5776 83.639 22.9072 86.1784 23.2055 88.9541C23.5634 92.2022 26.5462 94.5054 29.7675 94.1511C33.0485 93.7967 35.375 90.8439 35.017 87.6548C34.7784 85.765 33.7047 84.2296 32.2133 83.2846C32.5712 84.9973 32.6309 87.1824 30.4237 87.6548L30.0061 84.2886C29.8868 82.9303 28.5147 82.4579 27.5603 82.635Z" fill="#EAB68D"/>
<path fill-rule="evenodd" clip-rule="evenodd" d="M45.9337 50.1539C57.0294 48.6775 67.3496 56.4729 68.7813 67.4574L71.2271 85.6469C72.7184 96.6314 64.8441 106.848 53.7484 108.266C42.6528 109.742 32.3326 101.946 30.9009 90.9619L28.4551 72.7725C26.9637 61.788 34.8381 51.5712 45.9337 50.1539Z" fill="#EAB68D"/>
<path fill-rule="evenodd" clip-rule="evenodd" d="M45.9338 50.1539C56.4329 48.7956 66.2759 55.7052 68.4831 65.8039C68.3637 66.7488 68.0655 67.7528 67.5286 68.7567L58.1032 68.2252C58.1032 68.2252 51.8992 79.9184 39.1928 82.8122C35.7926 83.5799 34.7188 87.0052 35.375 90.2533C37.1049 98.1669 43.9055 109.447 60.7877 106.021C58.6401 107.203 56.2539 108.029 53.6888 108.325C42.5931 109.801 32.273 102.006 30.8413 91.021L28.3954 72.8316C26.9637 61.7881 34.8381 51.5713 45.9338 50.1539Z" fill="#EAB68D"/>
<path fill-rule="evenodd" clip-rule="evenodd" d="M42.2352 90.1941C43.6669 89.9579 45.039 90.9618 45.2776 92.4383C45.5162 93.9147 44.5021 95.2139 43.0107 95.4501C41.579 95.6864 40.207 94.6824 39.9683 93.206C39.7894 91.7886 40.8035 90.4303 42.2352 90.1941Z" fill="#EA745D"/>
<path fill-rule="evenodd" clip-rule="evenodd" d="M64.1879 86.7688C65.6793 86.5326 66.9917 87.5366 67.2303 89.013C67.4689 90.4894 66.4548 91.7886 64.9634 92.0248C63.4721 92.2611 62.1597 91.2571 61.9211 89.7807C61.7421 88.3043 62.6966 86.946 64.1879 86.7688Z" fill="#EA745D"/>
<path fill-rule="evenodd" clip-rule="evenodd" d="M39.1332 79.6229C38.7156 79.5638 38.3577 79.8591 38.298 80.2725C38.2384 80.6859 38.5366 81.0402 38.9542 81.0993C39.6701 81.2174 40.4456 81.1583 41.1614 81.0402C42.6528 80.804 44.0248 80.1544 44.9793 78.9733C45.2179 78.678 45.2179 78.1465 44.86 77.9102C44.5617 77.674 44.0248 77.674 43.7862 78.0284C42.6528 79.3867 40.8035 79.8 39.1332 79.6229Z" fill="#01020E"/>
<path fill-rule="evenodd" clip-rule="evenodd" d="M72.8378 124.328C72.8378 124.328 73.6133 124.21 73.7922 124.801C73.9712 125.392 71.4061 128.64 71.2271 128.758C71.0482 128.876 65.9775 128.226 65.9775 128.226C65.9775 128.226 65.6793 127.99 65.7389 127.813C65.7986 127.636 65.9775 127.459 65.9775 127.459L72.8378 124.328Z" fill="#000618"/>
<path fill-rule="evenodd" clip-rule="evenodd" d="M64.6055 73.7763C62.9351 73.481 61.0859 73.7763 59.8331 75.0165C59.5349 75.3118 59.0576 75.3118 58.7593 75.0165C58.4611 74.7212 58.4611 74.2488 58.7593 73.9535C59.8331 72.8905 61.2052 72.2999 62.7562 72.1818C63.472 72.1227 64.2475 72.1227 64.9634 72.2999C65.381 72.359 65.6196 72.7724 65.5599 73.1858C65.4406 73.5992 65.023 73.8354 64.6055 73.7763Z" fill="#01020E"/>
<path fill-rule="evenodd" clip-rule="evenodd" d="M33.466 81.8669C33.466 81.8669 33.645 83.2252 33.824 84.4654C34.0029 85.7056 31.5571 89.0127 30.6026 89.1309L30.0061 84.5835C30.0061 84.5835 29.2902 82.5756 26.7251 82.9299C17.598 74.9573 16.7032 60.4294 24.2196 51.8662C31.6764 43.303 49.8113 40.4683 53.1519 41.0588C56.4925 41.7085 60.4894 46.6102 60.4894 46.6102C60.4894 46.6102 62.8756 43.8936 65.56 44.7794C68.2444 45.6652 78.7436 60.2522 79.2208 64.1499C79.7577 68.0477 73.1361 76.8471 73.1361 76.8471C70.5709 77.2014 70.392 79.3275 70.392 79.3275L70.7499 82.1622C69.7954 82.2803 69.0796 81.0992 68.9006 79.859C68.7217 78.6188 68.5427 77.2605 68.5427 77.2605C60.0718 74.7801 55.5381 64.6224 55.5381 64.6224C55.5381 64.6224 46.7689 82.0441 33.466 81.8669Z" fill="#010101"/>
<path fill-rule="evenodd" clip-rule="evenodd" d="M19.149 65.9216C19.149 62.2011 19.9842 58.5396 21.7738 55.3505C30.0658 61.7286 43.4283 65.9807 54.5836 41.5903C55.2995 41.9447 56.0153 42.4171 56.6715 42.9486C52.3764 55.3505 41.3404 76.9652 19.149 65.9216Z" fill="black"/>
<path fill-rule="evenodd" clip-rule="evenodd" d="M33.466 81.8669C33.466 81.8669 33.645 83.2252 33.8239 84.4654C34.0029 85.7056 31.5571 89.0128 30.6026 89.1309L30.0061 84.5835C30.0061 84.5835 29.2902 82.5756 26.7251 82.9299C23.1458 79.7999 20.8193 75.666 19.8052 71.2958C19.8052 71.2958 35.297 82.5792 54.625 62.5C54.625 62.5 63.651 75.666 76.596 71.5911C74.9257 74.4258 73.1361 76.7881 73.1361 76.7881C70.5709 77.1424 70.392 79.2684 70.392 79.2684L70.7499 82.1031C69.7954 82.2213 69.0796 81.0401 68.9006 79.7999C68.7216 78.5598 68.5427 77.2015 68.5427 77.2015C60.0718 74.7211 55.5381 64.5634 55.5381 64.5634C55.5381 64.5634 46.7689 82.0441 33.466 81.8669Z" fill="black"/>
<path fill-rule="evenodd" clip-rule="evenodd" d="M72.3605 108.797L73.6729 109.151C73.6729 109.151 74.4484 102.301 74.4484 101.651C74.4484 101.001 74.0905 100.057 73.6133 98.9345C73.0764 97.8124 71.2271 93.6194 71.1078 93.4422C70.9885 93.3241 69.7954 94.3281 70.3323 96.2179C70.8692 98.0486 71.8236 100.588 71.764 101.12C71.764 101.651 70.5112 106.376 70.5112 106.376L72.3605 108.797Z" fill="#EAB68D"/>
<path fill-rule="evenodd" clip-rule="evenodd" d="M73.7326 108.856C73.7326 108.206 73.494 107.143 72.1816 106.316C70.8692 105.549 67.7075 103.068 67.0513 102.773C66.3951 102.478 65.6196 102.596 64.8441 103.127C64.0686 103.6 61.5631 105.312 61.0262 105.844C60.4894 106.375 59.177 109.742 58.998 110.096C58.819 110.45 60.1314 110.746 61.2052 109.978C61.2052 109.978 60.6683 111.1 60.4894 111.454C60.3104 111.809 60.0718 114.643 60.0718 115.234C60.0718 115.824 61.6228 115.529 62.2193 114.23C62.2193 114.23 62.1597 115.175 62.1597 115.47C62.1597 115.765 63.0545 115.647 63.0545 115.647C63.0545 115.647 64.1283 121.317 64.3669 122.025C64.6055 122.734 73.6729 155.038 73.6729 155.038L86.7968 154.27C86.7968 154.27 72.4798 122.557 72.3605 122.084C71.5254 118.069 73.7326 112.222 73.7326 108.856Z" fill="#F4AD85"/>
<path fill-rule="evenodd" clip-rule="evenodd" d="M62.9949 115.648L63.0545 115.943V116.061V116.12V116.179C63.3528 117.655 64.0686 121.376 64.2476 121.908C64.4266 122.439 69.4375 140.333 72.0623 149.546C74.866 148.424 77.0732 147.125 77.0732 147.125C77.0732 147.125 66.932 123.679 66.6934 122.793C66.4548 121.848 66.9917 121.14 66.8127 120.904C66.6338 120.667 65.8583 120.313 65.6197 119.604C65.4407 118.955 64.9635 116.592 65.2617 115.648C65.5003 114.939 66.2758 114.998 66.6338 115.116C67.0514 115.234 67.4093 115.352 67.6479 115.352C68.1848 115.411 68.1251 115.116 68.1251 115.116C68.2444 114.053 69.2586 112.577 69.2586 112.577C68.7217 112.281 67.8269 110.864 67.8269 110.864C67.2303 110.628 66.8127 110.332 66.3952 110.628C65.9776 110.923 64.7248 112.222 64.7248 112.34C64.7248 112.459 64.6055 113.699 64.3669 114.525C64.1283 115.411 62.9949 115.648 62.9949 115.648Z" fill="#EAB68D"/>
<path fill-rule="evenodd" clip-rule="evenodd" d="M62.458 79.2094C61.5035 79.3276 60.907 80.2134 61.0263 81.1583L61.3842 83.3434C61.5035 84.2292 62.3983 84.8789 63.3528 84.7608C64.2476 84.6426 64.9038 83.7568 64.7845 82.8119L64.4266 80.6268C64.2476 79.7409 63.4125 79.0913 62.458 79.2094Z" fill="#01020E"/>
<path fill-rule="evenodd" clip-rule="evenodd" d="M42.0562 82.2804C41.1018 82.3985 40.5052 83.2843 40.6245 84.2292L40.9825 86.4143C41.1018 87.3002 41.9966 87.9498 42.9511 87.8317C43.8459 87.7136 44.5021 86.8277 44.3828 85.8828L44.0248 83.6977C43.8459 82.7528 43.0107 82.1622 42.0562 82.2804Z" fill="#01020E"/>
<path fill-rule="evenodd" clip-rule="evenodd" d="M53.4947 95.9893C53.2561 95.7531 53.1964 95.3987 53.3754 95.1625C53.5543 94.9263 53.9719 94.8672 54.2105 95.1035C54.2105 95.1035 56.2388 96.8752 59.8777 93.568C60.1163 93.3318 60.4742 93.3908 60.7129 93.627C60.9515 93.8633 60.9515 94.2767 60.7129 94.4538C56.3581 98.4106 53.4947 95.9893 53.4947 95.9893Z" fill="#EF8871"/>
<path fill-rule="evenodd" clip-rule="evenodd" d="M73.3747 124.447C73.3747 124.447 73.6133 124.506 73.6729 124.801C73.7326 125.156 71.7043 127.754 65.9775 127.931C65.9775 127.931 65.8582 127.872 65.7986 127.813C65.7986 127.754 65.8582 127.636 65.8582 127.636V127.518C65.8582 127.518 65.6793 127.636 65.6793 127.813C65.6793 127.99 66.5144 131.475 66.6934 132.36C66.8723 133.246 68.6023 133.01 70.034 132.656C71.4657 132.301 74.9853 131.12 75.8801 129.23C75.8801 129.23 75.9994 128.758 75.8801 128.345C75.7608 127.931 73.9712 124.683 73.9115 124.506C73.7922 124.329 73.5536 124.211 73.315 124.27L73.3747 124.447Z" fill="#0F1630"/>
<path fill-rule="evenodd" clip-rule="evenodd" d="M68.662 127.636C67.8865 127.813 66.9917 127.931 65.9775 127.931C65.9775 127.931 65.8582 127.872 65.7986 127.813C65.7986 127.754 65.8582 127.636 65.8582 127.636V127.518C65.8582 127.518 65.6793 127.636 65.6793 127.813C65.6793 127.99 66.5144 131.475 66.6934 132.36C66.8723 133.246 68.6023 133.01 70.034 132.656C70.213 132.597 70.5112 132.538 70.7499 132.479L68.662 127.636Z" fill="#000618"/>
</g>
<path d="M87.2083 78.524L101.78 70.3265C101.78 70.3265 95.1813 38.1492 128.44 21.3163C161.698 4.48347 197.195 23.763 198.713 50.1221C200.142 74.9554 176.339 96.7159 141.256 97.3597C110.164 97.9301 102.015 78.4142 102.015 78.4142L87.2083 78.524Z" fill="white"/>
<g clip-path="url(#clip2)">
<path d="M159.465 71.5866C159.465 69.9111 158.17 68.56 156.565 68.56H142.166C140.56 68.56 139.265 69.9111 139.265 71.5866V87.1517C139.265 88.8271 140.56 90.1782 142.166 90.1782H156.565C158.17 90.1782 159.465 88.8271 159.465 87.1517V71.5866Z" fill="#00B3FF"/>
<path d="M159.465 24.0265C159.465 22.3511 158.17 20.9999 156.565 20.9999H142.166C140.56 20.9999 139.265 22.3511 139.265 24.0265V39.5916C139.265 41.267 140.56 42.6182 142.166 42.6182H156.565C158.17 42.6182 159.465 41.267 159.465 39.5916V24.0265Z" fill="#FF6373"/>
<path d="M159.465 47.8065C159.465 46.1311 158.17 44.78 156.565 44.78H142.166C140.56 44.78 139.265 46.1311 139.265 47.8065V63.3716C139.265 65.0471 140.56 66.3982 142.166 66.3982H156.565C158.17 66.3982 159.465 65.0471 159.465 63.3716V47.8065Z" fill="#F8A32E"/>
<path d="M136.158 47.8065C136.158 46.1311 134.863 44.78 133.257 44.78H118.859C117.253 44.78 115.958 46.1311 115.958 47.8065V63.3716C115.958 65.0471 117.253 66.3982 118.859 66.3982H133.257C134.863 66.3982 136.158 65.0471 136.158 63.3716V47.8065Z" fill="#2A165B"/>
<path d="M182.772 47.8065C182.772 46.1311 181.477 44.78 179.872 44.78H165.473C163.867 44.78 162.573 46.1311 162.573 47.8065V63.3716C162.573 65.0471 163.867 66.3982 165.473 66.3982H179.872C181.477 66.3982 182.772 65.0471 182.772 63.3716V47.8065Z" fill="#6FA847"/>
<path fill-rule="evenodd" clip-rule="evenodd" d="M145.04 35.5112H153.69V26.4853H145.04V35.5112ZM146.957 33.5112V28.4853H151.773V33.5112H146.957Z" fill="white"/>
<path d="M152.576 79.1529C152.576 77.4775 151.281 76.1263 149.676 76.1263C148.07 76.1263 146.775 77.4775 146.775 79.1529C146.775 80.8283 148.07 82.1794 149.676 82.1794C151.281 82.1794 152.576 80.8283 152.576 79.1529Z" fill="white"/>
<path d="M129.943 59.3723H122.174V51.2655H129.943V59.3723Z" fill="white"/>
<path fill-rule="evenodd" clip-rule="evenodd" d="M174.368 52.1415L170.173 57.438L171.65 58.7122L175.845 53.4157L174.368 52.1415Z" fill="white"/>
<path fill-rule="evenodd" clip-rule="evenodd" d="M170.173 53.4157L174.368 58.7122L175.845 57.438L171.65 52.1415L170.173 53.4157Z" fill="white"/>
<path d="M153.457 51.8059H145.895L149.676 59.1021L153.457 51.8059Z" fill="white"/>
</g>
</g>
<defs>
<clipPath id="clip0">
<rect width="207" height="140" fill="white"/>
</clipPath>
<clipPath id="clip1">
<rect y="41" width="103.5" height="164" fill="white"/>
</clipPath>
<clipPath id="clip2">
<rect width="66.8138" height="69.1783" transform="matrix(1 0 0 -1 115.958 90.1782)" fill="white"/>
</clipPath>
</defs>
</svg>
