<svg width="220" height="156" viewBox="0 0 220 156" fill="none" xmlns="http://www.w3.org/2000/svg">
<mask id="mask0" mask-type="alpha" maskUnits="userSpaceOnUse" x="4" y="8" width="216" height="140">
<rect x="4" y="8" width="216" height="140" rx="20" fill="#C4C4C4"/>
</mask>
<g mask="url(#mask0)">
<g clip-path="url(#clip0)">
<path fill-rule="evenodd" clip-rule="evenodd" d="M24.8288 91.91C24.9533 91.7231 25.2023 91.6608 25.389 91.7854C25.5758 91.91 25.638 92.1592 25.5135 92.346C25.4513 92.4083 8.83112 118.324 21.9654 133.4C22.0899 133.587 22.0899 133.836 21.9032 134.023C21.7164 134.148 21.4674 134.148 21.2807 133.961C7.77291 118.386 24.7666 91.9723 24.8288 91.91Z" fill="#000618"/>
<path fill-rule="evenodd" clip-rule="evenodd" d="M73.3821 88.2967C73.2576 88.1098 73.3199 87.8606 73.5066 87.736C73.6933 87.6114 73.9423 87.6737 74.0668 87.8606C74.0668 87.9229 83.5907 102.687 73.5689 114.026C73.4444 114.212 73.1331 114.212 72.9464 114.088C72.7596 113.963 72.7596 113.652 72.8841 113.465C82.5948 102.563 73.3821 88.359 73.3821 88.2967Z" fill="#000618"/>
<path fill-rule="evenodd" clip-rule="evenodd" d="M27.5054 74.4044L20.5337 82.1293C20.5337 82.1293 23.895 88.0475 23.5838 95.897C23.2726 103.684 -2.99603 146.919 45.495 146.669C94.0484 146.42 67.0328 121.377 67.0328 121.377C67.0328 121.377 83.0305 116.206 74.9383 92.969C66.846 69.7944 27.5054 74.4044 27.5054 74.4044Z" fill="#000618"/>
<path fill-rule="evenodd" clip-rule="evenodd" d="M67.4684 121.813C67.1572 121.501 67.0327 121.377 67.0327 121.377C67.0327 121.377 67.5929 121.19 68.4644 120.754C69.8338 119.196 71.2655 117.39 72.635 115.272C79.2333 104.992 72.1992 90.7886 72.1992 90.7886L68.4644 89.6673C68.4644 89.6673 60.9946 86.9885 59.0027 86.3032C57.0108 85.6179 33.8546 87.1131 27.2563 99.448C20.658 111.783 28.0033 129.725 28.0033 129.725C28.0033 129.725 55.3301 128.852 56.8863 128.728C58.0067 128.728 62.4886 126.983 67.4684 121.813Z" fill="#01020E"/>
<path fill-rule="evenodd" clip-rule="evenodd" d="M80.4783 128.603C88.2593 132.03 89.3175 139.131 90.3135 147.106C91.185 154.145 91.4962 164.798 89.6288 180.933C87.7613 197.068 58.3181 159.627 58.3181 159.627L80.4783 128.603Z" fill="#EF8871"/>
<path fill-rule="evenodd" clip-rule="evenodd" d="M34.6639 128.354L27.0697 124.492C27.0697 124.492 19.102 126.485 14.9936 131.656C10.8852 136.826 -1.50208 180.808 -1.93782 186.166C-2.4358 191.524 1.23682 212.019 7.89734 212.019C14.5579 212.019 17.857 167.228 17.857 167.228L23.2726 150.407L34.6639 128.354Z" fill="#F4AD85"/>
<path fill-rule="evenodd" clip-rule="evenodd" d="M34.664 128.354L27.0697 124.492C27.0697 124.492 24.5176 125.115 21.5297 126.61C22.5256 127.108 23.2726 128.292 23.2104 130.97C22.9614 138.01 12.2547 164.798 9.95156 172.274C7.58614 179.749 5.71871 184.235 5.71871 184.235L0.863373 173.956C0.427638 175.638 -0.00809669 177.133 -0.319336 178.566C1.48585 188.409 3.78902 201.865 4.10026 209.59C5.22072 211.085 6.52793 212.019 7.89738 212.019C14.5579 212.019 17.857 167.228 17.857 167.228L23.2726 150.407L34.664 128.354Z" fill="#EF8871"/>
<path fill-rule="evenodd" clip-rule="evenodd" d="M54.7076 118.698C54.7076 118.698 74.8137 125.862 80.4782 128.603C80.4782 128.603 79.42 129.725 78.1751 135.892C76.9301 142.122 78.1751 151.093 76.8679 160.001C75.9342 166.418 71.5768 198.937 69.2736 216.443L19.7244 212.456C19.7244 211.646 19.6621 210.711 19.6621 209.652C23.7082 212.829 27.6298 212.954 25.2022 203.672C20.9693 187.537 21.8408 159.44 23.2102 151.03C24.6419 142.62 26.6961 133.712 24.7042 125.177C26.0114 124.055 54.7076 118.698 54.7076 118.698Z" fill="#D84F50"/>
<path fill-rule="evenodd" clip-rule="evenodd" d="M67.9042 123.557C72.9463 125.426 78.0506 127.42 80.4783 128.603C80.4783 128.603 79.4201 129.725 78.1751 135.892C76.9302 142.122 78.1751 151.093 76.8679 160.001C76.6812 161.309 76.3699 163.614 75.9342 166.667C64.7296 168.411 31.676 172.211 23.7083 171.526C23.148 171.464 22.5878 171.402 22.0276 171.277C22.0276 162.493 22.5256 154.893 23.1481 151.093C23.2103 150.906 23.2103 150.656 23.2725 150.47C26.0737 158.755 61.3682 163.365 61.3682 163.365C61.3682 163.365 67.2195 150.407 65.7256 145.61C64.2316 140.813 57.1976 140.938 57.1976 140.938L57.3844 136.64C57.3844 136.64 64.4184 127.108 66.0991 124.242C66.2858 123.869 66.9083 123.619 67.9042 123.557Z" fill="#C23E3E"/>
<path fill-rule="evenodd" clip-rule="evenodd" d="M70.7678 124.616L71.2035 124.803C70.332 128.416 69.0871 132.652 67.4686 135.144C65.9747 137.387 64.2317 139.443 61.6173 140.938C59.0652 142.433 55.7038 143.305 51.0352 143.181C46.9891 143.056 43.6899 141.561 41.2 139.443C37.9009 136.702 35.8467 132.839 34.9752 129.662C33.668 125.177 32.4853 123.682 32.0496 123.308L32.5476 123.183C33.1078 123.869 34.2283 125.551 35.411 129.538C36.2824 132.652 38.2744 136.453 41.5113 139.131C43.9389 141.187 47.1136 142.682 51.0974 142.745C55.6415 142.869 58.9407 141.997 61.4306 140.564C63.9205 139.131 65.6634 137.076 67.0951 134.895C68.7136 132.403 69.8963 128.167 70.7678 124.616ZM79.0467 127.918C79.1712 127.98 79.2957 128.042 79.4202 128.105C78.4242 129.849 77.117 133.4 75.8098 140.938C74.3159 149.971 76.0588 154.021 77.366 155.765C77.366 155.952 77.366 156.201 77.3038 156.388C75.8721 154.768 73.7557 150.656 75.3741 140.876C76.6191 133.462 77.9885 129.725 79.0467 127.918ZM22.8369 153.584C22.8992 153.273 22.8992 153.024 22.9614 152.775C24.0819 150.532 28.377 140.751 25.9493 124.741C26.0738 124.678 26.1983 124.678 26.385 124.616C29.1862 142.932 23.2104 153.211 23.0859 153.46C23.0859 153.46 23.0859 153.522 23.0237 153.522C22.9614 153.522 22.8992 153.584 22.8369 153.584Z" fill="#B23539"/>
<path fill-rule="evenodd" clip-rule="evenodd" d="M53.1515 97.143H53.276C57.6333 97.0807 61.306 100.632 61.306 104.992L61.4305 121.127C64.3561 122.187 67.842 123.495 71.1411 124.741C65.9746 135.892 59.9365 143.243 50.2259 141.125C36.9671 138.259 37.4028 127.046 33.3567 122.934C37.1538 122.124 41.5734 121.252 45.4328 120.442L45.3083 105.179C45.246 100.819 48.7942 97.2053 53.1515 97.143Z" fill="#EF8871"/>
<path fill-rule="evenodd" clip-rule="evenodd" d="M60.8081 102.314C61.1194 103.124 61.3061 104.058 61.3061 104.992L61.4306 121.127C64.3562 122.187 67.8421 123.495 71.1413 124.741C67.3441 132.902 63.049 139.069 57.1977 140.876C66.5349 134.584 63.6715 126.797 61.6796 125.987C59.6877 125.177 43.939 120.754 43.939 120.754C44.4369 120.629 44.9349 120.567 45.4329 120.442L45.3084 105.179C45.3084 102.687 46.4289 100.507 48.1718 99.0119C52.3424 99.0119 56.513 100.32 60.8081 102.314Z" fill="#EA745D"/>
<path fill-rule="evenodd" clip-rule="evenodd" d="M71.079 81.8801C71.2035 81.8801 71.3903 81.8801 71.5148 81.8801C74.3159 82.067 76.7436 84.2474 77.1793 87.1131C77.6773 90.4771 75.3741 93.6543 71.9505 94.215C68.5891 94.7133 65.4145 92.4083 64.8542 88.982C64.543 86.9885 65.2277 85.1195 66.4727 83.749C66.5349 85.6179 67.1574 87.7983 69.5228 87.736L68.9626 84.1851C68.8381 82.8145 70.0831 82.0047 71.079 81.8801Z" fill="#EA745D"/>
<path fill-rule="evenodd" clip-rule="evenodd" d="M26.7584 88.9197C26.6339 88.982 26.4472 88.982 26.3227 89.0443C23.646 89.9788 21.9031 92.6575 22.2143 95.5855C22.5878 99.0119 25.7002 101.441 29.0616 101.068C32.4852 100.694 34.9129 97.579 34.5394 94.215C34.2904 92.2215 33.17 90.6017 31.6138 89.605C31.9872 91.4116 32.0495 93.7166 29.7463 94.215L29.3106 90.664C29.1861 89.2312 27.7544 88.7328 26.7584 88.9197Z" fill="#EA745D"/>
<path fill-rule="evenodd" clip-rule="evenodd" d="M45.9308 54.6561C57.5089 53.0987 68.2777 61.3219 69.7717 72.9093L72.3238 92.0969C73.88 103.684 65.6633 114.462 54.0852 115.957C42.5071 117.514 31.7383 109.291 30.2443 97.7036L27.6922 78.516C26.136 66.9287 34.3527 56.1512 45.9308 54.6561Z" fill="#F4AD85"/>
<path fill-rule="evenodd" clip-rule="evenodd" d="M45.9308 54.6561C56.8865 53.2233 67.1574 60.5121 69.4605 71.1649C69.336 72.1617 69.0248 73.2207 68.4646 74.2798L58.6294 73.7191C58.6294 73.7191 52.1556 86.054 38.8968 89.1066C35.3487 89.9165 34.2282 93.5297 34.913 96.9561C36.7182 105.304 43.8144 117.203 61.4306 113.589C59.1896 114.835 56.6997 115.708 54.0231 116.019C42.445 117.577 31.6761 109.353 30.1821 97.7659L27.63 78.5783C26.136 66.9287 34.3527 56.1512 45.9308 54.6561Z" fill="#EF8871"/>
<path fill-rule="evenodd" clip-rule="evenodd" d="M42.0714 96.8938C43.5653 96.6446 44.997 97.7036 45.246 99.2611C45.495 100.818 44.4368 102.189 42.8806 102.438C41.3866 102.687 39.9549 101.628 39.7059 100.071C39.5192 98.5758 40.5774 97.143 42.0714 96.8938Z" fill="#EA745D"/>
<path fill-rule="evenodd" clip-rule="evenodd" d="M64.9787 93.2805C66.5349 93.0313 67.9043 94.0904 68.1533 95.6478C68.4023 97.2053 67.3441 98.5758 65.7879 98.825C64.2317 99.0742 62.8622 98.0151 62.6133 96.4577C62.4265 94.9002 63.4225 93.4674 64.9787 93.2805Z" fill="#EA745D"/>
<path fill-rule="evenodd" clip-rule="evenodd" d="M38.8345 85.7425C38.3987 85.6802 38.0253 85.9917 37.963 86.4278C37.9008 86.8639 38.212 87.2377 38.6477 87.3C39.3947 87.4245 40.2039 87.3622 40.9509 87.2377C42.5071 86.9885 43.9388 86.3032 44.9348 85.0572C45.1838 84.7458 45.1838 84.1851 44.8103 83.9359C44.499 83.6867 43.9388 83.6867 43.6898 84.0605C42.5071 85.4933 40.5774 85.9294 38.8345 85.7425Z" fill="#01020E"/>
<path fill-rule="evenodd" clip-rule="evenodd" d="M74.0046 132.902C74.0046 132.902 74.8138 132.777 75.0006 133.4C75.1873 134.023 72.5106 137.449 72.3239 137.574C72.1372 137.699 66.8461 137.013 66.8461 137.013C66.8461 137.013 66.5349 136.764 66.5971 136.577C66.6593 136.39 66.8461 136.203 66.8461 136.203L74.0046 132.902Z" fill="#000618"/>
<path fill-rule="evenodd" clip-rule="evenodd" d="M65.4143 79.5751C63.6713 79.2636 61.7417 79.5751 60.4345 80.8833C60.1232 81.1948 59.6252 81.1948 59.314 80.8833C59.0028 80.5718 59.0028 80.0735 59.314 79.762C60.4345 78.6406 61.8662 78.0176 63.4846 77.893C64.2316 77.8308 65.0408 77.8308 65.7878 78.0176C66.2235 78.0799 66.4725 78.516 66.4102 78.9521C66.2858 79.3882 65.85 79.6374 65.4143 79.5751Z" fill="#01020E"/>
<path fill-rule="evenodd" clip-rule="evenodd" d="M32.9211 88.1098C32.9211 88.1098 33.1078 89.5427 33.2946 90.8509C33.4813 92.1592 30.9292 95.6478 29.9332 95.7724L29.3107 90.9755C29.3107 90.9755 28.5637 88.8574 25.8871 89.2312C16.3632 80.821 15.4294 65.4959 23.2727 56.4627C31.0537 47.4296 49.977 44.4393 53.4629 45.0623C56.9488 45.7476 61.1194 50.9183 61.1194 50.9183C61.1194 50.9183 63.6093 48.0526 66.4104 48.987C69.2116 49.9215 80.1672 65.309 80.6652 69.4206C81.2254 73.5322 74.3159 82.8145 74.3159 82.8145C71.6393 83.1883 71.4525 85.431 71.4525 85.431L71.826 88.4213C70.83 88.5459 70.0831 87.3 69.8963 85.9917C69.7096 84.6835 69.5228 83.2506 69.5228 83.2506C60.6836 80.6341 55.9528 69.919 55.9528 69.919C55.9528 69.919 46.8024 88.2967 32.9211 88.1098Z" fill="#000618"/>
<path fill-rule="evenodd" clip-rule="evenodd" d="M17.9814 71.2895C17.9814 67.3648 18.8529 63.5023 20.7204 60.1383C29.3728 66.8664 43.3163 71.3518 54.9567 45.623C55.7036 45.9968 56.4506 46.4951 57.1353 47.0558C52.6535 60.1383 41.1376 82.9391 17.9814 71.2895Z" fill="#0F1630"/>
<path fill-rule="evenodd" clip-rule="evenodd" d="M32.921 88.1098C32.921 88.1098 33.1078 89.5427 33.2945 90.8509C33.4812 92.1592 30.9291 95.6478 29.9331 95.7724L29.3106 90.9755C29.3106 90.9755 28.5637 88.8574 25.887 89.2312C22.1521 85.9294 19.7245 81.5686 18.6663 76.9586C18.6663 76.9586 35.0374 88.359 55.2057 67.1779C55.2057 67.1779 64.4184 81.5686 77.9262 77.2701C76.1833 80.2604 74.3158 82.7522 74.3158 82.7522C71.6392 83.126 71.4524 85.3687 71.4524 85.3687L71.8259 88.359C70.83 88.4836 70.083 87.2377 69.8962 85.9294C69.7095 84.6212 69.5228 83.1883 69.5228 83.1883C60.6836 80.5718 55.9527 69.8567 55.9527 69.8567C55.9527 69.8567 46.8023 88.2967 32.921 88.1098Z" fill="#01020E"/>
<path fill-rule="evenodd" clip-rule="evenodd" d="M73.5064 116.517L74.8759 116.891C74.8759 116.891 75.6851 109.665 75.6851 108.979C75.6851 108.294 75.3116 107.297 74.8136 106.114C74.2534 104.93 72.3237 100.507 72.1992 100.32C72.0747 100.196 70.8298 101.255 71.39 103.248C71.9502 105.179 72.9462 107.858 72.8839 108.419C72.8839 108.979 71.5767 113.963 71.5767 113.963L73.5064 116.517Z" fill="#EF8871"/>
<path fill-rule="evenodd" clip-rule="evenodd" d="M74.9383 116.58C74.9383 115.894 74.6893 114.773 73.3199 113.901C71.9504 113.091 68.6513 110.475 67.9666 110.163C67.2818 109.852 66.4726 109.976 65.6634 110.537C64.8542 111.035 62.2398 112.842 61.6795 113.403C61.1193 113.963 59.7499 117.514 59.5631 117.888C59.3764 118.262 60.7458 118.573 61.8663 117.763C61.8663 117.763 61.3061 118.947 61.1193 119.321C60.9326 119.695 60.6836 122.685 60.6836 123.308C60.6836 123.931 62.302 123.619 62.9245 122.249C62.9245 122.249 62.8622 123.246 62.8622 123.557C62.8622 123.869 63.796 123.744 63.796 123.744C63.796 123.744 64.9164 129.725 65.1654 130.472C65.4144 131.22 74.8761 165.296 74.8761 165.296L88.5706 164.487C88.5706 164.487 73.6311 131.033 73.5066 130.534C72.6352 126.298 74.9383 120.131 74.9383 116.58Z" fill="#F4AD85"/>
<path fill-rule="evenodd" clip-rule="evenodd" d="M63.7336 123.744L63.7959 124.055V124.18V124.242V124.305C64.1071 125.862 64.8541 129.787 65.0408 130.348C65.2276 130.908 70.4564 149.784 73.1953 159.503C76.121 158.319 78.4241 156.949 78.4241 156.949C78.4241 156.949 67.842 132.216 67.593 131.282C67.344 130.285 67.9042 129.538 67.7175 129.288C67.5308 129.039 66.7215 128.665 66.4725 127.918C66.2858 127.233 65.7878 124.741 66.0991 123.744C66.3481 122.996 67.1573 123.059 67.5308 123.183C67.9665 123.308 68.34 123.432 68.589 123.432C69.1492 123.495 69.087 123.183 69.087 123.183C69.2114 122.062 70.2697 120.505 70.2697 120.505C69.7094 120.193 68.7757 118.698 68.7757 118.698C68.1532 118.449 67.7175 118.137 67.2818 118.449C66.846 118.76 65.5388 120.131 65.5388 120.255C65.5388 120.38 65.4143 121.688 65.1653 122.56C64.9164 123.495 63.7336 123.744 63.7336 123.744Z" fill="#EF8871"/>
<path fill-rule="evenodd" clip-rule="evenodd" d="M63.1735 85.3064C62.1776 85.431 61.5551 86.3655 61.6796 87.3623L62.0531 89.6673C62.1776 90.6017 63.1113 91.287 64.1073 91.1624C65.041 91.0378 65.7257 90.1033 65.6012 89.1066L65.2277 86.8016C65.041 85.8671 64.1695 85.1818 63.1735 85.3064Z" fill="#01020E"/>
<path fill-rule="evenodd" clip-rule="evenodd" d="M41.8847 88.5459C40.8888 88.6705 40.2663 89.605 40.3908 90.6017L40.7643 92.9067C40.8888 93.8412 41.8225 94.5265 42.8185 94.4019C43.7522 94.2773 44.4369 93.3428 44.3124 92.3461L43.9389 90.041C43.7522 89.0443 42.8807 88.4213 41.8847 88.5459Z" fill="#01020E"/>
<path fill-rule="evenodd" clip-rule="evenodd" d="M53.8206 103.007C53.5716 102.758 53.5093 102.384 53.6961 102.135C53.8828 101.886 54.3186 101.823 54.5676 102.072C54.5676 102.072 56.684 103.941 60.4811 100.453C60.7301 100.204 61.1036 100.266 61.3526 100.515C61.6016 100.764 61.6016 101.2 61.3526 101.387C56.8085 105.561 53.8206 103.007 53.8206 103.007Z" fill="#EF8871"/>
<path fill-rule="evenodd" clip-rule="evenodd" d="M74.5649 133.026C74.5649 133.026 74.8139 133.089 74.8761 133.4C74.9384 133.774 72.8219 136.515 66.8462 136.702C66.8462 136.702 66.7217 136.64 66.6594 136.577C66.6594 136.515 66.7217 136.39 66.7217 136.39V136.266C66.7217 136.266 66.5349 136.39 66.5349 136.577C66.5349 136.764 67.4064 140.44 67.5931 141.374C67.7799 142.309 69.5851 142.059 71.079 141.686C72.573 141.312 76.2456 140.066 77.1793 138.072C77.1793 138.072 77.3038 137.574 77.1793 137.138C77.0548 136.702 75.1874 133.275 75.1251 133.089C75.0006 132.902 74.7516 132.777 74.5026 132.839L74.5649 133.026Z" fill="#0F1630"/>
<path fill-rule="evenodd" clip-rule="evenodd" d="M69.6473 136.39C68.8381 136.577 67.9044 136.702 66.8462 136.702C66.8462 136.702 66.7217 136.64 66.6594 136.577C66.6594 136.515 66.7217 136.39 66.7217 136.39V136.266C66.7217 136.266 66.5349 136.39 66.5349 136.577C66.5349 136.764 67.4064 140.44 67.5931 141.374C67.7799 142.309 69.5851 142.059 71.079 141.686C71.2657 141.623 71.577 141.561 71.826 141.499L69.6473 136.39Z" fill="#000618"/>
</g>
</g>
<g filter="url(#filter0_d)">
<mask id="path-35-inside-1" fill="white">
<path fill-rule="evenodd" clip-rule="evenodd" d="M214.202 35.0812C217.404 58.3219 197.559 80.7827 169.876 85.2487C153.827 87.8379 138.666 83.8102 128.135 75.4389C126.486 80.6008 122.367 85.0296 116.658 87.0205C110.304 89.2367 103.613 87.8632 99 83.9848C99 83.9899 99 83.9949 99 84C99 87.3137 96.5376 90 93.5 90C90.4624 90 88 87.3137 88 84C88 80.6863 90.4624 78 93.5 78C93.8695 78 94.2305 78.0397 94.5796 78.1155C94.4026 77.7156 94.2405 77.3056 94.0941 76.8859C91.0022 68.0207 96.0915 58.185 105.461 54.9171C108.469 53.868 111.553 53.6233 114.455 54.068C114.252 53.1439 114.085 52.2056 113.954 51.2539C110.751 28.0131 130.597 5.55237 158.279 1.08639C185.962 -3.37959 210.999 11.8404 214.202 35.0812Z"/>
</mask>
<path fill-rule="evenodd" clip-rule="evenodd" d="M214.202 35.0812C217.404 58.3219 197.559 80.7827 169.876 85.2487C153.827 87.8379 138.666 83.8102 128.135 75.4389C126.486 80.6008 122.367 85.0296 116.658 87.0205C110.304 89.2367 103.613 87.8632 99 83.9848C99 83.9899 99 83.9949 99 84C99 87.3137 96.5376 90 93.5 90C90.4624 90 88 87.3137 88 84C88 80.6863 90.4624 78 93.5 78C93.8695 78 94.2305 78.0397 94.5796 78.1155C94.4026 77.7156 94.2405 77.3056 94.0941 76.8859C91.0022 68.0207 96.0915 58.185 105.461 54.9171C108.469 53.868 111.553 53.6233 114.455 54.068C114.252 53.1439 114.085 52.2056 113.954 51.2539C110.751 28.0131 130.597 5.55237 158.279 1.08639C185.962 -3.37959 210.999 11.8404 214.202 35.0812Z" fill="white"/>
<path d="M169.876 85.2487L169.956 85.7423L169.876 85.2487ZM214.202 35.0812L213.706 35.1494L214.202 35.0812ZM128.135 75.4389L128.446 75.0475L127.879 74.5968L127.659 75.2868L128.135 75.4389ZM116.658 87.0205L116.823 87.4926L116.658 87.0205ZM99 83.9848L99.3217 83.6021L98.4975 82.9092L98.5 83.986L99 83.9848ZM94.5796 78.1155L94.4735 78.6042L95.435 78.8129L95.0368 77.9132L94.5796 78.1155ZM94.0941 76.8859L93.622 77.0505L94.0941 76.8859ZM105.461 54.9171L105.626 55.3892L105.461 54.9171ZM114.455 54.068L114.38 54.5622L115.1 54.6726L114.944 53.9606L114.455 54.068ZM113.954 51.2539L113.458 51.3222L113.954 51.2539ZM158.279 1.08639L158.359 1.58001L158.279 1.08639ZM169.956 85.7423C197.823 81.2465 217.947 58.5992 214.697 35.0129L213.706 35.1494C216.861 58.0447 197.294 80.3189 169.796 84.7551L169.956 85.7423ZM127.824 75.8303C138.475 84.2968 153.78 88.3518 169.956 85.7423L169.796 84.7551C153.873 87.3239 138.858 83.3236 128.446 75.0475L127.824 75.8303ZM127.659 75.2868C126.058 80.2989 122.054 84.6092 116.493 86.5484L116.823 87.4926C122.68 85.45 126.915 80.9027 128.611 75.591L127.659 75.2868ZM116.493 86.5484C110.304 88.7071 103.798 87.3657 99.3217 83.6021L98.6782 84.3675C103.428 88.3608 110.304 89.7662 116.823 87.4926L116.493 86.5484ZM99.5 84C99.5 83.9946 99.5 83.9891 99.5 83.9837L98.5 83.986C98.5 83.9906 98.5 83.9953 98.5 84H99.5ZM93.5 90.5C96.8538 90.5 99.5 87.548 99.5 84H98.5C98.5 87.0794 96.2214 89.5 93.5 89.5V90.5ZM87.5 84C87.5 87.548 90.1462 90.5 93.5 90.5V89.5C90.7786 89.5 88.5 87.0794 88.5 84H87.5ZM93.5 77.5C90.1462 77.5 87.5 80.452 87.5 84H88.5C88.5 80.9206 90.7786 78.5 93.5 78.5V77.5ZM94.6857 77.6269C94.3021 77.5436 93.9055 77.5 93.5 77.5V78.5C93.8335 78.5 94.159 78.5359 94.4735 78.6042L94.6857 77.6269ZM95.0368 77.9132C94.8653 77.5256 94.7082 77.1281 94.5662 76.7212L93.622 77.0505C93.7729 77.483 93.9399 77.9056 94.1224 78.3179L95.0368 77.9132ZM94.5662 76.7212C91.5738 68.1411 96.4919 58.5748 105.626 55.3892L105.297 54.445C95.6911 57.7951 90.4307 67.9004 93.622 77.0505L94.5662 76.7212ZM105.626 55.3892C108.556 54.3673 111.557 54.1297 114.38 54.5622L114.531 53.5737C111.549 53.1169 108.383 53.3686 105.297 54.445L105.626 55.3892ZM113.458 51.3222C113.591 52.287 113.761 53.2383 113.967 54.1753L114.944 53.9606C114.744 53.0495 114.578 52.1243 114.449 51.1857L113.458 51.3222ZM158.2 0.592771C130.332 5.08859 110.208 27.7359 113.458 51.3222L114.449 51.1857C111.294 28.2904 130.861 6.01614 158.359 1.58001L158.2 0.592771ZM214.697 35.0129C211.445 11.4123 186.07 -3.90353 158.2 0.592771L158.359 1.58001C185.854 -2.85566 210.554 12.2685 213.706 35.1494L214.697 35.0129Z" fill="#D8D8D8" mask="url(#path-35-inside-1)"/>
</g>
<g clip-path="url(#clip1)">
<path d="M176.398 59.5866C176.398 57.9112 175.047 56.5601 173.372 56.5601H158.347C156.672 56.5601 155.321 57.9112 155.321 59.5866V75.1517C155.321 76.8272 156.672 78.1783 158.347 78.1783H173.372C175.047 78.1783 176.398 76.8272 176.398 75.1517V59.5866Z" fill="#2493D5"/>
<path d="M176.398 12.0266C176.398 10.3511 175.047 9 173.372 9H158.347C156.672 9 155.321 10.3511 155.321 12.0266V27.5917C155.321 29.2671 156.672 30.6182 158.347 30.6182H173.372C175.047 30.6182 176.398 29.2671 176.398 27.5917V12.0266Z" fill="#BC3153"/>
<path d="M176.398 35.8066C176.398 34.1312 175.047 32.78 173.372 32.78H158.347C156.672 32.78 155.321 34.1312 155.321 35.8066V51.3717C155.321 53.0471 156.672 54.3983 158.347 54.3983H173.372C175.047 54.3983 176.398 53.0471 176.398 51.3717V35.8066Z" fill="#F8A32E"/>
<path d="M152.078 35.8066C152.078 34.1312 150.727 32.78 149.051 32.78H134.027C132.351 32.78 131 34.1312 131 35.8066V51.3717C131 53.0471 132.351 54.3983 134.027 54.3983H149.051C150.727 54.3983 152.078 53.0471 152.078 51.3717V35.8066Z" fill="#5F72A0"/>
<path d="M200.719 35.8066C200.719 34.1312 199.368 32.78 197.692 32.78H182.668C180.992 32.78 179.641 34.1312 179.641 35.8066V51.3717C179.641 53.0471 180.992 54.3983 182.668 54.3983H197.692C199.368 54.3983 200.719 53.0471 200.719 51.3717V35.8066Z" fill="#6FA847"/>
<path d="M169.372 22.5114H162.346V15.4855H169.372V22.5114Z" stroke="white" stroke-width="2" stroke-miterlimit="10"/>
<path d="M169.21 67.153C169.21 65.4776 167.859 64.1265 166.184 64.1265C164.508 64.1265 163.157 65.4776 163.157 67.153C163.157 68.8284 164.508 70.1796 166.184 70.1796C167.859 70.1796 169.21 68.8284 169.21 67.153Z" fill="white"/>
<path d="M145.592 47.3723H137.486V39.2655H145.592V47.3723Z" fill="white"/>
<path d="M188.342 46.0752L192.72 40.7788" stroke="white" stroke-width="2" stroke-miterlimit="10"/>
<path d="M192.72 46.0752L188.342 40.7788" stroke="white" stroke-width="2" stroke-miterlimit="10"/>
<path d="M170.129 39.806H162.238L166.184 47.1021L170.129 39.806Z" fill="white"/>
</g>
<defs>
<filter id="filter0_d" x="84" y="0.308575" width="134.541" height="97.6914" filterUnits="userSpaceOnUse" color-interpolation-filters="sRGB">
<feFlood flood-opacity="0" result="BackgroundImageFix"/>
<feColorMatrix in="SourceAlpha" type="matrix" values="0 0 0 0 0 0 0 0 0 0 0 0 0 0 0 0 0 0 127 0"/>
<feOffset dy="4"/>
<feGaussianBlur stdDeviation="2"/>
<feColorMatrix type="matrix" values="0 0 0 0 0 0 0 0 0 0 0 0 0 0 0 0 0 0 0.25 0"/>
<feBlend mode="normal" in2="BackgroundImageFix" result="effect1_dropShadow"/>
<feBlend mode="normal" in="SourceGraphic" in2="effect1_dropShadow" result="shape"/>
</filter>
<clipPath id="clip0">
<rect x="-2" y="45" width="108" height="173" fill="white"/>
</clipPath>
<clipPath id="clip1">
<rect width="69.7188" height="69.1783" transform="matrix(1 0 0 -1 131 78.1783)" fill="white"/>
</clipPath>
</defs>
</svg>
