<svg width="62" height="71" viewBox="0 0 62 71" fill="none" xmlns="http://www.w3.org/2000/svg">
<path d="M18.8284 45.4999C16.3446 51.2197 16.179 57.8062 19.6564 63.0061C26.4457 73.0591 42.3425 71.3258 50.7877 62.6594C70.9899 41.86 58.5705 20.8873 31.9102 32.1536C26.1145 34.5802 21.4779 39.7801 18.8284 45.4999Z" stroke="url(#paint0_linear)" stroke-miterlimit="10"/>
<path d="M17.4276 25.6946C17.4276 16.8549 14.2813 8.53515 6.99525 4.02862C-7.08006 -4.81111 -26.1231 6.9752 -32.0844 22.9214C-46.3253 61.2269 -19.1682 80.293 8.32007 50.1339C14.1158 43.7208 17.4276 34.5344 17.4276 25.6946Z" stroke="url(#paint1_linear)" stroke-miterlimit="10"/>
<defs>
<linearGradient id="paint0_linear" x1="46.2855" y1="67.5242" x2="31.0223" y2="31.6675" gradientUnits="userSpaceOnUse">
<stop stop-color="#FFF136"/>
<stop offset="0.00563836" stop-color="#FFF036"/>
<stop offset="0.2468" stop-color="#FFBE2D"/>
<stop offset="0.4745" stop-color="#FF9726"/>
<stop offset="0.6826" stop-color="#FF7B21"/>
<stop offset="0.8645" stop-color="#FF6A1E"/>
<stop offset="1" stop-color="#FF641D"/>
</linearGradient>
<linearGradient id="paint1_linear" x1="-28.7802" y1="14.4022" x2="9.87414" y2="49.7117" gradientUnits="userSpaceOnUse">
<stop stop-color="#009BE8"/>
<stop offset="0.0849876" stop-color="#0A99E3"/>
<stop offset="0.228" stop-color="#2493D5"/>
<stop offset="0.4116" stop-color="#4F8ABF"/>
<stop offset="0.6285" stop-color="#8A7DA0"/>
<stop offset="0.8706" stop-color="#D46C79"/>
<stop offset="1" stop-color="#FF6363"/>
</linearGradient>
</defs>
</svg>
