<svg width="216" height="140" viewBox="0 0 216 140" fill="none" xmlns="http://www.w3.org/2000/svg">
<mask id="mask0" mask-type="alpha" maskUnits="userSpaceOnUse" x="0" y="0" width="216" height="140">
<rect width="216" height="140" rx="20" fill="#C4C4C4"/>
</mask>
<g mask="url(#mask0)">
<g clip-path="url(#clip0)">
<g style="mix-blend-mode:multiply" opacity="0.3">
<g style="mix-blend-mode:multiply" opacity="0.3">
<path d="M99.584 76.2586L114.789 68.0611C114.789 68.0611 107.904 35.8838 142.608 19.0509C177.313 2.21809 214.353 21.4977 215.936 47.8567C217.428 72.69 192.59 94.4506 155.981 95.0943C123.538 95.6648 115.034 76.1489 115.034 76.1489L99.584 76.2586Z" fill="black"/>
</g>
</g>
<g filter="url(#filter0_d)">
<path d="M97.8501 74.524L113.055 66.3265C113.055 66.3265 106.17 34.1492 140.874 17.3163C175.579 0.483473 212.619 19.763 214.202 46.1221C215.694 70.9554 190.856 92.716 154.248 93.3597C121.804 93.9301 113.301 74.4143 113.301 74.4143L97.8501 74.524Z" fill="#747BD1"/>
</g>
<g style="mix-blend-mode:multiply" opacity="0.3">
<g style="mix-blend-mode:multiply" opacity="0.3">
<path d="M67.5965 51.1584C67.5965 51.1584 66.1687 41.7262 59.025 41.5857C51.8813 41.4453 48.517 46.9138 48.3766 50.1448C48.3766 50.1448 43.0891 44.5355 37.4268 48.5946C31.2381 53.0311 36.4453 60.2517 36.4453 60.2517C34.7036 59.9284 32.9135 59.9737 31.1904 60.3848C29.4673 60.7959 27.8494 61.5637 26.441 62.6386C21.8425 66.2911 22.2641 76.5453 27.4596 79.7763C27.4596 79.7763 21.3775 81.654 22.5141 88.7614C23.5057 94.9612 29.145 97.0546 33.0768 96.4926C37.0085 95.9307 46.9782 92.4188 46.9782 92.4188L54.8417 77.8091L68.6806 67.4136L77.324 64.3231V60.6106C77.324 60.6106 80.7047 55.7779 77.9718 51.2586C75.7269 47.5462 69.1175 47.9676 67.5965 51.1584Z" fill="black"/>
</g>
<g style="mix-blend-mode:multiply" opacity="0.3">
<path d="M59.647 121.549L56.6828 108.037C56.6828 108.037 64.5732 116.62 74.4888 112.404C82.9848 108.791 82.8987 94.9132 82.8987 94.9132C82.8987 94.9132 78.7024 99.2452 70.657 99.3989C62.4371 99.5559 58.2474 94.3825 56.8186 90.1727C56.8186 90.1727 75.2631 93.2616 83.5072 87.0806V83.6705C83.5072 83.6705 88.9034 83.4708 89.3641 78.7924C89.6562 75.8267 86.2152 72.3304 81.3005 74.859C81.3005 74.859 80.4281 64.885 77.1984 60.5302C77.1984 60.5302 74.2347 64.7446 66.9329 64.7446C59.6311 64.7446 54.0068 58.9849 54.0068 58.9849C54.0068 58.9849 54.5648 65.1659 45.578 67.8351C45.578 67.8351 48.5249 69.8018 48.2441 73.1732C47.9633 76.5447 42.2051 78.09 42.2051 78.09C42.2051 78.09 44.5918 81.321 44.1705 84.8329C44.1705 84.8329 42.3448 81.7424 39.1151 82.1639C35.8855 82.5853 33.7791 86.7101 36.8683 90.2668C39.9575 93.8235 44.8722 91.9973 44.8722 91.9973C44.8722 91.9973 41.3617 95.5092 33.077 96.4926L32.2344 120.936C32.2344 120.936 41.985 128.062 59.647 121.549Z" fill="black"/>
</g>
<g style="mix-blend-mode:multiply" opacity="0.3">
<path d="M56.4755 80.9777C56.4755 81.6154 56.2865 82.2387 55.9324 82.7689C55.5783 83.2991 55.075 83.7123 54.4861 83.9563C53.8973 84.2003 53.2493 84.2642 52.6242 84.1398C51.9991 84.0154 51.4248 83.7083 50.9742 83.2574C50.5235 82.8066 50.2165 82.2321 50.0922 81.6067C49.9679 80.9813 50.0317 80.3331 50.2756 79.744C50.5195 79.1549 50.9325 78.6514 51.4625 78.2971C51.9925 77.9429 52.6155 77.7538 53.2529 77.7538C54.1076 77.7538 54.9273 78.0935 55.5316 78.6981C56.136 79.3027 56.4755 80.1227 56.4755 80.9777Z" fill="black"/>
</g>
<g style="mix-blend-mode:multiply" opacity="0.3">
<path d="M63.0858 77.7538C62.7363 76.4739 62.5832 75.1482 62.6319 73.8223C62.6494 73.1381 62.7524 72.4589 62.9386 71.8003C63.1277 71.066 63.5445 70.4105 64.1291 69.9279C64.4622 69.6839 64.8585 69.5411 65.2706 69.5165C65.6773 69.4645 66.0904 69.5285 66.4624 69.701C67.1304 70.0592 67.649 70.6435 67.9256 71.3493C68.1965 71.9729 68.3778 72.6316 68.4644 73.3059C68.5591 73.9617 68.5843 74.6258 68.5394 75.2869C68.2615 74.0413 67.8226 72.8373 67.2338 71.7051C66.982 71.2126 66.5793 70.8135 66.0845 70.5663C65.8606 70.4747 65.6157 70.4466 65.3768 70.4852C65.1355 70.4991 64.9042 70.5862 64.7137 70.735C64.2912 71.0898 63.9845 71.563 63.833 72.0937C63.6327 72.6791 63.4888 73.2825 63.4034 73.8953C63.2328 75.1753 63.1269 76.4631 63.0858 77.7538Z" fill="black"/>
</g>
<g style="mix-blend-mode:multiply" opacity="0.3">
<path d="M73.58 74.7909C73.2549 73.7991 73.0881 72.7622 73.0857 71.7184C73.0769 71.1724 73.1433 70.6278 73.2832 70.1C73.3629 69.8047 73.4928 69.5254 73.6673 69.2743C73.8718 68.9701 74.1741 68.7448 74.5241 68.6361C74.7042 68.5889 74.8916 68.5761 75.0764 68.5984C75.2566 68.6066 75.4332 68.6516 75.5955 68.7305C75.8913 68.8637 76.1519 69.0644 76.3563 69.3165C76.7027 69.7551 76.9701 70.2507 77.1467 70.7811C77.4853 71.7724 77.6485 72.8152 77.6288 73.8627C77.2439 72.9022 76.8737 71.9593 76.4322 71.0888C76.2257 70.6767 75.9651 70.294 75.6572 69.951C75.5599 69.8191 75.4285 69.7161 75.2772 69.6533C75.1259 69.5905 74.9603 69.5701 74.7982 69.5943C74.5605 69.6346 74.3245 69.967 74.1785 70.3906C74.0264 70.8395 73.9193 71.3023 73.8588 71.7724C73.7222 72.7477 73.6641 73.7593 73.58 74.7909Z" fill="black"/>
</g>
<g style="mix-blend-mode:multiply" opacity="0.3">
<path d="M9.90503 140C9.90503 140 15.713 122.629 32.3428 118.414C32.3428 118.414 36.3749 122.972 45.5764 123.056C54.778 123.14 58.9322 118.465 58.9322 118.465C58.9322 118.465 87.2965 126.726 93.1633 140H9.90503Z" fill="black"/>
</g>
<g style="mix-blend-mode:multiply" opacity="0.3">
<path d="M31.3351 116.473L28.2246 118.317C28.2246 118.317 32.3385 126.325 46.2855 125.822C60.2325 125.318 63.4433 118.317 63.4433 118.317L60.7483 116.473C60.7483 116.473 56.9706 121.886 45.3824 121.604C40.281 121.394 35.3714 119.601 31.3351 116.473Z" fill="black"/>
</g>
<g style="mix-blend-mode:multiply" opacity="0.3">
<path d="M95.4512 140L104.08 102.629C104.08 102.629 98.4613 96.1561 99.7656 94.6503C101.07 93.1445 105.786 99.846 105.786 99.846C105.786 99.846 111.104 87.989 112.91 88.2901C114.716 88.5912 109.9 99.1252 109.9 99.1252C109.9 99.1252 117.626 87.2773 119.633 87.6788C121.639 88.0804 112.81 100.325 112.81 100.325C112.81 100.325 120.335 95.4767 121.74 96.5809C123.144 97.6852 116.516 101.585 112.609 103.633L110.402 140H95.4512Z" fill="black"/>
</g>
<g style="mix-blend-mode:multiply" opacity="0.3">
<path d="M37.7134 85.7727C38.3298 85.5844 38.9751 85.5085 39.6184 85.5486C40.2782 85.581 40.9279 85.7234 41.5408 85.97C41.8517 86.0992 42.1525 86.2515 42.4408 86.4254C42.7237 86.6129 42.9892 86.8255 43.2342 87.0604C43.7246 87.5286 44.1299 88.0783 44.4322 88.6853L45.0436 89.7725L43.8507 89.3882C43.113 89.1506 42.339 88.9281 41.5722 88.7379C40.7993 88.5236 40.0079 88.3821 39.2085 88.3155C40.0054 88.0623 40.8447 87.9703 41.6775 88.0447C42.507 88.1015 43.3296 88.2336 44.1352 88.4394L43.5537 89.1423C43.2734 88.6478 42.9292 88.1925 42.5299 87.788C42.1285 87.3835 41.6681 87.0423 41.1642 86.7762C40.0897 86.2214 38.9178 85.8805 37.7134 85.7727Z" fill="black"/>
</g>
<g style="mix-blend-mode:multiply" opacity="0.3">
<path d="M57.0569 56.605C58.0677 58.0718 59.3864 59.3002 60.9208 60.2044C62.4552 61.1086 64.1684 61.6669 65.9407 61.8403C72.1844 62.5881 76.2806 57.4867 76.2806 57.4867C76.2806 57.4867 66.4498 61.3915 57.0569 56.605Z" fill="black"/>
</g>
<g style="mix-blend-mode:multiply" opacity="0.3">
<path d="M51.2509 56.7546C51.2509 56.7546 52.4487 61.6907 45.571 64.0839C47.6604 61.7994 49.56 59.3482 51.2509 56.7546Z" fill="black"/>
</g>
<g style="mix-blend-mode:multiply" opacity="0.3">
<path d="M40.0388 75.5548C40.0388 75.5548 45.8699 76.3493 46.1689 72.4603C46.4679 68.5713 43.4776 67.5242 43.4776 67.5242C43.4776 67.5242 45.9457 73.2545 40.0388 75.5548Z" fill="black"/>
</g>
</g>
<path d="M65.6914 49.2526C65.6914 49.2526 64.2636 39.8204 57.1199 39.6799C49.9762 39.5395 46.612 45.0081 46.4716 48.2391C46.4716 48.2391 41.1841 42.6297 35.5218 46.6888C29.333 51.1253 34.5403 58.346 34.5403 58.346C32.7986 58.0226 31.0085 58.0679 29.2854 58.479C27.5622 58.8901 25.9443 59.6579 24.536 60.7328C19.9374 64.3853 20.3591 74.6395 25.5546 77.8705C25.5546 77.8705 19.4724 79.7483 20.6091 86.8556C21.6006 93.0554 27.24 95.1488 31.1717 94.5868C35.1035 94.0249 45.0732 90.513 45.0732 90.513L52.9367 75.9033L66.7756 65.5078L75.419 62.4173V58.7048C75.419 58.7048 78.7997 53.8721 76.0668 49.3528C73.8219 45.6404 67.2125 46.0618 65.6914 49.2526Z" fill="#2C1B18"/>
<path d="M57.742 119.643L54.7778 106.132C54.7778 106.132 62.6682 114.714 72.5838 110.498C81.0798 106.885 80.9937 93.0075 80.9937 93.0075C80.9937 93.0075 76.7974 97.3394 68.752 97.4931C60.5321 97.6501 56.3424 92.4768 54.9136 88.2669C54.9136 88.2669 73.3581 91.3558 81.6022 85.1748V81.7647C81.6022 81.7647 86.9984 81.565 87.4591 76.8866C87.7512 73.9209 84.3102 70.4246 79.3955 72.9532C79.3955 72.9532 78.5231 62.9792 75.2934 58.6244C75.2934 58.6244 72.3297 62.8388 65.0279 62.8388C57.7261 62.8388 52.1018 57.0791 52.1018 57.0791C52.1018 57.0791 52.6598 63.2602 43.673 65.9293C43.673 65.9293 46.6199 67.896 46.3391 71.2674C46.0583 74.6389 40.3001 76.1842 40.3001 76.1842C40.3001 76.1842 42.6867 79.4152 42.2655 82.9271C42.2655 82.9271 40.4398 79.8366 37.2101 80.2581C33.9804 80.6795 31.8741 84.8043 34.9633 88.361C38.0525 91.9177 42.9672 90.0915 42.9672 90.0915C42.9672 90.0915 39.4567 93.6035 31.1719 94.5868L30.3293 119.03C30.3293 119.03 40.08 126.156 57.742 119.643Z" fill="#EAB68D"/>
<path d="M54.5704 79.072C54.5704 79.7096 54.3815 80.3329 54.0273 80.8631C53.6732 81.3933 53.1699 81.8065 52.5811 82.0505C51.9922 82.2945 51.3443 82.3584 50.7192 82.234C50.094 82.1096 49.5198 81.8025 49.0691 81.3517C48.6184 80.9008 48.3115 80.3263 48.1872 79.7009C48.0628 79.0755 48.1266 78.4273 48.3706 77.8382C48.6145 77.2491 49.0275 76.7456 49.5575 76.3914C50.0874 76.0371 50.7105 75.848 51.3478 75.848C52.2025 75.848 53.0222 76.1877 53.6266 76.7923C54.2309 77.3969 54.5704 78.2169 54.5704 79.072Z" fill="#EAA28D"/>
<path d="M61.1808 75.848C60.8312 74.5681 60.6782 73.2425 60.7268 71.9165C60.7443 71.2324 60.8474 70.5531 61.0335 69.8945C61.2227 69.1602 61.6395 68.5047 62.2241 68.0221C62.5572 67.7782 62.9535 67.6353 63.3656 67.6107C63.7723 67.5587 64.1854 67.6227 64.5574 67.7952C65.2253 68.1534 65.744 68.7377 66.0206 69.4435C66.2914 70.0671 66.4728 70.7258 66.5594 71.4001C66.6541 72.056 66.6792 72.72 66.6344 73.3811C66.3565 72.1355 65.9176 70.9315 65.3288 69.7994C65.077 69.3068 64.6742 68.9077 64.1795 68.6606C63.9555 68.5689 63.7107 68.5408 63.4718 68.5794C63.2305 68.5933 62.9992 68.6804 62.8087 68.8292C62.3862 69.184 62.0795 69.6572 61.928 70.1879C61.7277 70.7734 61.5838 71.3767 61.4983 71.9896C61.3278 73.2696 61.2218 74.5573 61.1808 75.848Z" fill="#2C1B18"/>
<path d="M71.6749 72.8852C71.3499 71.8933 71.1831 70.8564 71.1807 69.8126C71.1719 69.2666 71.2383 68.722 71.3781 68.1942C71.4578 67.899 71.5878 67.6197 71.7622 67.3685C71.9667 67.0643 72.2691 66.8391 72.6191 66.7303C72.7992 66.6831 72.9865 66.6704 73.1714 66.6926C73.3516 66.7008 73.5282 66.7458 73.6905 66.8247C73.9863 66.9579 74.2469 67.1586 74.4513 67.4107C74.7977 67.8493 75.0651 68.3449 75.2417 68.8753C75.5803 69.8666 75.7435 70.9095 75.7238 71.9569C75.3389 70.9964 74.9686 70.0535 74.5272 69.183C74.3207 68.7709 74.0601 68.3882 73.7521 68.0452C73.6549 67.9133 73.5235 67.8104 73.3722 67.7475C73.2208 67.6847 73.0553 67.6643 72.8932 67.6885C72.6555 67.7288 72.4195 68.0612 72.2734 68.4848C72.1213 68.9337 72.0143 69.3966 71.9538 69.8666C71.8172 70.842 71.759 71.8535 71.6749 72.8852Z" fill="#2C1B18"/>
<path d="M8 138.094C8 138.094 13.808 120.724 30.4378 116.508C30.4378 116.508 34.4699 121.066 43.6714 121.15C52.8729 121.234 57.0272 116.559 57.0272 116.559C57.0272 116.559 85.3915 124.82 91.2583 138.094H8Z" fill="#7AAE9E"/>
<path d="M29.43 114.567L26.3196 116.412C26.3196 116.412 30.4335 124.419 44.3805 123.916C58.3274 123.413 61.5383 116.412 61.5383 116.412L58.8433 114.567C58.8433 114.567 55.0655 119.981 43.4774 119.698C38.376 119.488 33.4664 117.695 29.43 114.567Z" fill="#202A50"/>
<path d="M93.5461 138.094L102.175 100.723C102.175 100.723 96.5563 94.2503 97.8606 92.7445C99.165 91.2388 103.881 97.9402 103.881 97.9402C103.881 97.9402 109.199 86.0832 111.005 86.3843C112.811 86.6855 107.995 97.2194 107.995 97.2194C107.995 97.2194 115.721 85.3715 117.728 85.773C119.734 86.1746 110.905 98.4194 110.905 98.4194C110.905 98.4194 118.43 93.5709 119.835 94.6752C121.239 95.7794 114.611 99.6797 110.704 101.727L108.496 138.094H93.5461Z" fill="#EAB68D"/>
<path d="M35.8083 83.8669C36.4248 83.6786 37.0701 83.6027 37.7134 83.6428C38.3732 83.6753 39.0229 83.8177 39.6358 84.0642C39.9467 84.1934 40.2475 84.3457 40.5358 84.5196C40.8187 84.7071 41.0842 84.9197 41.3291 85.1546C41.8195 85.6228 42.2249 86.1726 42.5272 86.7795L43.1385 87.8667L41.9456 87.4824C41.208 87.2448 40.434 87.0223 39.6672 86.8321C38.8942 86.6178 38.1029 86.4763 37.3035 86.4097C38.1004 86.1565 38.9397 86.0645 39.7725 86.1389C40.602 86.1957 41.4246 86.3278 42.2302 86.5336L41.6487 87.2365C41.3684 86.742 41.0242 86.2867 40.6249 85.8822C40.2235 85.4777 39.763 85.1365 39.2592 84.8704C38.1847 84.3156 37.0127 83.9748 35.8083 83.8669Z" fill="#2C1B18"/>
<path d="M55.1521 54.6992C56.1629 56.166 57.4816 57.3944 59.016 58.2986C60.5504 59.2028 62.2636 59.7611 64.036 59.9345C70.2796 60.6823 74.3758 55.5809 74.3758 55.5809C74.3758 55.5809 64.545 59.4857 55.1521 54.6992Z" fill="#865535"/>
<path d="M49.3459 54.8488C49.3459 54.8488 50.5437 59.7849 43.666 62.1781C45.7554 59.8936 47.655 57.4424 49.3459 54.8488Z" fill="#865535"/>
<path d="M38.1338 73.649C38.1338 73.649 43.9648 74.4435 44.2638 70.5545C44.5629 66.6655 41.5726 65.6184 41.5726 65.6184C41.5726 65.6184 44.0406 71.3487 38.1338 73.649Z" fill="#865535"/>
<path d="M146.105 67.7002L143.193 68.1943L141.925 60.7191L134.403 61.9955L135.672 69.4707L132.749 69.9667L129.894 53.1447L132.817 52.6487L134.005 59.6501L141.527 58.3737L140.339 51.3723L143.25 50.8782L146.105 67.7002ZM161.643 56.8617C161.923 58.51 161.884 60.0065 161.526 61.351C161.166 62.6878 160.512 63.7814 159.562 64.6319C158.62 65.4734 157.459 66.0111 156.08 66.2451C154.717 66.4764 153.444 66.3518 152.261 65.871C151.084 65.3813 150.098 64.5699 149.304 63.4369C148.517 62.3026 147.983 60.9311 147.702 59.3226L147.541 58.3753C147.263 56.7346 147.306 55.2376 147.671 53.8841C148.043 52.5292 148.701 51.4311 149.644 50.5896C150.593 49.7391 151.753 49.1975 153.124 48.9649C154.495 48.7322 155.764 48.8575 156.932 49.3409C158.106 49.8152 159.087 50.6234 159.875 51.7654C160.662 52.8998 161.198 54.2866 161.484 55.9259L161.643 56.8617ZM158.571 56.4797C158.255 54.6157 157.658 53.2471 156.781 52.3737C155.911 51.4991 154.83 51.1715 153.536 51.3911C152.272 51.6055 151.367 52.2703 150.819 53.3854C150.278 54.4916 150.153 55.951 150.445 57.7637L150.61 58.7342C150.923 60.5827 151.524 61.9507 152.412 62.8382C153.307 63.7243 154.394 64.0589 155.672 63.8419C156.966 63.6223 157.876 62.9608 158.402 61.8572C158.936 60.7524 159.042 59.2526 158.72 57.3578L158.571 56.4797ZM168.435 61.5097L176.072 60.2137L176.468 62.5476L165.908 64.3396L163.053 47.5176L165.976 47.0216L168.435 61.5097ZM187.692 56.6134L181.175 57.7192L180.477 61.8672L177.438 62.3829L180.938 44.4825L183.561 44.0374L192.781 59.7791L189.731 60.2967L187.692 56.6134ZM181.596 55.2231L186.471 54.3957L182.849 47.831L181.596 55.2231ZM196.562 54.0384L194.147 54.4481L191.868 42.6277L194.825 42.1258L196.562 54.0384ZM194.416 58.1348C194.341 57.6957 194.422 57.3096 194.659 56.9762C194.894 56.6351 195.259 56.4228 195.751 56.3391C196.244 56.2555 196.658 56.3358 196.993 56.5801C197.326 56.8168 197.53 57.1546 197.605 57.5936C197.677 58.0173 197.598 58.3951 197.369 58.7271C197.14 59.0592 196.772 59.2683 196.263 59.3546C195.755 59.4409 195.338 59.3651 195.012 59.1271C194.687 58.8892 194.488 58.5584 194.416 58.1348Z" fill="white"/>
</g>
</g>
<defs>
<filter id="filter0_d" x="93.8501" y="11" width="124.416" height="90.3719" filterUnits="userSpaceOnUse" color-interpolation-filters="sRGB">
<feFlood flood-opacity="0" result="BackgroundImageFix"/>
<feColorMatrix in="SourceAlpha" type="matrix" values="0 0 0 0 0 0 0 0 0 0 0 0 0 0 0 0 0 0 127 0"/>
<feOffset dy="4"/>
<feGaussianBlur stdDeviation="2"/>
<feColorMatrix type="matrix" values="0 0 0 0 0 0 0 0 0 0 0 0 0 0 0 0 0 0 0.25 0"/>
<feBlend mode="normal" in2="BackgroundImageFix" result="effect1_dropShadow"/>
<feBlend mode="normal" in="SourceGraphic" in2="effect1_dropShadow" result="shape"/>
</filter>
<clipPath id="clip0">
<rect x="8" y="11" width="208" height="129" fill="white"/>
</clipPath>
</defs>
</svg>
