<svg width="207" height="140" viewBox="0 0 207 140" fill="none" xmlns="http://www.w3.org/2000/svg">
<mask id="mask0" mask-type="alpha" maskUnits="userSpaceOnUse" x="0" y="0" width="207" height="140">
<path d="M0 0H207V140H0V0Z" fill="white"/>
</mask>
<g mask="url(#mask0)">
<g clip-path="url(#clip0)">
<path d="M91.0586 68.1556L105.63 59.9581C105.63 59.9581 99.0316 27.7808 132.29 10.9479C165.548 -5.88494 201.045 13.3946 202.563 39.7537C203.993 64.587 180.189 86.3475 145.106 86.9913C114.014 87.5617 105.865 68.0458 105.865 68.0458L91.0586 68.1556Z" fill="white"/>
<path d="M60.2399 42.8839C60.2399 42.8839 58.8716 33.4517 52.0255 33.3112C45.1795 33.1708 41.9554 38.6394 41.8208 41.8704C41.8208 41.8704 36.7536 36.261 31.3273 40.3201C25.3964 44.7566 30.3867 51.9773 30.3867 51.9773C28.7176 51.6539 27.002 51.6992 25.3507 52.1103C23.6994 52.5215 22.1489 53.2892 20.7992 54.3641C16.3923 58.0166 16.7963 68.2709 21.7753 71.5019C21.7753 71.5019 15.9466 73.3796 17.0359 80.4869C17.9862 86.6867 23.3905 88.7801 27.1585 88.2181C30.9264 87.6562 40.4807 84.1443 40.4807 84.1443L48.0166 69.5346L61.2789 59.1392L69.5621 56.0486V52.3361C69.5621 52.3361 72.8019 47.5034 70.1829 42.9841C68.0315 39.2717 61.6976 39.6931 60.2399 42.8839Z" fill="black"/>
<path d="M52.6216 113.275L49.7809 99.7631C49.7809 99.7631 57.3425 108.345 66.845 104.129C74.987 100.517 74.9105 84.1316 74.9105 84.1316C74.9105 84.1316 71.5999 85.9779 63.8897 86.1316C56.0123 86.2886 57.6605 85.1316 57.6605 85.1316C57.6605 85.1316 67.587 84.9874 75.4876 78.8064V75.3963C75.4876 75.3963 80.6589 75.1966 81.1005 70.5182C81.3804 67.5525 78.0828 64.0562 73.3729 66.5848C73.3729 66.5848 72.5368 56.6108 69.4417 52.256C69.4417 52.256 66.6015 56.4704 59.6039 56.4704C52.6063 56.4704 47.2164 50.7107 47.2164 50.7107C47.2164 50.7107 47.7512 56.8917 39.1388 59.5609C39.1388 59.5609 41.9629 61.5276 41.6938 64.899C41.4247 68.2705 35.9064 69.8158 35.9064 69.8158C35.9064 69.8158 38.1936 73.0468 37.7899 76.5587C37.7899 76.5587 36.0403 73.4682 32.9452 73.8896C29.8501 74.3111 27.8315 78.4359 30.792 81.9926C33.7525 85.5493 38.4624 83.7231 38.4624 83.7231C38.4624 83.7231 35.0981 87.235 27.1586 88.2184L26.3511 112.662C26.3511 112.662 35.6955 119.787 52.6216 113.275Z" fill="#EAB68D"/>
<path d="M49.5823 72.7034C49.5823 73.3411 49.4012 73.9644 49.0618 74.4946C48.7225 75.0248 48.2401 75.438 47.6758 75.682C47.1115 75.926 46.4905 75.9898 45.8915 75.8654C45.2924 75.7411 44.7421 75.434 44.3102 74.9831C43.8783 74.5322 43.5841 73.9578 43.465 73.3324C43.3458 72.707 43.407 72.0588 43.6407 71.4697C43.8745 70.8806 44.2703 70.3771 44.7782 70.0228C45.2861 69.6686 45.8832 69.4795 46.494 69.4795C47.313 69.4795 48.0986 69.8192 48.6778 70.4238C49.2569 71.0284 49.5823 71.8484 49.5823 72.7034Z" fill="#EA745D"/>
<path d="M4.95215 131.726C4.95215 131.726 10.5181 114.355 26.455 110.14C26.455 110.14 30.3191 114.698 39.1372 114.782C47.9554 114.865 51.9366 110.191 51.9366 110.191C51.9366 110.191 79.119 118.452 84.7413 131.726H4.95215Z" fill="#77A847"/>
<path d="M25.4893 108.198L22.5085 110.043C22.5085 110.043 26.451 118.051 39.8168 117.547C53.1827 117.044 56.2598 110.043 56.2598 110.043L53.677 108.198C53.677 108.198 50.0567 113.612 38.9514 113.33C34.0625 113.12 29.3575 111.326 25.4893 108.198Z" fill="#202A50"/>
<path d="M86.934 131.725L95.2035 94.3541C95.2035 94.3541 89.8187 87.8815 91.0687 86.3758C92.3187 84.87 96.8382 91.5714 96.8382 91.5714C96.8382 91.5714 101.934 79.7144 103.665 80.0156C105.396 80.3167 100.781 90.8506 100.781 90.8506C100.781 90.8506 108.185 79.0027 110.108 79.4043C112.031 79.8058 103.569 92.0506 103.569 92.0506C103.569 92.0506 110.781 87.2022 112.127 88.3064C113.473 89.4106 107.121 93.3109 103.377 95.3583L101.261 131.725H86.934Z" fill="#EAB68D"/>
<path d="M31.6018 77.4984C32.1926 77.3101 32.811 77.2342 33.4275 77.2744C34.0598 77.3068 34.6824 77.4492 35.2698 77.6957C35.5677 77.8249 35.856 77.9772 36.1323 78.1511C36.4034 78.3386 36.6578 78.5512 36.8926 78.7862C37.3625 79.2543 37.751 79.8041 38.0407 80.411L38.6266 81.4982L37.4834 81.1139C36.7765 80.8763 36.0347 80.6538 35.2999 80.4637C34.5591 80.2493 33.8007 80.1079 33.0347 80.0413C33.7983 79.788 34.6027 79.696 35.4007 79.7705C36.1957 79.8272 36.984 79.9593 37.756 80.1652L37.1988 80.868C36.9302 80.3735 36.6003 79.9182 36.2176 79.5137C35.833 79.1092 35.3917 78.768 34.9089 78.5019C33.8791 77.9471 32.756 77.6063 31.6018 77.4984Z" fill="#2C1B18"/>
<path d="M50.1395 48.3303C51.1082 49.7971 52.3719 51.0255 53.8424 51.9297C55.3129 52.8339 56.9547 53.3922 58.6532 53.5656C64.6367 54.3134 68.5623 49.212 68.5623 49.212C68.5623 49.212 59.1411 53.1168 50.1395 48.3303Z" fill="black"/>
<path d="M44.5753 48.48C44.5753 48.48 45.7232 53.416 39.1321 55.8093C41.1344 53.5248 42.9548 51.0735 44.5753 48.48Z" fill="black"/>
<path d="M33.8304 67.2801C33.8304 67.2801 39.4185 68.0746 39.705 64.1856C39.9916 60.2965 37.1259 59.2495 37.1259 59.2495C37.1259 59.2495 39.4911 64.9798 33.8304 67.2801Z" fill="black"/>
<path d="M137.303 61.3315L134.512 61.8255L133.297 54.3504L126.089 55.6268L127.304 63.1019L124.503 63.598L121.767 46.776L124.569 46.2799L125.707 53.2814L132.915 52.005L131.777 45.0036L134.567 44.5095L137.303 61.3315Z" fill="#00B3FF"/>
<path d="M152.194 50.493C152.462 52.1413 152.424 53.6377 152.081 54.9822C151.736 56.319 151.109 57.4127 150.199 58.2632C149.296 59.1047 148.184 59.6424 146.862 59.8764C145.556 60.1077 144.336 59.983 143.202 59.5023C142.074 59.0126 141.13 58.2012 140.368 57.0682C139.614 55.9338 139.103 54.5624 138.834 52.9539L138.679 52.0065C138.413 50.3659 138.454 48.8689 138.803 47.5153C139.16 46.1605 139.79 45.0624 140.694 44.2209C141.604 43.3704 142.715 42.8288 144.029 42.5961C145.343 42.3635 146.56 42.4888 147.679 42.9721C148.804 43.4465 149.744 44.2547 150.499 45.3967C151.253 46.531 151.767 47.9179 152.041 49.5572L152.194 50.493ZM149.25 50.111C148.946 48.247 148.375 46.8783 147.534 46.005C146.701 45.1303 145.664 44.8028 144.424 45.0224C143.213 45.2368 142.346 45.9015 141.821 47.0167C141.302 48.1229 141.182 49.5823 141.462 51.3949L141.62 52.3654C141.92 54.214 142.496 55.582 143.347 56.4695C144.205 57.3556 145.246 57.6902 146.471 57.4732C147.712 57.2536 148.584 56.5921 149.088 55.4885C149.599 54.3837 149.701 52.8838 149.392 50.9891L149.25 50.111Z" fill="#00B3FF"/>
<path d="M158.702 55.141L166.021 53.845L166.4 56.1788L156.28 57.9709L153.545 41.1489L156.346 40.6528L158.702 55.141Z" fill="#00B3FF"/>
<path d="M177.157 50.2447L170.912 51.3505L170.242 55.4985L167.33 56.0141L170.684 38.1138L173.198 37.6687L182.034 53.4104L179.111 53.928L177.157 50.2447ZM171.315 48.8543L175.987 48.0269L172.516 41.4623L171.315 48.8543Z" fill="#00B3FF"/>
<path d="M185.657 47.6696L183.343 48.0794L181.159 36.259L183.993 35.7571L185.657 47.6696ZM183.601 51.7661C183.529 51.327 183.607 50.9408 183.834 50.6075C184.059 50.2664 184.408 50.0541 184.881 49.9704C185.353 49.8868 185.75 49.9671 186.07 50.2114C186.39 50.448 186.585 50.7859 186.657 51.2249C186.726 51.6485 186.65 52.0264 186.431 52.3584C186.212 52.6905 185.858 52.8996 185.371 52.9859C184.884 53.0722 184.484 52.9963 184.172 52.7584C183.86 52.5205 183.67 52.1897 183.601 51.7661Z" fill="#00B3FF"/>
<path fill-rule="evenodd" clip-rule="evenodd" d="M55.274 65.6466C54.3196 65.7647 53.723 66.6505 53.8423 67.5954L54.2003 69.7805C54.3196 70.6664 55.2144 71.316 56.1689 71.1979C57.0637 71.0798 57.7199 70.1939 57.6006 69.249L57.2426 67.0639C57.0637 66.119 56.2285 65.5285 55.274 65.6466Z" fill="#01020E"/>
<path fill-rule="evenodd" clip-rule="evenodd" d="M67.7324 61.6466C66.7779 61.7647 66.1813 62.6505 66.3006 63.5954L66.6586 65.7805C66.7779 66.6664 67.6727 67.316 68.6272 67.1979C69.522 67.0798 70.1782 66.1939 70.0589 65.249L69.7009 63.0639C69.522 62.119 68.6868 61.5285 67.7324 61.6466Z" fill="#01020E"/>
<path fill-rule="evenodd" clip-rule="evenodd" d="M56.0636 62.2614C54.3933 61.9662 52.5441 62.2614 51.2913 63.5016C50.993 63.7969 50.5158 63.7969 50.2175 63.5016C49.9193 63.2063 49.9193 62.7339 50.2175 62.4386C51.2913 61.3756 52.6634 60.785 54.2144 60.6669C54.9302 60.6079 55.7057 60.6079 56.4216 60.785C56.8391 60.8441 57.0778 61.2575 57.0181 61.6709C56.8988 62.0843 56.4812 62.3205 56.0636 62.2614Z" fill="#01020E"/>
<path fill-rule="evenodd" clip-rule="evenodd" d="M70.4386 57.2614C68.7683 56.9662 66.9191 57.2614 65.6663 58.5016C65.368 58.7969 64.8908 58.7969 64.5925 58.5016C64.2943 58.2063 64.2943 57.7339 64.5925 57.4386C65.6663 56.3756 67.0384 55.785 68.5894 55.6669C69.3052 55.6079 70.0807 55.6079 70.7966 55.785C71.2141 55.8441 71.4528 56.2575 71.3931 56.6709C71.2738 57.0843 70.8562 57.3205 70.4386 57.2614Z" fill="#01020E"/>
</g>
</g>
<defs>
<clipPath id="clip0">
<rect x="4.95215" y="4.63159" width="199.333" height="129" fill="white"/>
</clipPath>
</defs>
</svg>
