<?xml version="1.0" encoding="utf-8"?>
<svg width="135" height="32" viewBox="0 0 135 32" fill="none" xmlns="http://www.w3.org/2000/svg" class="header__color-logo"><g clip-path="url(#color-logo_svg__clip0)"><path d="M106.031 24.86l.242 3.96c-.628.338-2.319.483-3.14.483-4.251 0-7.294-2.656-7.391-7.342h4.492c.194 1.98 1.739 3.188 3.575 3.188.435-.048 1.836-.193 2.222-.29zm-60.962 4.154h4.493V4.04h-4.493v24.974zm39.466-15.796c2.126 0 3.913 1.062 4.734 2.608l3.768-2.125c-1.45-2.899-4.686-4.783-8.502-4.783-5.845 0-10.29 4.445-10.29 10.29 0 5.845 4.493 10.192 10.338 10.192 3.623 0 6.715-1.642 8.454-4.25l-3.768-2.32c-.966 1.401-2.705 2.27-4.686 2.27-3.381 0-5.893-2.56-5.893-5.94 0-3.382 2.464-5.942 5.845-5.942zM42.51 18.29c0-5.266-4.154-9.372-9.468-9.372-5.7 0-10.144 4.445-10.144 10.145 0 5.893 4.54 10.337 10.24 10.337 4.058 0 7.392-1.594 8.84-4.25l-3.574-2.32c-.918 1.546-2.947 2.512-5.169 2.512-3.188 0-5.362-1.932-5.845-5.12h14.975c.097-.628.145-1.4.145-1.932zm-14.975-1.498c.677-2.56 2.56-4.202 5.266-4.202 2.705 0 4.734 1.739 4.975 4.202h-10.24zm44.2 1.498c0-5.266-4.154-9.372-9.468-9.372-5.7 0-10.144 4.445-10.144 10.145 0 5.893 4.54 10.337 10.24 10.337 4.058 0 7.392-1.594 8.84-4.25l-3.574-2.32c-.918 1.546-2.947 2.512-5.169 2.512-3.188 0-5.362-1.932-5.845-5.12H71.59c.097-.628.145-1.4.145-1.932zm-15.023-1.498c.676-2.56 2.56-4.202 5.265-4.202 2.705 0 4.734 1.739 4.976 4.202H56.71zm70.913 1.498c0-5.266-4.154-9.372-9.468-9.372-5.7 0-10.144 4.445-10.144 10.145 0 5.893 4.54 10.337 10.24 10.337 4.058 0 7.391-1.594 8.84-4.25l-3.574-2.32c-.918 1.546-2.947 2.512-5.169 2.512-3.188 0-5.362-1.932-5.845-5.12h14.975c.097-.628.145-1.4.145-1.932zm-14.975-1.498c.676-2.56 2.56-4.202 5.265-4.202 2.705 0 4.734 1.739 4.976 4.202h-10.241zm17.535 12.222h4.492V4.04h-4.492v24.974zM14.878 24.376c-1.063.677-2.367 1.015-3.864 1.015-1.594 0-2.995-.435-4.203-1.305-1.208-.87-1.98-2.028-2.367-3.574L0 21.188a9.229 9.229 0 001.836 4.348c.966 1.256 2.222 2.173 3.767 2.85 1.546.676 3.237 1.014 5.12 1.014 1.836 0 3.527-.29 5.073-.918 1.546-.628 2.753-1.546 3.72-2.753.82-1.063 1.256-2.319 1.352-3.768h-4.444c-.097.966-.58 1.787-1.546 2.415z" fill="#092433"></path><path d="M100.185 20.221h-4.492V4.04h4.492v5.265h5.894v4.251h-5.894v6.666zm-80.38-2.753a7.11 7.11 0 00-2.56-2.125c-.967-.435-2.078-.822-3.285-1.16l-4.638-1.352c-1.16-.29-2.077-.677-2.801-1.111-.677-.435-1.063-1.111-1.063-2.03 0-.675.241-1.255.676-1.786.435-.532 1.063-.918 1.836-1.208.773-.29 1.594-.387 2.415-.387 1.4.049 2.608.435 3.671 1.208 1.063.773 1.74 1.836 2.03 3.14l4.588-.773c-.386-1.594-1.063-2.995-1.98-4.106a8.665 8.665 0 00-3.527-2.56c-1.4-.58-2.995-.918-4.734-.918-1.739.048-3.333.29-4.782.918-1.45.58-2.56 1.449-3.381 2.608-.822 1.111-1.256 2.512-1.256 4.106 0 1.98.531 3.478 1.642 4.444 1.111.967 2.464 1.691 4.106 2.126l6.763 2.029c1.014.29 1.739.724 2.222 1.207.145.145.242.29.338.483h4.734a5.386 5.386 0 00-1.014-2.753z" fill="#EB4247"></path></g><defs><clipPath id="color-logo_svg__clip0"><path fill="#fff" transform="translate(0 2.3)" d="M0 0h134.676v27.1H0z"></path></clipPath></defs></svg>