<svg width="126" height="27" fill="none" xmlns="http://www.w3.org/2000/svg"><path d="M8 26v-8.096L13.952.752h-2.528l-4.64 13.696L2.752 3.12H0l5.472 14.688V26H8zM18.951 22.832c-.448.704-1.312 1.28-2.176 1.28-1.28 0-1.888-1.216-1.888-3.072 0-2.08.672-3.456 3.776-3.456h.288v5.248zm2.464-.48v-7.584c0-3.904-1.568-5.12-4.416-5.12-1.632 0-3.104.672-3.84 1.28l.48 2.208c.832-.736 1.92-1.408 3.2-1.408 1.408 0 2.112.896 2.112 3.008v.96H18.6c-4.512 0-6.272 2.176-6.272 5.632 0 3.168 1.568 4.896 3.872 4.896 1.408 0 2.304-.608 3.008-1.504h.16c.032.416.128.928.224 1.28h2.112a23.205 23.205 0 01-.288-3.648zm5.6-8.864c.576-.8 1.472-1.6 2.528-1.6.96 0 1.504.416 1.504 1.632V26h2.528V13.296c0-2.464-1.12-3.648-3.232-3.648-1.504 0-2.72.992-3.168 1.6h-.16V9.84H24.52V26h2.496V13.488zm13.92 12.736c1.312 0 2.208-.608 2.912-1.504h.16L44.2 26h1.856V3.12H43.56v7.136c-.48-.352-1.28-.608-2.048-.608-3.232 0-5.472 2.912-5.472 8.896 0 4.992 1.728 7.68 4.896 7.68zm2.624-3.36c-.416.64-1.088 1.248-2.336 1.248-1.824 0-2.528-2.304-2.528-6.08 0-3.296.96-6.336 2.976-6.336.832 0 1.376.256 1.888.768v10.4zm14.24 2.048l-.576-1.92c-.64.448-1.664 1.088-3.072 1.088-1.984 0-3.008-1.92-3.008-5.568h6.72v-1.376c0-5.472-1.76-7.488-4.448-7.488-3.424 0-4.864 3.776-4.864 8.96 0 4.96 2.048 7.616 5.376 7.616 1.6 0 2.848-.512 3.872-1.312zm-4.384-13.216c1.44 0 1.888 2.016 1.888 4.768h-4.128c.16-2.88.704-4.768 2.24-4.768zM66.28 9.872l-2.208 5.856-2.08-5.856H59.4l3.04 7.776L59.08 26h2.464l2.432-6.656L66.471 26h2.592l-3.36-8.576 3.008-7.552H66.28zM81.608 2.8c-3.968 0-6.336 4.576-6.336 11.776s2.272 11.744 6.304 11.744c2.016 0 3.424-1.056 3.872-1.568l-.48-1.216c-.672.672-1.696 1.472-3.36 1.472-3.136 0-4.736-4.128-4.736-10.528 0-6.368 1.728-10.368 4.736-10.368 1.344 0 2.4.768 3.104 1.792l.416-1.568c-.672-.768-1.824-1.536-3.52-1.536zM87.632 3.12V26h1.504V3.12h-1.504zM96.852 26.32c2.784 0 4.928-3.136 4.928-8.48 0-5.536-2.144-8.288-4.928-8.288s-4.928 3.104-4.928 8.48c0 5.504 2.144 8.288 4.928 8.288zm0-1.216c-1.888 0-3.424-2.144-3.424-7.168 0-4.896 1.536-7.136 3.424-7.136s3.424 2.08 3.424 7.136c0 4.864-1.536 7.168-3.424 7.168zM108.025 25.04c-1.44 0-2.112-1.12-2.112-3.36V9.872h-1.503v12c0 2.88 1.216 4.448 3.36 4.448 2.208 0 3.391-1.824 3.839-2.976h.065l.064 2.656h1.375V9.872h-1.504v11.776c-.8 2.048-1.951 3.392-3.584 3.392zM120.63 24.976c-1.92 0-3.136-2.496-3.136-6.72 0-4.832 1.44-7.52 3.424-7.52 1.504 0 2.272.8 2.944 2.336v8.864c-.704 1.632-1.856 3.04-3.232 3.04zM124.118 26h1.248V3.12h-1.504v8.096c-.608-.992-1.6-1.664-2.784-1.664-3.008 0-5.088 3.168-5.088 8.832 0 4.672 1.664 7.904 4.352 7.904 1.76 0 2.912-1.344 3.584-2.816l.192 2.528z" fill="#333"/></svg>
