<svg width="1440" height="1024" viewBox="0 0 1440 1024" fill="none" xmlns="http://www.w3.org/2000/svg">
<g clip-path="url(#clip0)">
<rect width="1440" height="1024" fill="white"/>
<g clip-path="url(#clip1)">
<rect x="161.575" y="726.178" width="3.87671" height="3.87671" fill="#5E72E4"/>
<rect x="130.562" y="726.178" width="3.87671" height="3.87671" fill="#5E72E4"/>
<rect x="161.575" y="695.164" width="3.87671" height="3.87671" fill="#5E72E4"/>
<rect x="99.5479" y="726.178" width="3.87671" height="3.87671" fill="#5E72E4"/>
<rect x="130.562" y="695.164" width="3.87671" height="3.87671" fill="#5E72E4"/>
<rect x="99.5479" y="695.164" width="3.87671" height="3.87671" fill="#5E72E4"/>
<rect x="161.575" y="664.151" width="3.87671" height="3.87671" fill="#5E72E4"/>
<rect x="130.562" y="664.151" width="3.87671" height="3.87671" fill="#5E72E4"/>
<rect x="99.5479" y="664.151" width="3.87671" height="3.87671" fill="#5E72E4"/>
<rect x="161.575" y="633.137" width="3.87671" height="3.87671" fill="#5E72E4"/>
<rect x="130.562" y="633.137" width="3.87671" height="3.87671" fill="#5E72E4"/>
<rect x="99.5479" y="633.137" width="3.87671" height="3.87671" fill="#5E72E4"/>
<rect x="161.575" y="788.206" width="3.87671" height="3.87671" fill="#5E72E4"/>
<rect x="130.562" y="788.206" width="3.87671" height="3.87671" fill="#5E72E4"/>
<rect x="99.5479" y="788.206" width="3.87671" height="3.87671" fill="#5E72E4"/>
<rect x="161.575" y="757.192" width="3.87671" height="3.87671" fill="#5E72E4"/>
<rect x="130.562" y="757.192" width="3.87671" height="3.87671" fill="#5E72E4"/>
<rect x="99.5479" y="757.192" width="3.87671" height="3.87671" fill="#5E72E4"/>
<rect x="254.616" y="728.116" width="3.87671" height="3.87671" fill="#5E72E4"/>
<rect x="223.603" y="728.116" width="3.87671" height="3.87671" fill="#5E72E4"/>
<rect x="254.616" y="697.103" width="3.87671" height="3.87671" fill="#5E72E4"/>
<rect x="192.589" y="728.116" width="3.87671" height="3.87671" fill="#5E72E4"/>
<rect x="223.603" y="697.103" width="3.87671" height="3.87671" fill="#5E72E4"/>
<rect x="192.589" y="697.103" width="3.87671" height="3.87671" fill="#5E72E4"/>
<rect x="254.616" y="666.089" width="3.87671" height="3.87671" fill="#5E72E4"/>
<rect x="223.603" y="666.089" width="3.87671" height="3.87671" fill="#5E72E4"/>
<rect x="192.589" y="666.089" width="3.87671" height="3.87671" fill="#5E72E4"/>
<rect x="254.616" y="635.075" width="3.87671" height="3.87671" fill="#5E72E4"/>
<rect x="223.603" y="635.075" width="3.87671" height="3.87671" fill="#5E72E4"/>
<rect x="192.589" y="635.075" width="3.87671" height="3.87671" fill="#5E72E4"/>
<rect x="72.4111" y="666.089" width="3.87671" height="3.87671" transform="rotate(180 72.4111 666.089)" fill="#5E72E4"/>
<rect x="41.3975" y="666.089" width="3.87671" height="3.87671" transform="rotate(180 41.3975 666.089)" fill="#5E72E4"/>
<rect x="72.4111" y="635.075" width="3.87671" height="3.87671" transform="rotate(180 72.4111 635.075)" fill="#5E72E4"/>
<rect x="10.3838" y="666.089" width="3.87671" height="3.87671" transform="rotate(180 10.3838 666.089)" fill="#5E72E4"/>
<rect x="41.3975" y="635.075" width="3.87671" height="3.87671" transform="rotate(180 41.3975 635.075)" fill="#5E72E4"/>
<rect x="10.3838" y="635.075" width="3.87671" height="3.87671" transform="rotate(180 10.3838 635.075)" fill="#5E72E4"/>
<rect x="254.616" y="790.144" width="3.87671" height="3.87671" fill="#5E72E4"/>
<rect x="223.603" y="790.144" width="3.87671" height="3.87671" fill="#5E72E4"/>
<rect x="192.589" y="790.144" width="3.87671" height="3.87671" fill="#5E72E4"/>
<rect x="254.616" y="759.13" width="3.87671" height="3.87671" fill="#5E72E4"/>
<rect x="223.603" y="759.13" width="3.87671" height="3.87671" fill="#5E72E4"/>
<rect x="192.589" y="759.13" width="3.87671" height="3.87671" fill="#5E72E4"/>
<rect x="37.5205" y="724.24" width="3.87671" height="3.87671" fill="#5E72E4"/>
<rect x="6.50684" y="724.24" width="3.87671" height="3.87671" fill="#5E72E4"/>
<rect x="37.5205" y="693.226" width="3.87671" height="3.87671" fill="#5E72E4"/>
<rect x="6.50684" y="693.226" width="3.87671" height="3.87671" fill="#5E72E4"/>
<rect x="37.5205" y="786.267" width="3.87671" height="3.87671" fill="#5E72E4"/>
<rect x="6.50684" y="786.267" width="3.87671" height="3.87671" fill="#5E72E4"/>
<rect x="37.5205" y="755.253" width="3.87671" height="3.87671" fill="#5E72E4"/>
<rect x="6.50684" y="755.253" width="3.87671" height="3.87671" fill="#5E72E4"/>
<rect x="68.5342" y="726.178" width="3.87671" height="3.87671" fill="#5E72E4"/>
<rect x="68.5342" y="695.164" width="3.87671" height="3.87671" fill="#5E72E4"/>
<rect x="68.5342" y="788.206" width="3.87671" height="3.87671" fill="#5E72E4"/>
<rect x="68.5342" y="757.192" width="3.87671" height="3.87671" fill="#5E72E4"/>
</g>
<g clip-path="url(#clip2)">
<rect x="1435.16" y="395.425" width="3.87671" height="3.87671" transform="rotate(-90 1435.16 395.425)" fill="#5E6EED" fill-opacity="0.5"/>
<rect x="1435.16" y="426.438" width="3.87671" height="3.87671" transform="rotate(-90 1435.16 426.438)" fill="#5E6EED" fill-opacity="0.5"/>
<rect x="1435.16" y="457.452" width="3.87671" height="3.87671" transform="rotate(-90 1435.16 457.452)" fill="#5E6EED" fill-opacity="0.5"/>
<rect x="1404.15" y="395.425" width="3.87671" height="3.87671" transform="rotate(-90 1404.15 395.425)" fill="#5E6EED" fill-opacity="0.5"/>
<rect x="1404.15" y="426.438" width="3.87671" height="3.87671" transform="rotate(-90 1404.15 426.438)" fill="#5E6EED" fill-opacity="0.5"/>
<rect x="1404.15" y="457.452" width="3.87671" height="3.87671" transform="rotate(-90 1404.15 457.452)" fill="#5E6EED" fill-opacity="0.5"/>
<rect x="1373.14" y="395.425" width="3.87671" height="3.87671" transform="rotate(-90 1373.14 395.425)" fill="#5E6EED" fill-opacity="0.5"/>
<rect x="1373.14" y="426.438" width="3.87671" height="3.87671" transform="rotate(-90 1373.14 426.438)" fill="#5E6EED" fill-opacity="0.5"/>
<rect x="1373.14" y="457.452" width="3.87671" height="3.87671" transform="rotate(-90 1373.14 457.452)" fill="#5E6EED" fill-opacity="0.5"/>
<rect x="1437.1" y="302.384" width="3.87671" height="3.87671" transform="rotate(-90 1437.1 302.384)" fill="#5E6EED" fill-opacity="0.5"/>
<rect x="1437.1" y="333.397" width="3.87671" height="3.87671" transform="rotate(-90 1437.1 333.397)" fill="#5E6EED" fill-opacity="0.5"/>
<rect x="1437.1" y="364.411" width="3.87671" height="3.87671" transform="rotate(-90 1437.1 364.411)" fill="#5E6EED" fill-opacity="0.5"/>
<rect x="1406.09" y="302.384" width="3.87671" height="3.87671" transform="rotate(-90 1406.09 302.384)" fill="#5E6EED" fill-opacity="0.5"/>
<rect x="1406.09" y="333.397" width="3.87671" height="3.87671" transform="rotate(-90 1406.09 333.397)" fill="#5E6EED" fill-opacity="0.5"/>
<rect x="1406.09" y="364.411" width="3.87671" height="3.87671" transform="rotate(-90 1406.09 364.411)" fill="#5E6EED" fill-opacity="0.5"/>
<rect x="1375.08" y="302.384" width="3.87671" height="3.87671" transform="rotate(-90 1375.08 302.384)" fill="#5E6EED" fill-opacity="0.5"/>
<rect x="1375.08" y="333.397" width="3.87671" height="3.87671" transform="rotate(-90 1375.08 333.397)" fill="#5E6EED" fill-opacity="0.5"/>
<rect x="1375.08" y="364.411" width="3.87671" height="3.87671" transform="rotate(-90 1375.08 364.411)" fill="#5E6EED" fill-opacity="0.5"/>
<rect x="1406.09" y="484.589" width="3.87671" height="3.87671" transform="rotate(90 1406.09 484.589)" fill="#5E6EED" fill-opacity="0.5"/>
<rect x="1406.09" y="515.603" width="3.87671" height="3.87671" transform="rotate(90 1406.09 515.603)" fill="#5E6EED" fill-opacity="0.5"/>
<rect x="1375.08" y="484.589" width="3.87671" height="3.87671" transform="rotate(90 1375.08 484.589)" fill="#5E6EED" fill-opacity="0.5"/>
<rect x="1406.09" y="546.616" width="3.87671" height="3.87671" transform="rotate(90 1406.09 546.616)" fill="#5E6EED" fill-opacity="0.5"/>
<rect x="1375.08" y="515.603" width="3.87671" height="3.87671" transform="rotate(90 1375.08 515.603)" fill="#5E6EED" fill-opacity="0.5"/>
<rect x="1375.08" y="546.616" width="3.87671" height="3.87671" transform="rotate(90 1375.08 546.616)" fill="#5E6EED" fill-opacity="0.5"/>
<rect x="1433.23" y="519.479" width="3.87671" height="3.87671" transform="rotate(-90 1433.23 519.479)" fill="#5E6EED" fill-opacity="0.5"/>
<rect x="1433.23" y="550.493" width="3.87671" height="3.87671" transform="rotate(-90 1433.23 550.493)" fill="#5E6EED" fill-opacity="0.5"/>
<rect x="1435.16" y="488.466" width="3.87671" height="3.87671" transform="rotate(-90 1435.16 488.466)" fill="#5E6EED" fill-opacity="0.5"/>
</g>
<ellipse cx="-124" cy="498" rx="197" ry="200" fill="#DAF0FC"/>
<ellipse cx="1557" cy="257" rx="197" ry="200" fill="#DAE1FC" fill-opacity="0.5"/>
<g clip-path="url(#clip3)">
<rect x="1435.16" y="395.425" width="3.87671" height="3.87671" transform="rotate(-90 1435.16 395.425)" fill="#5E6EED" fill-opacity="0.5"/>
<rect x="1435.16" y="426.438" width="3.87671" height="3.87671" transform="rotate(-90 1435.16 426.438)" fill="#5E6EED" fill-opacity="0.5"/>
<rect x="1435.16" y="457.452" width="3.87671" height="3.87671" transform="rotate(-90 1435.16 457.452)" fill="#5E6EED" fill-opacity="0.5"/>
<rect x="1404.15" y="395.425" width="3.87671" height="3.87671" transform="rotate(-90 1404.15 395.425)" fill="#5E6EED" fill-opacity="0.5"/>
<rect x="1404.15" y="426.438" width="3.87671" height="3.87671" transform="rotate(-90 1404.15 426.438)" fill="#5E6EED" fill-opacity="0.5"/>
<rect x="1404.15" y="457.452" width="3.87671" height="3.87671" transform="rotate(-90 1404.15 457.452)" fill="#5E6EED" fill-opacity="0.5"/>
<rect x="1373.14" y="395.425" width="3.87671" height="3.87671" transform="rotate(-90 1373.14 395.425)" fill="#5E6EED" fill-opacity="0.5"/>
<rect x="1373.14" y="426.438" width="3.87671" height="3.87671" transform="rotate(-90 1373.14 426.438)" fill="#5E6EED" fill-opacity="0.5"/>
<rect x="1373.14" y="457.452" width="3.87671" height="3.87671" transform="rotate(-90 1373.14 457.452)" fill="#5E6EED" fill-opacity="0.5"/>
<rect x="1437.1" y="302.384" width="3.87671" height="3.87671" transform="rotate(-90 1437.1 302.384)" fill="#5E6EED" fill-opacity="0.5"/>
<rect x="1437.1" y="333.397" width="3.87671" height="3.87671" transform="rotate(-90 1437.1 333.397)" fill="#5E6EED" fill-opacity="0.5"/>
<rect x="1437.1" y="364.411" width="3.87671" height="3.87671" transform="rotate(-90 1437.1 364.411)" fill="#5E6EED" fill-opacity="0.5"/>
<rect x="1406.09" y="302.384" width="3.87671" height="3.87671" transform="rotate(-90 1406.09 302.384)" fill="#5E6EED" fill-opacity="0.5"/>
<rect x="1406.09" y="333.397" width="3.87671" height="3.87671" transform="rotate(-90 1406.09 333.397)" fill="#5E6EED" fill-opacity="0.5"/>
<rect x="1406.09" y="364.411" width="3.87671" height="3.87671" transform="rotate(-90 1406.09 364.411)" fill="#5E6EED" fill-opacity="0.5"/>
<rect x="1375.08" y="302.384" width="3.87671" height="3.87671" transform="rotate(-90 1375.08 302.384)" fill="#5E6EED" fill-opacity="0.5"/>
<rect x="1375.08" y="333.397" width="3.87671" height="3.87671" transform="rotate(-90 1375.08 333.397)" fill="#5E6EED" fill-opacity="0.5"/>
<rect x="1375.08" y="364.411" width="3.87671" height="3.87671" transform="rotate(-90 1375.08 364.411)" fill="#5E6EED" fill-opacity="0.5"/>
<rect x="1406.09" y="484.589" width="3.87671" height="3.87671" transform="rotate(90 1406.09 484.589)" fill="#5E6EED" fill-opacity="0.5"/>
<rect x="1406.09" y="515.603" width="3.87671" height="3.87671" transform="rotate(90 1406.09 515.603)" fill="#5E6EED" fill-opacity="0.5"/>
<rect x="1375.08" y="484.589" width="3.87671" height="3.87671" transform="rotate(90 1375.08 484.589)" fill="#5E6EED" fill-opacity="0.5"/>
<rect x="1406.09" y="546.616" width="3.87671" height="3.87671" transform="rotate(90 1406.09 546.616)" fill="#5E6EED" fill-opacity="0.5"/>
<rect x="1375.08" y="515.603" width="3.87671" height="3.87671" transform="rotate(90 1375.08 515.603)" fill="#5E6EED" fill-opacity="0.5"/>
<rect x="1375.08" y="546.616" width="3.87671" height="3.87671" transform="rotate(90 1375.08 546.616)" fill="#5E6EED" fill-opacity="0.5"/>
<rect x="1433.23" y="519.479" width="3.87671" height="3.87671" transform="rotate(-90 1433.23 519.479)" fill="#5E6EED" fill-opacity="0.5"/>
<rect x="1433.23" y="550.493" width="3.87671" height="3.87671" transform="rotate(-90 1433.23 550.493)" fill="#5E6EED" fill-opacity="0.5"/>
<rect x="1435.16" y="488.466" width="3.87671" height="3.87671" transform="rotate(-90 1435.16 488.466)" fill="#5E6EED" fill-opacity="0.5"/>
</g>
<ellipse cx="1557" cy="257" rx="197" ry="200" fill="#DAE1FC" fill-opacity="0.5"/>
</g>
<defs>
<clipPath id="clip0">
<rect width="1440" height="1024" fill="white"/>
</clipPath>
<clipPath id="clip1">
<rect x="274" y="606" width="220" height="283" transform="rotate(90 274 606)" fill="white"/>
</clipPath>
<clipPath id="clip2">
<rect x="1346" y="283" width="220" height="283" fill="white"/>
</clipPath>
<clipPath id="clip3">
<rect x="1346" y="283" width="220" height="283" fill="white"/>
</clipPath>
</defs>
</svg>
