<svg width="1440" height="1024" viewBox="0 0 1440 1024" fill="none" xmlns="http://www.w3.org/2000/svg">
<g clip-path="url(#clip0)">
<rect width="1440" height="1024" fill="white"/>
<ellipse cx="1142" cy="749" rx="197" ry="200" fill="#F7DAFC" fill-opacity="0.5"/>
<circle cx="280" cy="655" r="200" fill="#DAE1FC" fill-opacity="0.5"/>
<circle cx="1280" cy="77" r="200" fill="#DAF0FC" fill-opacity="0.5"/>
<g clip-path="url(#clip1)">
<rect x="153.077" y="424.143" width="3.64763" height="3.64763" transform="rotate(-90 153.077 424.143)" fill="#FF6373" fill-opacity="0.5"/>
<rect x="153.077" y="453.324" width="3.64763" height="3.64763" transform="rotate(-90 153.077 453.324)" fill="#FF6373" fill-opacity="0.5"/>
<rect x="123.896" y="424.143" width="3.64763" height="3.64763" transform="rotate(-90 123.896 424.143)" fill="#FF6373" fill-opacity="0.5"/>
<rect x="153.077" y="482.505" width="3.64763" height="3.64763" transform="rotate(-90 153.077 482.505)" fill="#FF6373" fill-opacity="0.5"/>
<rect x="123.896" y="453.324" width="3.64763" height="3.64763" transform="rotate(-90 123.896 453.324)" fill="#FF6373" fill-opacity="0.5"/>
<rect x="123.896" y="482.505" width="3.64763" height="3.64763" transform="rotate(-90 123.896 482.505)" fill="#FF6373" fill-opacity="0.5"/>
<rect x="94.7144" y="424.143" width="3.64763" height="3.64763" transform="rotate(-90 94.7144 424.143)" fill="#FF6373" fill-opacity="0.5"/>
<rect x="94.7144" y="453.324" width="3.64763" height="3.64763" transform="rotate(-90 94.7144 453.324)" fill="#FF6373" fill-opacity="0.5"/>
<rect x="94.7144" y="482.505" width="3.64763" height="3.64763" transform="rotate(-90 94.7144 482.505)" fill="#FF6373" fill-opacity="0.5"/>
<rect x="65.5332" y="424.143" width="3.64763" height="3.64763" transform="rotate(-90 65.5332 424.143)" fill="#FF6373" fill-opacity="0.5"/>
<rect x="65.5332" y="453.324" width="3.64763" height="3.64763" transform="rotate(-90 65.5332 453.324)" fill="#FF6373" fill-opacity="0.5"/>
<rect x="65.5332" y="482.505" width="3.64763" height="3.64763" transform="rotate(-90 65.5332 482.505)" fill="#FF6373" fill-opacity="0.5"/>
<rect x="211.439" y="424.143" width="3.64763" height="3.64763" transform="rotate(-90 211.439 424.143)" fill="#FF6373" fill-opacity="0.5"/>
<rect x="211.439" y="453.324" width="3.64763" height="3.64763" transform="rotate(-90 211.439 453.324)" fill="#FF6373" fill-opacity="0.5"/>
<rect x="211.439" y="482.505" width="3.64763" height="3.64763" transform="rotate(-90 211.439 482.505)" fill="#FF6373" fill-opacity="0.5"/>
<rect x="182.258" y="424.143" width="3.64763" height="3.64763" transform="rotate(-90 182.258 424.143)" fill="#FF6373" fill-opacity="0.5"/>
<rect x="182.258" y="453.324" width="3.64763" height="3.64763" transform="rotate(-90 182.258 453.324)" fill="#FF6373" fill-opacity="0.5"/>
<rect x="182.258" y="482.505" width="3.64763" height="3.64763" transform="rotate(-90 182.258 482.505)" fill="#FF6373" fill-opacity="0.5"/>
<rect x="154.9" y="336.6" width="3.64763" height="3.64763" transform="rotate(-90 154.9 336.6)" fill="#FF6373" fill-opacity="0.5"/>
<rect x="154.9" y="365.781" width="3.64763" height="3.64763" transform="rotate(-90 154.9 365.781)" fill="#FF6373" fill-opacity="0.5"/>
<rect x="125.719" y="336.6" width="3.64763" height="3.64763" transform="rotate(-90 125.719 336.6)" fill="#FF6373" fill-opacity="0.5"/>
<rect x="154.9" y="394.962" width="3.64763" height="3.64763" transform="rotate(-90 154.9 394.962)" fill="#FF6373" fill-opacity="0.5"/>
<rect x="125.719" y="365.781" width="3.64763" height="3.64763" transform="rotate(-90 125.719 365.781)" fill="#FF6373" fill-opacity="0.5"/>
<rect x="125.719" y="394.962" width="3.64763" height="3.64763" transform="rotate(-90 125.719 394.962)" fill="#FF6373" fill-opacity="0.5"/>
<rect x="96.5386" y="336.6" width="3.64763" height="3.64763" transform="rotate(-90 96.5386 336.6)" fill="#FF6373" fill-opacity="0.5"/>
<rect x="96.5386" y="365.781" width="3.64763" height="3.64763" transform="rotate(-90 96.5386 365.781)" fill="#FF6373" fill-opacity="0.5"/>
<rect x="96.5386" y="394.962" width="3.64763" height="3.64763" transform="rotate(-90 96.5386 394.962)" fill="#FF6373" fill-opacity="0.5"/>
<rect x="67.3574" y="336.6" width="3.64763" height="3.64763" transform="rotate(-90 67.3574 336.6)" fill="#FF6373" fill-opacity="0.5"/>
<rect x="67.3574" y="365.781" width="3.64763" height="3.64763" transform="rotate(-90 67.3574 365.781)" fill="#FF6373" fill-opacity="0.5"/>
<rect x="67.3574" y="394.962" width="3.64763" height="3.64763" transform="rotate(-90 67.3574 394.962)" fill="#FF6373" fill-opacity="0.5"/>
<rect x="96.5386" y="508.038" width="3.64763" height="3.64763" transform="rotate(90 96.5386 508.038)" fill="#FF6373" fill-opacity="0.5"/>
<rect x="96.5386" y="537.219" width="3.64763" height="3.64763" transform="rotate(90 96.5386 537.219)" fill="#FF6373" fill-opacity="0.5"/>
<rect x="67.3574" y="508.038" width="3.64763" height="3.64763" transform="rotate(90 67.3574 508.038)" fill="#FF6373" fill-opacity="0.5"/>
<rect x="96.5386" y="566.4" width="3.64763" height="3.64763" transform="rotate(90 96.5386 566.4)" fill="#FF6373" fill-opacity="0.5"/>
<rect x="67.3574" y="537.219" width="3.64763" height="3.64763" transform="rotate(90 67.3574 537.219)" fill="#FF6373" fill-opacity="0.5"/>
<rect x="67.3574" y="566.4" width="3.64763" height="3.64763" transform="rotate(90 67.3574 566.4)" fill="#FF6373" fill-opacity="0.5"/>
<rect x="213.263" y="336.6" width="3.64763" height="3.64763" transform="rotate(-90 213.263 336.6)" fill="#FF6373" fill-opacity="0.5"/>
<rect x="213.263" y="365.781" width="3.64763" height="3.64763" transform="rotate(-90 213.263 365.781)" fill="#FF6373" fill-opacity="0.5"/>
<rect x="213.263" y="394.962" width="3.64763" height="3.64763" transform="rotate(-90 213.263 394.962)" fill="#FF6373" fill-opacity="0.5"/>
<rect x="184.082" y="336.6" width="3.64763" height="3.64763" transform="rotate(-90 184.082 336.6)" fill="#FF6373" fill-opacity="0.5"/>
<rect x="184.082" y="365.781" width="3.64763" height="3.64763" transform="rotate(-90 184.082 365.781)" fill="#FF6373" fill-opacity="0.5"/>
<rect x="184.082" y="394.962" width="3.64763" height="3.64763" transform="rotate(-90 184.082 394.962)" fill="#FF6373" fill-opacity="0.5"/>
<rect x="151.253" y="540.867" width="3.64763" height="3.64763" transform="rotate(-90 151.253 540.867)" fill="#FF6373" fill-opacity="0.5"/>
<rect x="151.253" y="570.048" width="3.64763" height="3.64763" transform="rotate(-90 151.253 570.048)" fill="#FF6373" fill-opacity="0.5"/>
<rect x="122.072" y="540.867" width="3.64763" height="3.64763" transform="rotate(-90 122.072 540.867)" fill="#FF6373" fill-opacity="0.5"/>
<rect x="122.072" y="570.048" width="3.64763" height="3.64763" transform="rotate(-90 122.072 570.048)" fill="#FF6373" fill-opacity="0.5"/>
<rect x="209.615" y="540.867" width="3.64763" height="3.64763" transform="rotate(-90 209.615 540.867)" fill="#FF6373" fill-opacity="0.5"/>
<rect x="209.615" y="570.048" width="3.64763" height="3.64763" transform="rotate(-90 209.615 570.048)" fill="#FF6373" fill-opacity="0.5"/>
<rect x="180.434" y="540.867" width="3.64763" height="3.64763" transform="rotate(-90 180.434 540.867)" fill="#FF6373" fill-opacity="0.5"/>
<rect x="180.434" y="570.048" width="3.64763" height="3.64763" transform="rotate(-90 180.434 570.048)" fill="#FF6373" fill-opacity="0.5"/>
<rect x="153.077" y="511.686" width="3.64763" height="3.64763" transform="rotate(-90 153.077 511.686)" fill="#FF6373" fill-opacity="0.5"/>
<rect x="123.896" y="511.686" width="3.64763" height="3.64763" transform="rotate(-90 123.896 511.686)" fill="#FF6373" fill-opacity="0.5"/>
<rect x="211.439" y="511.686" width="3.64763" height="3.64763" transform="rotate(-90 211.439 511.686)" fill="#FF6373" fill-opacity="0.5"/>
<rect x="182.258" y="511.686" width="3.64763" height="3.64763" transform="rotate(-90 182.258 511.686)" fill="#FF6373" fill-opacity="0.5"/>
</g>
<g clip-path="url(#clip2)">
<rect x="1363.58" y="883.178" width="3.87671" height="3.87671" fill="#FF6373" fill-opacity="0.5"/>
<rect x="1332.56" y="883.178" width="3.87671" height="3.87671" fill="#FF6373" fill-opacity="0.5"/>
<rect x="1363.58" y="852.164" width="3.87671" height="3.87671" fill="#FF6373" fill-opacity="0.5"/>
<rect x="1301.55" y="883.178" width="3.87671" height="3.87671" fill="#FF6373" fill-opacity="0.5"/>
<rect x="1332.56" y="852.164" width="3.87671" height="3.87671" fill="#FF6373" fill-opacity="0.5"/>
<rect x="1301.55" y="852.164" width="3.87671" height="3.87671" fill="#FF6373" fill-opacity="0.5"/>
<rect x="1363.58" y="821.151" width="3.87671" height="3.87671" fill="#FF6373" fill-opacity="0.5"/>
<rect x="1332.56" y="821.151" width="3.87671" height="3.87671" fill="#FF6373" fill-opacity="0.5"/>
<rect x="1301.55" y="821.151" width="3.87671" height="3.87671" fill="#FF6373" fill-opacity="0.5"/>
<rect x="1363.58" y="790.137" width="3.87671" height="3.87671" fill="#FF6373" fill-opacity="0.5"/>
<rect x="1332.56" y="790.137" width="3.87671" height="3.87671" fill="#FF6373" fill-opacity="0.5"/>
<rect x="1301.55" y="790.137" width="3.87671" height="3.87671" fill="#FF6373" fill-opacity="0.5"/>
<rect x="1363.58" y="945.206" width="3.87671" height="3.87671" fill="#FF6373" fill-opacity="0.5"/>
<rect x="1332.56" y="945.206" width="3.87671" height="3.87671" fill="#FF6373" fill-opacity="0.5"/>
<rect x="1301.55" y="945.206" width="3.87671" height="3.87671" fill="#FF6373" fill-opacity="0.5"/>
<rect x="1363.58" y="914.192" width="3.87671" height="3.87671" fill="#FF6373" fill-opacity="0.5"/>
<rect x="1332.56" y="914.192" width="3.87671" height="3.87671" fill="#FF6373" fill-opacity="0.5"/>
<rect x="1301.55" y="914.192" width="3.87671" height="3.87671" fill="#FF6373" fill-opacity="0.5"/>
<rect x="1425.6" y="885.116" width="3.87671" height="3.87671" fill="#FF6373" fill-opacity="0.5"/>
<rect x="1394.59" y="885.116" width="3.87671" height="3.87671" fill="#FF6373" fill-opacity="0.5"/>
<rect x="1425.6" y="854.103" width="3.87671" height="3.87671" fill="#FF6373" fill-opacity="0.5"/>
<rect x="1394.59" y="854.103" width="3.87671" height="3.87671" fill="#FF6373" fill-opacity="0.5"/>
<rect x="1425.6" y="823.089" width="3.87671" height="3.87671" fill="#FF6373" fill-opacity="0.5"/>
<rect x="1394.59" y="823.089" width="3.87671" height="3.87671" fill="#FF6373" fill-opacity="0.5"/>
<rect x="1425.6" y="792.075" width="3.87671" height="3.87671" fill="#FF6373" fill-opacity="0.5"/>
<rect x="1394.59" y="792.075" width="3.87671" height="3.87671" fill="#FF6373" fill-opacity="0.5"/>
<rect x="1274.41" y="823.089" width="3.87671" height="3.87671" transform="rotate(180 1274.41 823.089)" fill="#FF6373" fill-opacity="0.5"/>
<rect x="1243.4" y="823.089" width="3.87671" height="3.87671" transform="rotate(180 1243.4 823.089)" fill="#FF6373" fill-opacity="0.5"/>
<rect x="1274.41" y="792.075" width="3.87671" height="3.87671" transform="rotate(180 1274.41 792.075)" fill="#FF6373" fill-opacity="0.5"/>
<rect x="1212.38" y="823.089" width="3.87671" height="3.87671" transform="rotate(180 1212.38 823.089)" fill="#FF6373" fill-opacity="0.5"/>
<rect x="1243.4" y="792.075" width="3.87671" height="3.87671" transform="rotate(180 1243.4 792.075)" fill="#FF6373" fill-opacity="0.5"/>
<rect x="1212.38" y="792.075" width="3.87671" height="3.87671" transform="rotate(180 1212.38 792.075)" fill="#FF6373" fill-opacity="0.5"/>
<rect x="1425.6" y="947.144" width="3.87671" height="3.87671" fill="#FF6373" fill-opacity="0.5"/>
<rect x="1394.59" y="947.144" width="3.87671" height="3.87671" fill="#FF6373" fill-opacity="0.5"/>
<rect x="1425.6" y="916.13" width="3.87671" height="3.87671" fill="#FF6373" fill-opacity="0.5"/>
<rect x="1394.59" y="916.13" width="3.87671" height="3.87671" fill="#FF6373" fill-opacity="0.5"/>
<rect x="1239.52" y="881.24" width="3.87671" height="3.87671" fill="#FF6373" fill-opacity="0.5"/>
<rect x="1208.51" y="881.24" width="3.87671" height="3.87671" fill="#FF6373" fill-opacity="0.5"/>
<rect x="1239.52" y="850.226" width="3.87671" height="3.87671" fill="#FF6373" fill-opacity="0.5"/>
<rect x="1208.51" y="850.226" width="3.87671" height="3.87671" fill="#FF6373" fill-opacity="0.5"/>
<rect x="1239.52" y="943.267" width="3.87671" height="3.87671" fill="#FF6373" fill-opacity="0.5"/>
<rect x="1208.51" y="943.267" width="3.87671" height="3.87671" fill="#FF6373" fill-opacity="0.5"/>
<rect x="1239.52" y="912.253" width="3.87671" height="3.87671" fill="#FF6373" fill-opacity="0.5"/>
<rect x="1208.51" y="912.253" width="3.87671" height="3.87671" fill="#FF6373" fill-opacity="0.5"/>
<rect x="1270.53" y="883.178" width="3.87671" height="3.87671" fill="#FF6373" fill-opacity="0.5"/>
<rect x="1270.53" y="852.164" width="3.87671" height="3.87671" fill="#FF6373" fill-opacity="0.5"/>
<rect x="1270.53" y="945.206" width="3.87671" height="3.87671" fill="#FF6373" fill-opacity="0.5"/>
<rect x="1270.53" y="914.192" width="3.87671" height="3.87671" fill="#FF6373" fill-opacity="0.5"/>
</g>
<ellipse cx="1142" cy="749" rx="197" ry="200" fill="#F7DAFC" fill-opacity="0.5"/>
<circle cx="280" cy="655" r="200" fill="#DAE1FC" fill-opacity="0.5"/>
<circle cx="1280" cy="77" r="200" fill="#DAF0FC" fill-opacity="0.5"/>
<g clip-path="url(#clip3)">
<rect x="153.077" y="424.143" width="3.64763" height="3.64763" transform="rotate(-90 153.077 424.143)" fill="#FF6373" fill-opacity="0.5"/>
<rect x="153.077" y="453.324" width="3.64763" height="3.64763" transform="rotate(-90 153.077 453.324)" fill="#FF6373" fill-opacity="0.5"/>
<rect x="123.896" y="424.143" width="3.64763" height="3.64763" transform="rotate(-90 123.896 424.143)" fill="#FF6373" fill-opacity="0.5"/>
<rect x="153.077" y="482.505" width="3.64763" height="3.64763" transform="rotate(-90 153.077 482.505)" fill="#FF6373" fill-opacity="0.5"/>
<rect x="123.896" y="453.324" width="3.64763" height="3.64763" transform="rotate(-90 123.896 453.324)" fill="#FF6373" fill-opacity="0.5"/>
<rect x="123.896" y="482.505" width="3.64763" height="3.64763" transform="rotate(-90 123.896 482.505)" fill="#FF6373" fill-opacity="0.5"/>
<rect x="94.7144" y="424.143" width="3.64763" height="3.64763" transform="rotate(-90 94.7144 424.143)" fill="#FF6373" fill-opacity="0.5"/>
<rect x="94.7144" y="453.324" width="3.64763" height="3.64763" transform="rotate(-90 94.7144 453.324)" fill="#FF6373" fill-opacity="0.5"/>
<rect x="94.7144" y="482.505" width="3.64763" height="3.64763" transform="rotate(-90 94.7144 482.505)" fill="#FF6373" fill-opacity="0.5"/>
<rect x="65.5332" y="424.143" width="3.64763" height="3.64763" transform="rotate(-90 65.5332 424.143)" fill="#FF6373" fill-opacity="0.5"/>
<rect x="65.5332" y="453.324" width="3.64763" height="3.64763" transform="rotate(-90 65.5332 453.324)" fill="#FF6373" fill-opacity="0.5"/>
<rect x="65.5332" y="482.505" width="3.64763" height="3.64763" transform="rotate(-90 65.5332 482.505)" fill="#FF6373" fill-opacity="0.5"/>
<rect x="211.439" y="424.143" width="3.64763" height="3.64763" transform="rotate(-90 211.439 424.143)" fill="#FF6373" fill-opacity="0.5"/>
<rect x="211.439" y="453.324" width="3.64763" height="3.64763" transform="rotate(-90 211.439 453.324)" fill="#FF6373" fill-opacity="0.5"/>
<rect x="211.439" y="482.505" width="3.64763" height="3.64763" transform="rotate(-90 211.439 482.505)" fill="#FF6373" fill-opacity="0.5"/>
<rect x="182.258" y="424.143" width="3.64763" height="3.64763" transform="rotate(-90 182.258 424.143)" fill="#FF6373" fill-opacity="0.5"/>
<rect x="182.258" y="453.324" width="3.64763" height="3.64763" transform="rotate(-90 182.258 453.324)" fill="#FF6373" fill-opacity="0.5"/>
<rect x="182.258" y="482.505" width="3.64763" height="3.64763" transform="rotate(-90 182.258 482.505)" fill="#FF6373" fill-opacity="0.5"/>
<rect x="154.9" y="336.6" width="3.64763" height="3.64763" transform="rotate(-90 154.9 336.6)" fill="#FF6373" fill-opacity="0.5"/>
<rect x="154.9" y="365.781" width="3.64763" height="3.64763" transform="rotate(-90 154.9 365.781)" fill="#FF6373" fill-opacity="0.5"/>
<rect x="125.719" y="336.6" width="3.64763" height="3.64763" transform="rotate(-90 125.719 336.6)" fill="#FF6373" fill-opacity="0.5"/>
<rect x="154.9" y="394.962" width="3.64763" height="3.64763" transform="rotate(-90 154.9 394.962)" fill="#FF6373" fill-opacity="0.5"/>
<rect x="125.719" y="365.781" width="3.64763" height="3.64763" transform="rotate(-90 125.719 365.781)" fill="#FF6373" fill-opacity="0.5"/>
<rect x="125.719" y="394.962" width="3.64763" height="3.64763" transform="rotate(-90 125.719 394.962)" fill="#FF6373" fill-opacity="0.5"/>
<rect x="96.5386" y="336.6" width="3.64763" height="3.64763" transform="rotate(-90 96.5386 336.6)" fill="#FF6373" fill-opacity="0.5"/>
<rect x="96.5386" y="365.781" width="3.64763" height="3.64763" transform="rotate(-90 96.5386 365.781)" fill="#FF6373" fill-opacity="0.5"/>
<rect x="96.5386" y="394.962" width="3.64763" height="3.64763" transform="rotate(-90 96.5386 394.962)" fill="#FF6373" fill-opacity="0.5"/>
<rect x="67.3574" y="336.6" width="3.64763" height="3.64763" transform="rotate(-90 67.3574 336.6)" fill="#FF6373" fill-opacity="0.5"/>
<rect x="67.3574" y="365.781" width="3.64763" height="3.64763" transform="rotate(-90 67.3574 365.781)" fill="#FF6373" fill-opacity="0.5"/>
<rect x="67.3574" y="394.962" width="3.64763" height="3.64763" transform="rotate(-90 67.3574 394.962)" fill="#FF6373" fill-opacity="0.5"/>
<rect x="96.5386" y="508.038" width="3.64763" height="3.64763" transform="rotate(90 96.5386 508.038)" fill="#FF6373" fill-opacity="0.5"/>
<rect x="96.5386" y="537.219" width="3.64763" height="3.64763" transform="rotate(90 96.5386 537.219)" fill="#FF6373" fill-opacity="0.5"/>
<rect x="67.3574" y="508.038" width="3.64763" height="3.64763" transform="rotate(90 67.3574 508.038)" fill="#FF6373" fill-opacity="0.5"/>
<rect x="96.5386" y="566.4" width="3.64763" height="3.64763" transform="rotate(90 96.5386 566.4)" fill="#FF6373" fill-opacity="0.5"/>
<rect x="67.3574" y="537.219" width="3.64763" height="3.64763" transform="rotate(90 67.3574 537.219)" fill="#FF6373" fill-opacity="0.5"/>
<rect x="67.3574" y="566.4" width="3.64763" height="3.64763" transform="rotate(90 67.3574 566.4)" fill="#FF6373" fill-opacity="0.5"/>
<rect x="213.263" y="336.6" width="3.64763" height="3.64763" transform="rotate(-90 213.263 336.6)" fill="#FF6373" fill-opacity="0.5"/>
<rect x="213.263" y="365.781" width="3.64763" height="3.64763" transform="rotate(-90 213.263 365.781)" fill="#FF6373" fill-opacity="0.5"/>
<rect x="213.263" y="394.962" width="3.64763" height="3.64763" transform="rotate(-90 213.263 394.962)" fill="#FF6373" fill-opacity="0.5"/>
<rect x="184.082" y="336.6" width="3.64763" height="3.64763" transform="rotate(-90 184.082 336.6)" fill="#FF6373" fill-opacity="0.5"/>
<rect x="184.082" y="365.781" width="3.64763" height="3.64763" transform="rotate(-90 184.082 365.781)" fill="#FF6373" fill-opacity="0.5"/>
<rect x="184.082" y="394.962" width="3.64763" height="3.64763" transform="rotate(-90 184.082 394.962)" fill="#FF6373" fill-opacity="0.5"/>
<rect x="151.253" y="540.867" width="3.64763" height="3.64763" transform="rotate(-90 151.253 540.867)" fill="#FF6373" fill-opacity="0.5"/>
<rect x="151.253" y="570.048" width="3.64763" height="3.64763" transform="rotate(-90 151.253 570.048)" fill="#FF6373" fill-opacity="0.5"/>
<rect x="122.072" y="540.867" width="3.64763" height="3.64763" transform="rotate(-90 122.072 540.867)" fill="#FF6373" fill-opacity="0.5"/>
<rect x="122.072" y="570.048" width="3.64763" height="3.64763" transform="rotate(-90 122.072 570.048)" fill="#FF6373" fill-opacity="0.5"/>
<rect x="209.615" y="540.867" width="3.64763" height="3.64763" transform="rotate(-90 209.615 540.867)" fill="#FF6373" fill-opacity="0.5"/>
<rect x="209.615" y="570.048" width="3.64763" height="3.64763" transform="rotate(-90 209.615 570.048)" fill="#FF6373" fill-opacity="0.5"/>
<rect x="180.434" y="540.867" width="3.64763" height="3.64763" transform="rotate(-90 180.434 540.867)" fill="#FF6373" fill-opacity="0.5"/>
<rect x="180.434" y="570.048" width="3.64763" height="3.64763" transform="rotate(-90 180.434 570.048)" fill="#FF6373" fill-opacity="0.5"/>
<rect x="153.077" y="511.686" width="3.64763" height="3.64763" transform="rotate(-90 153.077 511.686)" fill="#FF6373" fill-opacity="0.5"/>
<rect x="123.896" y="511.686" width="3.64763" height="3.64763" transform="rotate(-90 123.896 511.686)" fill="#FF6373" fill-opacity="0.5"/>
<rect x="211.439" y="511.686" width="3.64763" height="3.64763" transform="rotate(-90 211.439 511.686)" fill="#FF6373" fill-opacity="0.5"/>
<rect x="182.258" y="511.686" width="3.64763" height="3.64763" transform="rotate(-90 182.258 511.686)" fill="#FF6373" fill-opacity="0.5"/>
</g>
<g clip-path="url(#clip4)">
<rect x="1363.58" y="883.178" width="3.87671" height="3.87671" fill="#FF6373" fill-opacity="0.5"/>
<rect x="1332.56" y="883.178" width="3.87671" height="3.87671" fill="#FF6373" fill-opacity="0.5"/>
<rect x="1363.58" y="852.164" width="3.87671" height="3.87671" fill="#FF6373" fill-opacity="0.5"/>
<rect x="1301.55" y="883.178" width="3.87671" height="3.87671" fill="#FF6373" fill-opacity="0.5"/>
<rect x="1332.56" y="852.164" width="3.87671" height="3.87671" fill="#FF6373" fill-opacity="0.5"/>
<rect x="1301.55" y="852.164" width="3.87671" height="3.87671" fill="#FF6373" fill-opacity="0.5"/>
<rect x="1363.58" y="821.151" width="3.87671" height="3.87671" fill="#FF6373" fill-opacity="0.5"/>
<rect x="1332.56" y="821.151" width="3.87671" height="3.87671" fill="#FF6373" fill-opacity="0.5"/>
<rect x="1301.55" y="821.151" width="3.87671" height="3.87671" fill="#FF6373" fill-opacity="0.5"/>
<rect x="1363.58" y="790.137" width="3.87671" height="3.87671" fill="#FF6373" fill-opacity="0.5"/>
<rect x="1332.56" y="790.137" width="3.87671" height="3.87671" fill="#FF6373" fill-opacity="0.5"/>
<rect x="1301.55" y="790.137" width="3.87671" height="3.87671" fill="#FF6373" fill-opacity="0.5"/>
<rect x="1363.58" y="945.206" width="3.87671" height="3.87671" fill="#FF6373" fill-opacity="0.5"/>
<rect x="1332.56" y="945.206" width="3.87671" height="3.87671" fill="#FF6373" fill-opacity="0.5"/>
<rect x="1301.55" y="945.206" width="3.87671" height="3.87671" fill="#FF6373" fill-opacity="0.5"/>
<rect x="1363.58" y="914.192" width="3.87671" height="3.87671" fill="#FF6373" fill-opacity="0.5"/>
<rect x="1332.56" y="914.192" width="3.87671" height="3.87671" fill="#FF6373" fill-opacity="0.5"/>
<rect x="1301.55" y="914.192" width="3.87671" height="3.87671" fill="#FF6373" fill-opacity="0.5"/>
<rect x="1425.6" y="885.116" width="3.87671" height="3.87671" fill="#FF6373" fill-opacity="0.5"/>
<rect x="1394.59" y="885.116" width="3.87671" height="3.87671" fill="#FF6373" fill-opacity="0.5"/>
<rect x="1425.6" y="854.103" width="3.87671" height="3.87671" fill="#FF6373" fill-opacity="0.5"/>
<rect x="1394.59" y="854.103" width="3.87671" height="3.87671" fill="#FF6373" fill-opacity="0.5"/>
<rect x="1425.6" y="823.089" width="3.87671" height="3.87671" fill="#FF6373" fill-opacity="0.5"/>
<rect x="1394.59" y="823.089" width="3.87671" height="3.87671" fill="#FF6373" fill-opacity="0.5"/>
<rect x="1425.6" y="792.075" width="3.87671" height="3.87671" fill="#FF6373" fill-opacity="0.5"/>
<rect x="1394.59" y="792.075" width="3.87671" height="3.87671" fill="#FF6373" fill-opacity="0.5"/>
<rect x="1274.41" y="823.089" width="3.87671" height="3.87671" transform="rotate(180 1274.41 823.089)" fill="#FF6373" fill-opacity="0.5"/>
<rect x="1243.4" y="823.089" width="3.87671" height="3.87671" transform="rotate(180 1243.4 823.089)" fill="#FF6373" fill-opacity="0.5"/>
<rect x="1274.41" y="792.075" width="3.87671" height="3.87671" transform="rotate(180 1274.41 792.075)" fill="#FF6373" fill-opacity="0.5"/>
<rect x="1212.38" y="823.089" width="3.87671" height="3.87671" transform="rotate(180 1212.38 823.089)" fill="#FF6373" fill-opacity="0.5"/>
<rect x="1243.4" y="792.075" width="3.87671" height="3.87671" transform="rotate(180 1243.4 792.075)" fill="#FF6373" fill-opacity="0.5"/>
<rect x="1212.38" y="792.075" width="3.87671" height="3.87671" transform="rotate(180 1212.38 792.075)" fill="#FF6373" fill-opacity="0.5"/>
<rect x="1425.6" y="947.144" width="3.87671" height="3.87671" fill="#FF6373" fill-opacity="0.5"/>
<rect x="1394.59" y="947.144" width="3.87671" height="3.87671" fill="#FF6373" fill-opacity="0.5"/>
<rect x="1425.6" y="916.13" width="3.87671" height="3.87671" fill="#FF6373" fill-opacity="0.5"/>
<rect x="1394.59" y="916.13" width="3.87671" height="3.87671" fill="#FF6373" fill-opacity="0.5"/>
<rect x="1239.52" y="881.24" width="3.87671" height="3.87671" fill="#FF6373" fill-opacity="0.5"/>
<rect x="1208.51" y="881.24" width="3.87671" height="3.87671" fill="#FF6373" fill-opacity="0.5"/>
<rect x="1239.52" y="850.226" width="3.87671" height="3.87671" fill="#FF6373" fill-opacity="0.5"/>
<rect x="1208.51" y="850.226" width="3.87671" height="3.87671" fill="#FF6373" fill-opacity="0.5"/>
<rect x="1239.52" y="943.267" width="3.87671" height="3.87671" fill="#FF6373" fill-opacity="0.5"/>
<rect x="1208.51" y="943.267" width="3.87671" height="3.87671" fill="#FF6373" fill-opacity="0.5"/>
<rect x="1239.52" y="912.253" width="3.87671" height="3.87671" fill="#FF6373" fill-opacity="0.5"/>
<rect x="1208.51" y="912.253" width="3.87671" height="3.87671" fill="#FF6373" fill-opacity="0.5"/>
<rect x="1270.53" y="883.178" width="3.87671" height="3.87671" fill="#FF6373" fill-opacity="0.5"/>
<rect x="1270.53" y="852.164" width="3.87671" height="3.87671" fill="#FF6373" fill-opacity="0.5"/>
<rect x="1270.53" y="945.206" width="3.87671" height="3.87671" fill="#FF6373" fill-opacity="0.5"/>
<rect x="1270.53" y="914.192" width="3.87671" height="3.87671" fill="#FF6373" fill-opacity="0.5"/>
</g>
</g>
<defs>
<clipPath id="clip0">
<rect width="1440" height="1024" fill="white"/>
</clipPath>
<clipPath id="clip1">
<rect x="40" y="318.361" width="207" height="266.277" fill="white"/>
</clipPath>
<clipPath id="clip2">
<rect x="1476" y="763" width="220" height="283" transform="rotate(90 1476 763)" fill="white"/>
</clipPath>
<clipPath id="clip3">
<rect x="40" y="318.361" width="207" height="266.277" fill="white"/>
</clipPath>
<clipPath id="clip4">
<rect x="1476" y="763" width="220" height="283" transform="rotate(90 1476 763)" fill="white"/>
</clipPath>
</defs>
</svg>
