<svg width="584" height="144" viewBox="0 0 584 144" fill="none" xmlns="http://www.w3.org/2000/svg">
<line x1="189.508" y1="75.5" x2="458.508" y2="75.5" stroke="#FFB3BF" stroke-linecap="round" stroke-dasharray="4 4"/>
<path d="M217.922 83.7V90H216.752V84.681H215.42V83.7H217.922ZM221.142 86.139C222.03 86.139 222.687 86.313 223.113 86.661C223.539 87.003 223.752 87.471 223.752 88.065C223.752 88.443 223.659 88.785 223.473 89.091C223.287 89.397 223.008 89.64 222.636 89.82C222.264 90 221.805 90.09 221.259 90.09C220.809 90.09 220.374 90.027 219.954 89.901C219.534 89.769 219.18 89.589 218.892 89.361L219.387 88.452C219.621 88.644 219.9 88.797 220.224 88.911C220.554 89.019 220.893 89.073 221.241 89.073C221.655 89.073 221.979 88.989 222.213 88.821C222.453 88.647 222.573 88.41 222.573 88.11C222.573 87.786 222.444 87.543 222.186 87.381C221.934 87.213 221.499 87.129 220.881 87.129H219.36L219.684 83.7H223.383V84.681H220.674L220.539 86.139H221.142ZM225.129 86.634C224.925 86.634 224.751 86.565 224.607 86.427C224.463 86.283 224.391 86.103 224.391 85.887C224.391 85.665 224.46 85.485 224.598 85.347C224.742 85.209 224.919 85.14 225.129 85.14C225.339 85.14 225.513 85.209 225.651 85.347C225.795 85.485 225.867 85.665 225.867 85.887C225.867 86.103 225.795 86.283 225.651 86.427C225.507 86.565 225.333 86.634 225.129 86.634ZM225.129 90.063C224.925 90.063 224.751 89.994 224.607 89.856C224.463 89.712 224.391 89.532 224.391 89.316C224.391 89.094 224.46 88.914 224.598 88.776C224.742 88.638 224.919 88.569 225.129 88.569C225.339 88.569 225.513 88.638 225.651 88.776C225.795 88.914 225.867 89.094 225.867 89.316C225.867 89.532 225.795 89.712 225.651 89.856C225.507 89.994 225.333 90.063 225.129 90.063ZM229.252 90.09C228.748 90.09 228.298 89.964 227.902 89.712C227.506 89.454 227.194 89.082 226.966 88.596C226.738 88.104 226.624 87.522 226.624 86.85C226.624 86.178 226.738 85.599 226.966 85.113C227.194 84.621 227.506 84.249 227.902 83.997C228.298 83.739 228.748 83.61 229.252 83.61C229.756 83.61 230.206 83.739 230.602 83.997C231.004 84.249 231.319 84.621 231.547 85.113C231.775 85.599 231.889 86.178 231.889 86.85C231.889 87.522 231.775 88.104 231.547 88.596C231.319 89.082 231.004 89.454 230.602 89.712C230.206 89.964 229.756 90.09 229.252 90.09ZM229.252 89.073C229.702 89.073 230.056 88.887 230.314 88.515C230.578 88.143 230.71 87.588 230.71 86.85C230.71 86.112 230.578 85.557 230.314 85.185C230.056 84.813 229.702 84.627 229.252 84.627C228.808 84.627 228.454 84.813 228.19 85.185C227.932 85.557 227.803 86.112 227.803 86.85C227.803 87.588 227.932 88.143 228.19 88.515C228.454 88.887 228.808 89.073 229.252 89.073ZM234.814 83.7V90H233.644V84.681H232.312V83.7H234.814Z" fill="#E65C73"/>
<path d="M217.508 102C217.508 97.5817 221.089 94 225.508 94C229.926 94 233.508 97.5817 233.508 102V108H217.508V102Z" fill="#F38698"/>
<text x="225.5" y="120" fill="#6D6A80" font-family="sans-serif" font-size="8" text-anchor="middle">MO</text>
<path d="M224.973 134.4V135.5H219.813V134.63L222.593 131.99C222.906 131.69 223.116 131.43 223.223 131.21C223.336 130.983 223.393 130.76 223.393 130.54C223.393 130.213 223.283 129.963 223.063 129.79C222.843 129.617 222.519 129.53 222.093 129.53C221.379 129.53 220.833 129.773 220.453 130.26L219.543 129.56C219.816 129.193 220.183 128.91 220.643 128.71C221.109 128.503 221.629 128.4 222.203 128.4C222.963 128.4 223.569 128.58 224.023 128.94C224.476 129.3 224.703 129.79 224.703 130.41C224.703 130.79 224.623 131.147 224.463 131.48C224.303 131.813 223.996 132.193 223.543 132.62L221.673 134.4H224.973ZM228.083 128.4C229.043 128.4 229.786 128.7 230.313 129.3C230.846 129.9 231.113 130.76 231.113 131.88C231.113 132.667 230.97 133.34 230.683 133.9C230.396 134.453 229.993 134.877 229.473 135.17C228.96 135.457 228.363 135.6 227.683 135.6C227.323 135.6 226.983 135.563 226.663 135.49C226.35 135.41 226.076 135.297 225.843 135.15L226.323 134.17C226.67 134.397 227.113 134.51 227.653 134.51C228.326 134.51 228.853 134.303 229.233 133.89C229.613 133.477 229.803 132.88 229.803 132.1V132.09C229.596 132.33 229.333 132.513 229.013 132.64C228.693 132.76 228.333 132.82 227.933 132.82C227.473 132.82 227.06 132.733 226.693 132.56C226.326 132.38 226.04 132.127 225.833 131.8C225.626 131.473 225.523 131.097 225.523 130.67C225.523 130.217 225.636 129.82 225.863 129.48C226.09 129.133 226.396 128.867 226.783 128.68C227.17 128.493 227.603 128.4 228.083 128.4ZM228.183 131.8C228.603 131.8 228.943 131.687 229.203 131.46C229.47 131.233 229.603 130.947 229.603 130.6C229.603 130.26 229.473 129.98 229.213 129.76C228.96 129.533 228.606 129.42 228.153 129.42C227.746 129.42 227.416 129.53 227.163 129.75C226.91 129.963 226.783 130.25 226.783 130.61C226.783 130.977 226.91 131.267 227.163 131.48C227.416 131.693 227.756 131.8 228.183 131.8Z" fill="#3D3A4D"/>
<path d="M250.888 62.01V63H246.244V62.217L248.746 59.841C249.028 59.571 249.217 59.337 249.313 59.139C249.415 58.935 249.466 58.734 249.466 58.536C249.466 58.242 249.367 58.017 249.169 57.861C248.971 57.705 248.68 57.627 248.296 57.627C247.654 57.627 247.162 57.846 246.82 58.284L246.001 57.654C246.247 57.324 246.577 57.069 246.991 56.889C247.411 56.703 247.879 56.61 248.395 56.61C249.079 56.61 249.625 56.772 250.033 57.096C250.441 57.42 250.645 57.861 250.645 58.419C250.645 58.761 250.573 59.082 250.429 59.382C250.285 59.682 250.009 60.024 249.601 60.408L247.918 62.01H250.888ZM256.126 62.01V63H251.482V62.217L253.984 59.841C254.266 59.571 254.455 59.337 254.551 59.139C254.653 58.935 254.704 58.734 254.704 58.536C254.704 58.242 254.605 58.017 254.407 57.861C254.209 57.705 253.918 57.627 253.534 57.627C252.892 57.627 252.4 57.846 252.058 58.284L251.239 57.654C251.485 57.324 251.815 57.069 252.229 56.889C252.649 56.703 253.117 56.61 253.633 56.61C254.317 56.61 254.863 56.772 255.271 57.096C255.679 57.42 255.883 57.861 255.883 58.419C255.883 58.761 255.811 59.082 255.667 59.382C255.523 59.682 255.247 60.024 254.839 60.408L253.156 62.01H256.126ZM257.504 59.634C257.3 59.634 257.126 59.565 256.982 59.427C256.838 59.283 256.766 59.103 256.766 58.887C256.766 58.665 256.835 58.485 256.973 58.347C257.117 58.209 257.294 58.14 257.504 58.14C257.714 58.14 257.888 58.209 258.026 58.347C258.17 58.485 258.242 58.665 258.242 58.887C258.242 59.103 258.17 59.283 258.026 59.427C257.882 59.565 257.708 59.634 257.504 59.634ZM257.504 63.063C257.3 63.063 257.126 62.994 256.982 62.856C256.838 62.712 256.766 62.532 256.766 62.316C256.766 62.094 256.835 61.914 256.973 61.776C257.117 61.638 257.294 61.569 257.504 61.569C257.714 61.569 257.888 61.638 258.026 61.776C258.17 61.914 258.242 62.094 258.242 62.316C258.242 62.532 258.17 62.712 258.026 62.856C257.882 62.994 257.708 63.063 257.504 63.063ZM261.177 56.7V63H260.007V57.681H258.675V56.7H261.177ZM265.055 63.09C264.551 63.09 264.101 62.964 263.705 62.712C263.309 62.454 262.997 62.082 262.769 61.596C262.541 61.104 262.427 60.522 262.427 59.85C262.427 59.178 262.541 58.599 262.769 58.113C262.997 57.621 263.309 57.249 263.705 56.997C264.101 56.739 264.551 56.61 265.055 56.61C265.559 56.61 266.009 56.739 266.405 56.997C266.807 57.249 267.122 57.621 267.35 58.113C267.578 58.599 267.692 59.178 267.692 59.85C267.692 60.522 267.578 61.104 267.35 61.596C267.122 62.082 266.807 62.454 266.405 62.712C266.009 62.964 265.559 63.09 265.055 63.09ZM265.055 62.073C265.505 62.073 265.859 61.887 266.117 61.515C266.381 61.143 266.513 60.588 266.513 59.85C266.513 59.112 266.381 58.557 266.117 58.185C265.859 57.813 265.505 57.627 265.055 57.627C264.611 57.627 264.257 57.813 263.993 58.185C263.735 58.557 263.606 59.112 263.606 59.85C263.606 60.588 263.735 61.143 263.993 61.515C264.257 61.887 264.611 62.073 265.055 62.073Z" fill="#24B36C"/>
<path d="M249.008 75C249.008 70.5817 252.589 67 257.008 67C261.426 67 265.008 70.5817 265.008 75V108H249.008V75Z" fill="#47CD8A"/>
<text x="257" y="120" fill="#6D6A80" font-family="sans-serif" font-size="8" text-anchor="middle">TU</text>
<path d="M256.697 134.4V135.5H251.537V134.63L254.317 131.99C254.631 131.69 254.841 131.43 254.947 131.21C255.061 130.983 255.117 130.76 255.117 130.54C255.117 130.213 255.007 129.963 254.787 129.79C254.567 129.617 254.244 129.53 253.817 129.53C253.104 129.53 252.557 129.773 252.177 130.26L251.267 129.56C251.541 129.193 251.907 128.91 252.367 128.71C252.834 128.503 253.354 128.4 253.927 128.4C254.687 128.4 255.294 128.58 255.747 128.94C256.201 129.3 256.427 129.79 256.427 130.41C256.427 130.79 256.347 131.147 256.187 131.48C256.027 131.813 255.721 132.193 255.267 132.62L253.397 134.4H256.697ZM260.428 131.39C261.074 131.47 261.568 131.69 261.908 132.05C262.248 132.41 262.418 132.86 262.418 133.4C262.418 133.807 262.314 134.177 262.108 134.51C261.901 134.843 261.588 135.11 261.168 135.31C260.754 135.503 260.248 135.6 259.648 135.6C259.148 135.6 258.664 135.53 258.198 135.39C257.738 135.243 257.344 135.043 257.018 134.79L257.578 133.78C257.831 133.993 258.138 134.163 258.498 134.29C258.864 134.41 259.241 134.47 259.628 134.47C260.088 134.47 260.448 134.377 260.708 134.19C260.974 133.997 261.108 133.737 261.108 133.41C261.108 133.083 260.981 132.83 260.728 132.65C260.481 132.463 260.101 132.37 259.588 132.37H258.948V131.48L260.538 129.59H257.358V128.5H262.128V129.37L260.428 131.39Z" fill="#3D3A4D"/>
<path d="M280.728 67.7V74H279.558V68.681H278.226V67.7H280.728ZM284.84 70.112C285.254 70.112 285.626 70.193 285.956 70.355C286.286 70.511 286.544 70.736 286.73 71.03C286.916 71.324 287.009 71.663 287.009 72.047C287.009 72.455 286.907 72.815 286.703 73.127C286.499 73.433 286.223 73.67 285.875 73.838C285.527 74.006 285.137 74.09 284.705 74.09C283.841 74.09 283.169 73.82 282.689 73.28C282.215 72.74 281.978 71.966 281.978 70.958C281.978 70.25 282.107 69.647 282.365 69.149C282.623 68.645 282.983 68.264 283.445 68.006C283.913 67.742 284.453 67.61 285.065 67.61C285.389 67.61 285.692 67.646 285.974 67.718C286.262 67.784 286.511 67.883 286.721 68.015L286.289 68.897C285.977 68.693 285.578 68.591 285.092 68.591C284.486 68.591 284.012 68.777 283.67 69.149C283.328 69.521 283.157 70.058 283.157 70.76V70.769C283.343 70.553 283.58 70.391 283.868 70.283C284.156 70.169 284.48 70.112 284.84 70.112ZM284.642 73.172C285.008 73.172 285.305 73.076 285.533 72.884C285.761 72.686 285.875 72.425 285.875 72.101C285.875 71.771 285.761 71.51 285.533 71.318C285.305 71.126 284.999 71.03 284.615 71.03C284.237 71.03 283.928 71.132 283.688 71.336C283.454 71.54 283.337 71.798 283.337 72.11C283.337 72.416 283.451 72.671 283.679 72.875C283.913 73.073 284.234 73.172 284.642 73.172ZM288.322 70.634C288.118 70.634 287.944 70.565 287.8 70.427C287.656 70.283 287.584 70.103 287.584 69.887C287.584 69.665 287.653 69.485 287.791 69.347C287.935 69.209 288.112 69.14 288.322 69.14C288.532 69.14 288.706 69.209 288.844 69.347C288.988 69.485 289.06 69.665 289.06 69.887C289.06 70.103 288.988 70.283 288.844 70.427C288.7 70.565 288.526 70.634 288.322 70.634ZM288.322 74.063C288.118 74.063 287.944 73.994 287.8 73.856C287.656 73.712 287.584 73.532 287.584 73.316C287.584 73.094 287.653 72.914 287.791 72.776C287.935 72.638 288.112 72.569 288.322 72.569C288.532 72.569 288.706 72.638 288.844 72.776C288.988 72.914 289.06 73.094 289.06 73.316C289.06 73.532 288.988 73.712 288.844 73.856C288.7 73.994 288.526 74.063 288.322 74.063ZM292.446 74.09C291.942 74.09 291.492 73.964 291.096 73.712C290.7 73.454 290.388 73.082 290.16 72.596C289.932 72.104 289.818 71.522 289.818 70.85C289.818 70.178 289.932 69.599 290.16 69.113C290.388 68.621 290.7 68.249 291.096 67.997C291.492 67.739 291.942 67.61 292.446 67.61C292.95 67.61 293.4 67.739 293.796 67.997C294.198 68.249 294.513 68.621 294.741 69.113C294.969 69.599 295.083 70.178 295.083 70.85C295.083 71.522 294.969 72.104 294.741 72.596C294.513 73.082 294.198 73.454 293.796 73.712C293.4 73.964 292.95 74.09 292.446 74.09ZM292.446 73.073C292.896 73.073 293.25 72.887 293.508 72.515C293.772 72.143 293.904 71.588 293.904 70.85C293.904 70.112 293.772 69.557 293.508 69.185C293.25 68.813 292.896 68.627 292.446 68.627C292.002 68.627 291.648 68.813 291.384 69.185C291.126 69.557 290.997 70.112 290.997 70.85C290.997 71.588 291.126 72.143 291.384 72.515C291.648 72.887 292.002 73.073 292.446 73.073ZM298.007 67.7V74H296.837V68.681H295.505V67.7H298.007Z" fill="#E89A00"/>
<path d="M280.508 86C280.508 81.5817 284.089 78 288.508 78C292.926 78 296.508 81.5817 296.508 86V108H280.508V86Z" fill="#FBD051"/>
<text x="289" y="120" fill="#6D6A80" font-family="sans-serif" font-size="8" text-anchor="middle">WE</text>
<path d="M287.787 134.4V135.5H282.627V134.63L285.407 131.99C285.721 131.69 285.931 131.43 286.037 131.21C286.151 130.983 286.207 130.76 286.207 130.54C286.207 130.213 286.097 129.963 285.877 129.79C285.657 129.617 285.334 129.53 284.907 129.53C284.194 129.53 283.647 129.773 283.267 130.26L282.357 129.56C282.631 129.193 282.997 128.91 283.457 128.71C283.924 128.503 284.444 128.4 285.017 128.4C285.777 128.4 286.384 128.58 286.837 128.94C287.291 129.3 287.517 129.79 287.517 130.41C287.517 130.79 287.437 131.147 287.277 131.48C287.117 131.813 286.811 132.193 286.357 132.62L284.487 134.4H287.787ZM294.631 133.91H293.391V135.5H292.131V133.91H288.291V133.01L291.741 128.5H293.131L289.881 132.81H292.171V131.4H293.391V132.81H294.631V133.91Z" fill="#3D3A4D"/>
<path d="M313.66 28.7V29.483L311.212 35H309.961L312.328 29.69H309.853V30.761H308.764V28.7H313.66ZM316.835 35.09C316.331 35.09 315.881 34.964 315.485 34.712C315.089 34.454 314.777 34.082 314.549 33.596C314.321 33.104 314.207 32.522 314.207 31.85C314.207 31.178 314.321 30.599 314.549 30.113C314.777 29.621 315.089 29.249 315.485 28.997C315.881 28.739 316.331 28.61 316.835 28.61C317.339 28.61 317.789 28.739 318.185 28.997C318.587 29.249 318.902 29.621 319.13 30.113C319.358 30.599 319.472 31.178 319.472 31.85C319.472 32.522 319.358 33.104 319.13 33.596C318.902 34.082 318.587 34.454 318.185 34.712C317.789 34.964 317.339 35.09 316.835 35.09ZM316.835 34.073C317.285 34.073 317.639 33.887 317.897 33.515C318.161 33.143 318.293 32.588 318.293 31.85C318.293 31.112 318.161 30.557 317.897 30.185C317.639 29.813 317.285 29.627 316.835 29.627C316.391 29.627 316.037 29.813 315.773 30.185C315.515 30.557 315.386 31.112 315.386 31.85C315.386 32.588 315.515 33.143 315.773 33.515C316.037 33.887 316.391 34.073 316.835 34.073ZM320.965 31.634C320.761 31.634 320.587 31.565 320.443 31.427C320.299 31.283 320.227 31.103 320.227 30.887C320.227 30.665 320.296 30.485 320.434 30.347C320.578 30.209 320.755 30.14 320.965 30.14C321.175 30.14 321.349 30.209 321.487 30.347C321.631 30.485 321.703 30.665 321.703 30.887C321.703 31.103 321.631 31.283 321.487 31.427C321.343 31.565 321.169 31.634 320.965 31.634ZM320.965 35.063C320.761 35.063 320.587 34.994 320.443 34.856C320.299 34.712 320.227 34.532 320.227 34.316C320.227 34.094 320.296 33.914 320.434 33.776C320.578 33.638 320.755 33.569 320.965 33.569C321.175 33.569 321.349 33.638 321.487 33.776C321.631 33.914 321.703 34.094 321.703 34.316C321.703 34.532 321.631 34.712 321.487 34.856C321.343 34.994 321.169 35.063 320.965 35.063ZM325.088 35.09C324.584 35.09 324.134 34.964 323.738 34.712C323.342 34.454 323.03 34.082 322.802 33.596C322.574 33.104 322.46 32.522 322.46 31.85C322.46 31.178 322.574 30.599 322.802 30.113C323.03 29.621 323.342 29.249 323.738 28.997C324.134 28.739 324.584 28.61 325.088 28.61C325.592 28.61 326.042 28.739 326.438 28.997C326.84 29.249 327.155 29.621 327.383 30.113C327.611 30.599 327.725 31.178 327.725 31.85C327.725 32.522 327.611 33.104 327.383 33.596C327.155 34.082 326.84 34.454 326.438 34.712C326.042 34.964 325.592 35.09 325.088 35.09ZM325.088 34.073C325.538 34.073 325.892 33.887 326.15 33.515C326.414 33.143 326.546 32.588 326.546 31.85C326.546 31.112 326.414 30.557 326.15 30.185C325.892 29.813 325.538 29.627 325.088 29.627C324.644 29.627 324.29 29.813 324.026 30.185C323.768 30.557 323.639 31.112 323.639 31.85C323.639 32.588 323.768 33.143 324.026 33.515C324.29 33.887 324.644 34.073 325.088 34.073ZM330.65 28.7V35H329.48V29.681H328.148V28.7H330.65Z" fill="#24B36C"/>
<path d="M312.008 47C312.008 42.5817 315.589 39 320.008 39C324.426 39 328.008 42.5817 328.008 47V108H312.008V47Z" fill="#47CD8A"/>
<text x="320" y="120" fill="#6D6A80" font-family="sans-serif" font-size="8" text-anchor="middle">TH</text>
<path d="M319.688 134.4V135.5H314.528V134.63L317.308 131.99C317.621 131.69 317.831 131.43 317.938 131.21C318.051 130.983 318.108 130.76 318.108 130.54C318.108 130.213 317.998 129.963 317.778 129.79C317.558 129.617 317.234 129.53 316.808 129.53C316.094 129.53 315.548 129.773 315.168 130.26L314.258 129.56C314.531 129.193 314.898 128.91 315.358 128.71C315.824 128.503 316.344 128.4 316.918 128.4C317.678 128.4 318.284 128.58 318.738 128.94C319.191 129.3 319.418 129.79 319.418 130.41C319.418 130.79 319.338 131.147 319.178 131.48C319.018 131.813 318.711 132.193 318.258 132.62L316.388 134.4H319.688ZM322.628 131.21C323.615 131.21 324.345 131.403 324.818 131.79C325.291 132.17 325.528 132.69 325.528 133.35C325.528 133.77 325.425 134.15 325.218 134.49C325.011 134.83 324.701 135.1 324.288 135.3C323.875 135.5 323.365 135.6 322.758 135.6C322.258 135.6 321.775 135.53 321.308 135.39C320.841 135.243 320.448 135.043 320.128 134.79L320.678 133.78C320.938 133.993 321.248 134.163 321.608 134.29C321.975 134.41 322.351 134.47 322.738 134.47C323.198 134.47 323.558 134.377 323.818 134.19C324.085 133.997 324.218 133.733 324.218 133.4C324.218 133.04 324.075 132.77 323.788 132.59C323.508 132.403 323.025 132.31 322.338 132.31H320.648L321.008 128.5H325.118V129.59H322.108L321.958 131.21H322.628Z" fill="#3D3A4D"/>
<path d="M343.465 84.7V91H342.295V85.681H340.963V84.7H343.465ZM350.33 89.569H349.214V91H348.08V89.569H344.624V88.759L347.729 84.7H348.98L346.055 88.579H348.116V87.31H349.214V88.579H350.33V89.569ZM351.586 87.634C351.382 87.634 351.208 87.565 351.064 87.427C350.92 87.283 350.848 87.103 350.848 86.887C350.848 86.665 350.917 86.485 351.055 86.347C351.199 86.209 351.376 86.14 351.586 86.14C351.796 86.14 351.97 86.209 352.108 86.347C352.252 86.485 352.324 86.665 352.324 86.887C352.324 87.103 352.252 87.283 352.108 87.427C351.964 87.565 351.79 87.634 351.586 87.634ZM351.586 91.063C351.382 91.063 351.208 90.994 351.064 90.856C350.92 90.712 350.848 90.532 350.848 90.316C350.848 90.094 350.917 89.914 351.055 89.776C351.199 89.638 351.376 89.569 351.586 89.569C351.796 89.569 351.97 89.638 352.108 89.776C352.252 89.914 352.324 90.094 352.324 90.316C352.324 90.532 352.252 90.712 352.108 90.856C351.964 90.994 351.79 91.063 351.586 91.063ZM355.709 91.09C355.205 91.09 354.755 90.964 354.359 90.712C353.963 90.454 353.651 90.082 353.423 89.596C353.195 89.104 353.081 88.522 353.081 87.85C353.081 87.178 353.195 86.599 353.423 86.113C353.651 85.621 353.963 85.249 354.359 84.997C354.755 84.739 355.205 84.61 355.709 84.61C356.213 84.61 356.663 84.739 357.059 84.997C357.461 85.249 357.776 85.621 358.004 86.113C358.232 86.599 358.346 87.178 358.346 87.85C358.346 88.522 358.232 89.104 358.004 89.596C357.776 90.082 357.461 90.454 357.059 90.712C356.663 90.964 356.213 91.09 355.709 91.09ZM355.709 90.073C356.159 90.073 356.513 89.887 356.771 89.515C357.035 89.143 357.167 88.588 357.167 87.85C357.167 87.112 357.035 86.557 356.771 86.185C356.513 85.813 356.159 85.627 355.709 85.627C355.265 85.627 354.911 85.813 354.647 86.185C354.389 86.557 354.26 87.112 354.26 87.85C354.26 88.588 354.389 89.143 354.647 89.515C354.911 89.887 355.265 90.073 355.709 90.073ZM361.271 84.7V91H360.101V85.681H358.769V84.7H361.271Z" fill="#E65C73"/>
<path d="M343.508 103C343.508 98.5817 347.089 95 351.508 95C355.926 95 359.508 98.5817 359.508 103V108H343.508V103Z" fill="#F38698"/>
<text x="351.5" y="120" fill="#6D6A80" font-family="sans-serif" font-size="8" text-anchor="middle">FR</text>
<path d="M350.987 134.4V135.5H345.827V134.63L348.607 131.99C348.921 131.69 349.131 131.43 349.237 131.21C349.351 130.983 349.407 130.76 349.407 130.54C349.407 130.213 349.297 129.963 349.077 129.79C348.857 129.617 348.534 129.53 348.107 129.53C347.394 129.53 346.847 129.773 346.467 130.26L345.557 129.56C345.831 129.193 346.197 128.91 346.657 128.71C347.124 128.503 347.644 128.4 348.217 128.4C348.977 128.4 349.584 128.58 350.037 128.94C350.491 129.3 350.717 129.79 350.717 130.41C350.717 130.79 350.637 131.147 350.477 131.48C350.317 131.813 350.011 132.193 349.557 132.62L347.687 134.4H350.987ZM354.888 131.18C355.348 131.18 355.762 131.27 356.128 131.45C356.495 131.623 356.782 131.873 356.988 132.2C357.195 132.527 357.298 132.903 357.298 133.33C357.298 133.783 357.185 134.183 356.958 134.53C356.732 134.87 356.425 135.133 356.038 135.32C355.652 135.507 355.218 135.6 354.738 135.6C353.778 135.6 353.032 135.3 352.498 134.7C351.972 134.1 351.708 133.24 351.708 132.12C351.708 131.333 351.852 130.663 352.138 130.11C352.425 129.55 352.825 129.127 353.338 128.84C353.858 128.547 354.458 128.4 355.138 128.4C355.498 128.4 355.835 128.44 356.148 128.52C356.468 128.593 356.745 128.703 356.978 128.85L356.498 129.83C356.152 129.603 355.708 129.49 355.168 129.49C354.495 129.49 353.968 129.697 353.588 130.11C353.208 130.523 353.018 131.12 353.018 131.9V131.91C353.225 131.67 353.488 131.49 353.808 131.37C354.128 131.243 354.488 131.18 354.888 131.18ZM354.668 134.58C355.075 134.58 355.405 134.473 355.658 134.26C355.912 134.04 356.038 133.75 356.038 133.39C356.038 133.023 355.912 132.733 355.658 132.52C355.405 132.307 355.065 132.2 354.638 132.2C354.218 132.2 353.875 132.313 353.608 132.54C353.348 132.767 353.218 133.053 353.218 133.4C353.218 133.74 353.345 134.023 353.598 134.25C353.858 134.47 354.215 134.58 354.668 134.58Z" fill="#3D3A4D"/>
<path d="M375.051 66.301C375.633 66.373 376.077 66.571 376.383 66.895C376.689 67.219 376.842 67.624 376.842 68.11C376.842 68.476 376.749 68.809 376.563 69.109C376.377 69.409 376.095 69.649 375.717 69.829C375.345 70.003 374.889 70.09 374.349 70.09C373.899 70.09 373.464 70.027 373.044 69.901C372.63 69.769 372.276 69.589 371.982 69.361L372.486 68.452C372.714 68.644 372.99 68.797 373.314 68.911C373.644 69.019 373.983 69.073 374.331 69.073C374.745 69.073 375.069 68.989 375.303 68.821C375.543 68.647 375.663 68.413 375.663 68.119C375.663 67.825 375.549 67.597 375.321 67.435C375.099 67.267 374.757 67.183 374.295 67.183H373.719V66.382L375.15 64.681H372.288V63.7H376.581V64.483L375.051 66.301ZM380.245 66.301C380.827 66.373 381.271 66.571 381.577 66.895C381.883 67.219 382.036 67.624 382.036 68.11C382.036 68.476 381.943 68.809 381.757 69.109C381.571 69.409 381.289 69.649 380.911 69.829C380.539 70.003 380.083 70.09 379.543 70.09C379.093 70.09 378.658 70.027 378.238 69.901C377.824 69.769 377.47 69.589 377.176 69.361L377.68 68.452C377.908 68.644 378.184 68.797 378.508 68.911C378.838 69.019 379.177 69.073 379.525 69.073C379.939 69.073 380.263 68.989 380.497 68.821C380.737 68.647 380.857 68.413 380.857 68.119C380.857 67.825 380.743 67.597 380.515 67.435C380.293 67.267 379.951 67.183 379.489 67.183H378.913V66.382L380.344 64.681H377.482V63.7H381.775V64.483L380.245 66.301ZM383.504 66.634C383.3 66.634 383.126 66.565 382.982 66.427C382.838 66.283 382.766 66.103 382.766 65.887C382.766 65.665 382.835 65.485 382.973 65.347C383.117 65.209 383.294 65.14 383.504 65.14C383.714 65.14 383.888 65.209 384.026 65.347C384.17 65.485 384.242 65.665 384.242 65.887C384.242 66.103 384.17 66.283 384.026 66.427C383.882 66.565 383.708 66.634 383.504 66.634ZM383.504 70.063C383.3 70.063 383.126 69.994 382.982 69.856C382.838 69.712 382.766 69.532 382.766 69.316C382.766 69.094 382.835 68.914 382.973 68.776C383.117 68.638 383.294 68.569 383.504 68.569C383.714 68.569 383.888 68.638 384.026 68.776C384.17 68.914 384.242 69.094 384.242 69.316C384.242 69.532 384.17 69.712 384.026 69.856C383.882 69.994 383.708 70.063 383.504 70.063ZM387.627 70.09C387.123 70.09 386.673 69.964 386.277 69.712C385.881 69.454 385.569 69.082 385.341 68.596C385.113 68.104 384.999 67.522 384.999 66.85C384.999 66.178 385.113 65.599 385.341 65.113C385.569 64.621 385.881 64.249 386.277 63.997C386.673 63.739 387.123 63.61 387.627 63.61C388.131 63.61 388.581 63.739 388.977 63.997C389.379 64.249 389.694 64.621 389.922 65.113C390.15 65.599 390.264 66.178 390.264 66.85C390.264 67.522 390.15 68.104 389.922 68.596C389.694 69.082 389.379 69.454 388.977 69.712C388.581 69.964 388.131 70.09 387.627 70.09ZM387.627 69.073C388.077 69.073 388.431 68.887 388.689 68.515C388.953 68.143 389.085 67.588 389.085 66.85C389.085 66.112 388.953 65.557 388.689 65.185C388.431 64.813 388.077 64.627 387.627 64.627C387.183 64.627 386.829 64.813 386.565 65.185C386.307 65.557 386.178 66.112 386.178 66.85C386.178 67.588 386.307 68.143 386.565 68.515C386.829 68.887 387.183 69.073 387.627 69.073ZM393.189 63.7V70H392.019V64.681H390.687V63.7H393.189Z" fill="#24B36C"/>
<path d="M375.008 82C375.008 77.5817 378.589 74 383.008 74C387.426 74 391.008 77.5817 391.008 82V108H375.008V82Z" fill="#47CD8A"/>
<text x="383" y="120" fill="#6D6A80" font-family="sans-serif" font-size="8" text-anchor="middle">SA</text>
<path d="M382.58 134.4V135.5H377.42V134.63L380.2 131.99C380.514 131.69 380.724 131.43 380.83 131.21C380.944 130.983 381 130.76 381 130.54C381 130.213 380.89 129.963 380.67 129.79C380.45 129.617 380.127 129.53 379.7 129.53C378.987 129.53 378.44 129.773 378.06 130.26L377.15 129.56C377.424 129.193 377.79 128.91 378.25 128.71C378.717 128.503 379.237 128.4 379.81 128.4C380.57 128.4 381.177 128.58 381.63 128.94C382.084 129.3 382.31 129.79 382.31 130.41C382.31 130.79 382.23 131.147 382.07 131.48C381.91 131.813 381.604 132.193 381.15 132.62L379.28 134.4H382.58ZM388.581 128.5V129.37L385.861 135.5H384.471L387.101 129.6H384.351V130.79H383.141V128.5H388.581Z" fill="#3D3A4D"/>
<path d="M408.685 100.09C408.181 100.09 407.731 99.964 407.335 99.712C406.939 99.454 406.627 99.082 406.399 98.596C406.171 98.104 406.057 97.522 406.057 96.85C406.057 96.178 406.171 95.599 406.399 95.113C406.627 94.621 406.939 94.249 407.335 93.997C407.731 93.739 408.181 93.61 408.685 93.61C409.189 93.61 409.639 93.739 410.035 93.997C410.437 94.249 410.752 94.621 410.98 95.113C411.208 95.599 411.322 96.178 411.322 96.85C411.322 97.522 411.208 98.104 410.98 98.596C410.752 99.082 410.437 99.454 410.035 99.712C409.639 99.964 409.189 100.09 408.685 100.09ZM408.685 99.073C409.135 99.073 409.489 98.887 409.747 98.515C410.011 98.143 410.143 97.588 410.143 96.85C410.143 96.112 410.011 95.557 409.747 95.185C409.489 94.813 409.135 94.627 408.685 94.627C408.241 94.627 407.887 94.813 407.623 95.185C407.365 95.557 407.236 96.112 407.236 96.85C407.236 97.588 407.365 98.143 407.623 98.515C407.887 98.887 408.241 99.073 408.685 99.073ZM412.815 96.634C412.611 96.634 412.437 96.565 412.293 96.427C412.149 96.283 412.077 96.103 412.077 95.887C412.077 95.665 412.146 95.485 412.284 95.347C412.428 95.209 412.605 95.14 412.815 95.14C413.025 95.14 413.199 95.209 413.337 95.347C413.481 95.485 413.553 95.665 413.553 95.887C413.553 96.103 413.481 96.283 413.337 96.427C413.193 96.565 413.019 96.634 412.815 96.634ZM412.815 100.063C412.611 100.063 412.437 99.994 412.293 99.856C412.149 99.712 412.077 99.532 412.077 99.316C412.077 99.094 412.146 98.914 412.284 98.776C412.428 98.638 412.605 98.569 412.815 98.569C413.025 98.569 413.199 98.638 413.337 98.776C413.481 98.914 413.553 99.094 413.553 99.316C413.553 99.532 413.481 99.712 413.337 99.856C413.193 99.994 413.019 100.063 412.815 100.063ZM416.938 100.09C416.434 100.09 415.984 99.964 415.588 99.712C415.192 99.454 414.88 99.082 414.652 98.596C414.424 98.104 414.31 97.522 414.31 96.85C414.31 96.178 414.424 95.599 414.652 95.113C414.88 94.621 415.192 94.249 415.588 93.997C415.984 93.739 416.434 93.61 416.938 93.61C417.442 93.61 417.892 93.739 418.288 93.997C418.69 94.249 419.005 94.621 419.233 95.113C419.461 95.599 419.575 96.178 419.575 96.85C419.575 97.522 419.461 98.104 419.233 98.596C419.005 99.082 418.69 99.454 418.288 99.712C417.892 99.964 417.442 100.09 416.938 100.09ZM416.938 99.073C417.388 99.073 417.742 98.887 418 98.515C418.264 98.143 418.396 97.588 418.396 96.85C418.396 96.112 418.264 95.557 418 95.185C417.742 94.813 417.388 94.627 416.938 94.627C416.494 94.627 416.14 94.813 415.876 95.185C415.618 95.557 415.489 96.112 415.489 96.85C415.489 97.588 415.618 98.143 415.876 98.515C416.14 98.887 416.494 99.073 416.938 99.073ZM422.5 93.7V100H421.33V94.681H419.998V93.7H422.5Z" fill="#E65C73"/>
<path d="M406.508 108C406.508 105.791 408.299 104 410.508 104H418.508C420.717 104 422.508 105.791 422.508 108H406.508Z" fill="#F38698"/>
<text x="414.5" y="120" fill="#6D6A80" font-family="sans-serif" font-size="8" text-anchor="middle">SU</text>
<path d="M413.846 134.4V135.5H408.686V134.63L411.466 131.99C411.779 131.69 411.989 131.43 412.096 131.21C412.209 130.983 412.266 130.76 412.266 130.54C412.266 130.213 412.156 129.963 411.936 129.79C411.716 129.617 411.392 129.53 410.966 129.53C410.252 129.53 409.706 129.773 409.326 130.26L408.416 129.56C408.689 129.193 409.056 128.91 409.516 128.71C409.982 128.503 410.502 128.4 411.076 128.4C411.836 128.4 412.442 128.58 412.896 128.94C413.349 129.3 413.576 129.79 413.576 130.41C413.576 130.79 413.496 131.147 413.336 131.48C413.176 131.813 412.869 132.193 412.416 132.62L410.546 134.4H413.846ZM419.136 131.82C419.503 131.987 419.783 132.213 419.976 132.5C420.176 132.78 420.276 133.11 420.276 133.49C420.276 133.917 420.156 134.29 419.916 134.61C419.683 134.93 419.349 135.177 418.916 135.35C418.483 135.517 417.979 135.6 417.406 135.6C416.833 135.6 416.329 135.517 415.896 135.35C415.469 135.177 415.139 134.93 414.906 134.61C414.673 134.29 414.556 133.917 414.556 133.49C414.556 133.11 414.653 132.78 414.846 132.5C415.039 132.213 415.316 131.987 415.676 131.82C415.396 131.667 415.179 131.467 415.026 131.22C414.879 130.967 414.806 130.677 414.806 130.35C414.806 129.957 414.913 129.613 415.126 129.32C415.346 129.027 415.653 128.8 416.046 128.64C416.439 128.48 416.893 128.4 417.406 128.4C417.926 128.4 418.383 128.48 418.776 128.64C419.169 128.8 419.476 129.027 419.696 129.32C419.916 129.613 420.026 129.957 420.026 130.35C420.026 130.677 419.949 130.963 419.796 131.21C419.643 131.457 419.423 131.66 419.136 131.82ZM417.406 129.42C416.999 129.42 416.676 129.507 416.436 129.68C416.203 129.853 416.086 130.097 416.086 130.41C416.086 130.71 416.203 130.95 416.436 131.13C416.676 131.303 416.999 131.39 417.406 131.39C417.819 131.39 418.146 131.303 418.386 131.13C418.626 130.95 418.746 130.71 418.746 130.41C418.746 130.097 418.623 129.853 418.376 129.68C418.136 129.507 417.813 129.42 417.406 129.42ZM417.406 134.58C417.886 134.58 418.266 134.48 418.546 134.28C418.826 134.08 418.966 133.803 418.966 133.45C418.966 133.103 418.826 132.83 418.546 132.63C418.266 132.43 417.886 132.33 417.406 132.33C416.926 132.33 416.549 132.43 416.276 132.63C416.003 132.83 415.866 133.103 415.866 133.45C415.866 133.803 416.003 134.08 416.276 134.28C416.549 134.48 416.926 134.58 417.406 134.58Z" fill="#3D3A4D"/>
<path d="M190.008 108L452.008 108" stroke="#6D6A80" stroke-linecap="round"/>
<text fill="#6D6A80" font-family="sans-serif" font-size="11" font-style="italic">
  <tspan x="55" y="80">Exercised less</tspan>
  <tspan x="55" y="92">than necessary</tspan>
</text>

<text fill="#6D6A80" font-family="sans-serif" font-size="11" font-style="italic">
  <tspan x="470" y="68">Line at</tspan>
  <tspan x="465" y="80">20 min level</tspan>
</text>

<text fill="#6D6A80" font-family="sans-serif" font-size="11" font-style="italic">
  <tspan x="55" y="22">Exercised more</tspan>
  <tspan x="65" y="34">than 20 min</tspan>
</text>

<path d="M239.831 47.4883C240.1 47.5476 240.367 47.377 240.426 47.1073L241.392 42.7122C241.451 42.4425 241.281 42.1758 241.011 42.1165C240.741 42.0572 240.475 42.2278 240.415 42.4975L239.557 46.4043L235.65 45.5459C235.38 45.4866 235.114 45.6572 235.054 45.9269C234.995 46.1966 235.166 46.4633 235.436 46.5226L239.831 47.4883ZM174.295 17.0649C190.39 17.065 203.042 18.9212 213.49 23.6136C223.925 28.3004 232.202 35.8355 239.517 47.2694L240.359 46.7306C232.96 35.1645 224.544 27.4821 213.9 22.7014C203.268 17.9263 190.455 16.065 174.295 16.0649L174.295 17.0649Z" fill="#A5A2B8"/>
<path d="M467.038 74.893C466.843 75.0777 466.857 75.3773 467.072 75.5621L470.561 78.5734C470.775 78.7582 471.107 78.7582 471.303 78.5734C471.499 78.3886 471.484 78.089 471.27 77.9042L468.169 75.2275L471.006 72.5509C471.202 72.3661 471.187 72.0665 470.973 71.8817C470.759 71.6969 470.426 71.6969 470.23 71.8817L467.038 74.893ZM523.041 56.1868C510.161 70.0407 491.101 74.7543 467.403 74.7544L467.45 75.7007C491.287 75.7007 510.707 70.9591 523.859 56.813L523.041 56.1868Z" fill="#A5A2B8"/>
<path d="M197.85 97.8536C198.045 97.6583 198.045 97.3417 197.85 97.1465L194.668 93.9645C194.472 93.7692 194.156 93.7692 193.961 93.9645C193.765 94.1597 193.765 94.4763 193.961 94.6716L196.789 97.5L193.961 100.328C193.765 100.524 193.765 100.84 193.961 101.036C194.156 101.231 194.472 101.231 194.668 101.036L197.85 97.8536ZM150.218 82.8932C160.495 90.9642 178.147 98 197.496 98V97C178.365 97 160.932 90.0358 150.836 82.1068L150.218 82.8932Z" fill="#A5A2B8"/>
</svg>
