<svg xmlns="http://www.w3.org/2000/svg" width="151.41" height="60.404" viewBox="0 0 151.41 60.404"><path fill="#C6C5C5" d="M34.173 58.087l-29.73 2.317L0 15.524l2.363-.187c1.302-.102 2.255-1.304 2.12-2.672l-.23-2.312A2.443 2.443 0 0 1 6.5 7.67l16.4-1.273a2.57 2.57 0 0 1 2.74 2.292l.227 2.31.247 2.49 8.405-.656 31.083.477 3.104 37.554-5.657 4.976-28.877 2.247z"/><path fill="#066BC6" d="M45.646 0L8.576 19.285l-3.98 41.12 36.918-2.9 20.76-1.63 13.27-1.04 3.976-41.118z"/><path fill="#FFF" d="M28.32 43.704l-4.228-6.888h-3.44v6.888h-4.126V24.32h9.068c4.04 0 6.51 2.645 6.51 6.248 0 3.43-1.733 5.26-3.825 5.755l4.776 7.38H28.32zm-.43-13.137c0-1.627-1.25-2.615-2.905-2.615h-4.33v5.23h4.33c1.655 0 2.906-.986 2.906-2.615zM35.634 43.704V24.32h13.72v3.633H39.76v4.097h8.555v3.633H39.76v4.39h9.593v3.632h-13.72zM51.65 34.026C51.65 27.894 56.3 24 61.968 24c4.04 0 6.57 2.033 8.022 4.33l-3.43 1.86c-.87-1.366-2.527-2.53-4.592-2.53-3.518 0-6.075 2.704-6.075 6.366s2.558 6.365 6.075 6.365c1.715 0 3.344-.756 4.127-1.482v-2.07H60.98v-3.653h9.24v7.236c-1.975 2.21-4.735 3.663-8.252 3.663-5.667 0-10.318-3.953-10.318-10.057z"/><g><path d="M80.278 41.67c0-1.278 1.076-2.355 2.354-2.355 1.28 0 2.354 1.075 2.354 2.354 0 1.278-1.073 2.353-2.354 2.353-1.278 0-2.354-1.074-2.354-2.354zM100.065 43.704l-4.642-6.888H92.4v6.888h-4.127V24.32h9.068c4.04 0 6.512 2.645 6.512 6.248 0 3.43-2.15 5.26-4.243 5.755l5.192 7.38h-4.737zm-.426-13.137c0-1.627-1.253-2.615-2.91-2.615H92.4v5.23h4.33c1.657 0 2.91-.986 2.91-2.615zM106.964 35.973V24.32h4.186v11.507c0 2.705 1.152 4.564 4.146 4.564 2.992 0 4.115-1.858 4.115-4.563V24.32h4.218v11.624c0 4.825-2.435 8.11-8.332 8.11-5.902-.002-8.332-3.314-8.332-8.08z"/></g></svg>