<?xml version="1.0" standalone="no"?>
<!DOCTYPE svg PUBLIC "-//W3C//DTD SVG 20010904//EN"
 "http://www.w3.org/TR/2001/REC-SVG-20010904/DTD/svg10.dtd">
<svg version="1.0" xmlns="http://www.w3.org/2000/svg"
 width="512.000000pt" height="512.000000pt" viewBox="0 0 512.000000 512.000000"
 preserveAspectRatio="xMidYMid meet">
<metadata>
Created by potrace 1.11, written by Peter Selinger 2001-2013
</metadata>
<g transform="translate(0.000000,512.000000) scale(0.100000,-0.100000)"
fill="#000000" stroke="none">
<path d="M1623 5104 c-313 -68 -575 -304 -671 -604 -36 -113 -45 -182 -40
-323 3 -72 9 -140 13 -149 5 -12 3 -18 -7 -18 -8 0 -52 -18 -98 -41 -323 -156
-510 -453 -510 -809 0 -206 60 -384 182 -547 l40 -53 -47 -62 c-126 -168 -181
-352 -172 -575 9 -235 84 -414 247 -586 76 -81 216 -177 306 -209 49 -17 63
-27 58 -38 -4 -8 -9 -76 -12 -150 -3 -101 0 -155 12 -213 35 -169 114 -323
230 -444 180 -190 395 -283 656 -283 173 0 321 41 473 131 68 40 223 182 261
239 l16 24 17 -24 c34 -49 149 -163 208 -205 158 -113 326 -165 529 -165 304
0 579 149 747 404 112 170 155 324 146 531 -3 71 -9 140 -12 153 -5 16 -3 22
7 22 27 0 183 82 250 131 224 166 358 432 358 711 0 223 -55 380 -206 586 -15
20 -15 24 0 45 148 200 206 362 206 573 0 358 -194 662 -522 819 -40 19 -79
35 -86 35 -10 0 -12 6 -7 23 4 12 9 79 12 148 4 96 1 147 -12 210 -72 359
-350 639 -708 715 -89 18 -266 18 -357 -1 -94 -20 -204 -63 -293 -116 -68 -40
-223 -182 -261 -239 l-16 -24 -17 24 c-34 49 -149 163 -208 205 -105 75 -215
122 -348 150 -85 18 -280 18 -364 -1z m263 -295 c102 -14 169 -40 260 -101 82
-55 151 -132 195 -220 59 -116 62 -141 67 -525 l4 -353 231 0 c204 0 237 -3
273 -19 83 -38 111 -111 72 -189 -43 -86 -45 -87 -329 -90 l-249 -3 0 -300 0
-299 -149 0 -149 0 -4 133 c-3 124 -5 136 -35 199 -43 91 -77 133 -147 185
-84 62 -171 86 -289 81 -77 -3 -103 -9 -159 -35 -90 -42 -133 -76 -185 -146
-62 -84 -83 -162 -83 -303 l0 -114 -194 0 -194 0 -53 58 c-105 112 -152 239
-152 402 1 284 160 487 440 561 60 16 120 22 266 26 l187 6 0 148 0 149 -140
0 c-77 0 -140 3 -140 8 0 4 -5 40 -10 80 -11 86 1 198 32 279 30 81 112 197
176 249 106 86 209 126 369 143 6 0 46 -4 89 -10z m1500 0 c100 -14 166 -39
256 -98 118 -76 202 -193 244 -336 19 -64 24 -190 11 -267 l-8 -48 -140 0
-139 0 0 -150 0 -150 148 0 c288 -1 466 -62 602 -207 100 -106 144 -228 144
-393 -1 -152 -54 -292 -152 -398 l-48 -52 -347 0 -347 0 0 -227 c0 -126 -5
-245 -10 -265 -13 -46 -66 -93 -115 -102 -45 -9 -118 24 -149 67 -20 27 -21
45 -24 278 l-3 249 -300 0 -299 0 0 149 0 149 133 4 c124 3 136 5 199 35 91
43 133 77 185 147 62 84 86 171 81 289 -3 77 -9 103 -35 159 -42 90 -76 133
-146 185 -84 62 -162 83 -303 83 l-114 0 0 154 c0 262 22 357 112 492 71 107
185 193 308 233 30 9 113 24 167 30 6 0 46 -4 89 -10z m-1666 -1821 c84 -44
85 -45 88 -329 l3 -249 300 0 299 0 0 -149 0 -149 -132 -4 c-125 -3 -137 -5
-200 -35 -91 -43 -133 -77 -185 -147 -62 -84 -86 -171 -81 -289 3 -77 9 -103
35 -159 42 -90 76 -133 146 -185 84 -62 162 -83 303 -83 l114 0 0 -154 c0
-262 -22 -357 -112 -492 -124 -185 -344 -284 -564 -253 -102 14 -169 40 -260
101 -192 129 -289 360 -250 601 l7 47 140 0 139 0 0 149 0 149 -182 5 c-147 4
-198 9 -258 26 -237 69 -393 218 -440 420 -16 68 -16 220 -1 286 20 83 78 190
137 255 l56 60 344 0 344 0 0 233 c0 204 3 237 19 272 21 47 48 73 87 85 45
13 57 12 104 -12z m1292 -710 c3 -125 5 -137 35 -200 43 -91 77 -133 147 -185
84 -62 171 -86 290 -81 83 3 102 8 168 41 94 46 176 129 221 224 30 64 32 76
35 201 l4 132 196 0 196 0 48 -52 c100 -108 152 -248 152 -403 -1 -240 -101
-413 -293 -510 -123 -61 -200 -77 -413 -82 l-188 -5 0 -149 0 -149 139 0 140
0 8 -47 c42 -248 -73 -503 -282 -624 -158 -91 -348 -109 -512 -47 -132 49
-260 164 -324 290 -59 116 -62 141 -67 526 l-4 352 -231 0 c-204 0 -237 3
-273 19 -83 38 -111 111 -72 189 43 86 45 87 329 90 l249 3 0 300 0 299 149 0
149 0 4 -132z"/>
</g>
</svg>
