<?xml version="1.0" standalone="no"?>
<!DOCTYPE svg PUBLIC "-//W3C//DTD SVG 20010904//EN"
 "http://www.w3.org/TR/2001/REC-SVG-20010904/DTD/svg10.dtd">
<svg version="1.0" xmlns="http://www.w3.org/2000/svg"
 width="588.000000pt" height="588.000000pt" viewBox="0 0 588.000000 588.000000"
 preserveAspectRatio="xMidYMid meet">
<metadata>
Created by potrace 1.11, written by Peter Selinger 2001-2013
</metadata>
<g transform="translate(0.000000,588.000000) scale(0.100000,-0.100000)"
fill="#000000" stroke="none">
<path d="M2675 5744 c-504 -52 -969 -215 -1367 -480 -725 -482 -1178 -1234
-1259 -2089 -14 -155 -7 -475 15 -623 91 -609 362 -1150 795 -1583 883 -883
2239 -1108 3376 -560 311 150 577 342 816 587 414 427 669 940 765 1541 21
132 30 506 15 657 -93 948 -666 1785 -1525 2227 -304 156 -590 248 -946 304
-101 16 -583 29 -685 19z m-130 -549 c171 -45 295 -180 325 -355 8 -46 10
-483 8 -1505 l-3 -1440 -24 -60 c-31 -77 -105 -156 -174 -186 -33 -14 -80 -24
-128 -27 -213 -13 -396 125 -434 329 l-6 34 -97 0 c-77 1 -109 6 -155 24 -77
30 -149 102 -172 172 -22 65 -16 154 14 205 l21 35 -45 -7 c-90 -13 -172 41
-196 129 -14 52 0 104 41 151 l30 33 -41 7 c-57 9 -127 47 -171 93 -112 115
-132 335 -42 443 27 32 25 34 -29 44 -47 9 -104 58 -128 111 -36 78 -14 186
46 233 l27 21 -38 33 c-78 69 -106 199 -67 313 20 60 93 136 143 151 39 11 39
13 20 109 -23 117 11 233 97 326 87 94 202 149 310 149 l55 0 -7 31 c-25 115
100 240 239 238 34 0 70 -4 81 -8 16 -7 29 2 68 45 109 122 273 170 432 129z
m1011 1 c79 -21 150 -64 208 -126 41 -45 56 -55 71 -49 38 15 139 9 181 -10
95 -43 153 -130 140 -210 l-6 -38 74 -5 c97 -6 186 -48 267 -124 122 -117 155
-251 103 -426 -3 -12 5 -19 30 -28 19 -6 54 -29 79 -50 116 -102 122 -307 13
-408 l-44 -40 29 -28 c110 -106 61 -297 -88 -340 l-53 -15 30 -37 c62 -78 72
-201 27 -322 -39 -105 -172 -210 -265 -210 -24 0 -24 -1 11 -39 64 -71 59
-164 -14 -233 -43 -41 -107 -58 -158 -40 l-29 10 24 -51 c66 -142 2 -292 -156
-366 -48 -22 -68 -26 -157 -26 l-101 0 -7 -42 c-17 -112 -112 -229 -233 -286
-62 -30 -75 -32 -172 -32 -122 0 -169 16 -244 85 -57 53 -92 124 -106 215 -7
47 -10 529 -8 1495 l3 1425 23 64 c67 184 225 299 417 300 33 1 83 -5 111 -13z
m-1901 -3647 c88 -39 127 -96 128 -188 0 -63 -16 -102 -62 -145 l-31 -29 34
-23 c58 -40 86 -124 66 -201 -16 -67 -53 -111 -119 -142 -50 -23 -68 -26 -173
-26 -64 0 -120 3 -124 8 -4 4 -8 175 -8 380 l-1 372 40 7 c61 10 216 2 250
-13z m2328 -60 c13 -114 1 -453 -18 -524 -18 -67 -55 -120 -106 -150 -51 -30
-159 -27 -217 5 -87 49 -112 136 -112 401 0 97 3 210 6 252 l7 77 78 0 78 0
-2 -267 c-1 -148 1 -280 6 -295 9 -33 40 -52 68 -43 45 15 52 60 52 347 l-1
267 67 4 c36 1 71 2 76 2 6 -1 14 -35 18 -76z m-1266 6 c67 -77 -12 -178 -112
-145 -56 18 -79 78 -51 129 32 57 121 66 163 16z m-589 -191 c27 -19 27 -20 2
-106 -21 -67 -21 -68 -43 -53 -30 21 -44 19 -72 -10 -24 -23 -25 -28 -25 -175
l0 -150 -69 0 -69 0 -7 113 c-3 61 -5 173 -3 247 l3 135 73 3 c66 3 72 1 72
-17 0 -19 2 -19 25 4 28 29 79 33 113 9z m292 -3 c23 -12 44 -36 60 -67 23
-45 25 -60 28 -220 5 -211 4 -214 -79 -214 -42 0 -61 4 -65 14 -4 12 -10 11
-36 -1 -20 -10 -47 -14 -79 -11 -111 11 -160 130 -97 235 28 47 67 71 146 91
64 16 68 19 61 40 -11 30 -47 36 -100 17 -82 -30 -76 -32 -84 25 -5 40 -4 56
7 67 43 43 178 57 238 24z m669 4 c17 -8 39 -34 52 -62 22 -44 24 -62 27 -237
2 -103 0 -192 -5 -196 -4 -4 -38 -5 -75 -2 l-67 4 -3 169 c-3 187 -10 208 -62
195 l-26 -6 0 -179 c0 -203 6 -191 -91 -191 l-59 0 0 255 0 255 70 0 c57 0 70
-3 70 -16 0 -13 5 -12 26 5 32 25 101 28 143 6z m1091 -7 c0 -20 1 -20 19 -4
25 23 82 31 123 17 74 -25 116 -101 125 -231 9 -125 -32 -226 -108 -265 -33
-17 -102 -20 -130 -5 -18 10 -19 6 -19 -100 l0 -111 -72 3 -73 3 -3 352 -2
352 32 4 c88 11 108 8 108 -15z m-1499 2 l39 0 0 -239 c0 -132 -3 -242 -7
-244 -5 -3 -38 -8 -75 -12 l-68 -7 0 249 c0 137 3 253 7 257 5 4 21 5 37 2 16
-3 46 -6 67 -6z m779 -160 l0 -70 -119 0 -118 0 -7 46 c-11 84 -12 83 47 87
28 2 85 4 125 5 l72 2 0 -70z"/>
<path d="M1520 1340 c0 -89 0 -90 24 -90 14 0 37 11 53 24 22 19 28 32 28 66
0 34 -6 47 -28 66 -16 13 -39 24 -53 24 -24 0 -24 -1 -24 -90z"/>
<path d="M1520 1019 l0 -92 38 6 c46 8 82 47 82 88 0 42 -48 89 -89 89 l-31 0
0 -91z"/>
<path d="M2310 1012 c-27 -13 -36 -24 -38 -48 -4 -39 17 -49 65 -33 31 10 33
13 33 55 0 50 -7 53 -60 26z"/>
<path d="M4197 1173 c-4 -3 -7 -57 -7 -119 l0 -114 26 -6 c44 -11 68 23 72
104 5 91 -15 142 -56 142 -16 0 -32 -3 -35 -7z"/>
</g>
</svg>
