<?xml version="1.0" standalone="no"?>
<!DOCTYPE svg PUBLIC "-//W3C//DTD SVG 20010904//EN"
 "http://www.w3.org/TR/2001/REC-SVG-20010904/DTD/svg10.dtd">
<svg version="1.0" xmlns="http://www.w3.org/2000/svg"
 width="512.000000pt" height="512.000000pt" viewBox="0 0 512.000000 512.000000"
 preserveAspectRatio="xMidYMid meet">
<metadata>
Created by potrace 1.11, written by Peter Selinger 2001-2013
</metadata>
<g transform="translate(0.000000,512.000000) scale(0.100000,-0.100000)"
fill="#000000" stroke="none">
<path d="M2559 4646 c-2 -2 -31 -7 -63 -10 -33 -3 -87 -11 -120 -16 -34 -6
-70 -13 -82 -15 -104 -17 -334 -87 -454 -137 -14 -6 -34 -14 -45 -18 -11 -5
-74 -33 -139 -65 -295 -139 -555 -323 -791 -560 -130 -130 -140 -141 -234
-260 -216 -272 -402 -628 -504 -965 -34 -112 -84 -328 -93 -400 -2 -19 -6 -44
-8 -55 -27 -122 -28 -615 -1 -777 2 -13 6 -39 9 -58 13 -85 40 -212 62 -295
14 -49 27 -97 29 -105 24 -101 86 -186 154 -209 24 -8 335 -11 1108 -11 l1073
0 88 -44 c160 -80 328 -134 517 -164 88 -14 346 -12 450 4 374 59 748 254
1030 538 287 289 469 635 545 1036 19 102 20 114 24 315 3 175 0 223 -28 389
-38 227 -167 546 -318 784 -294 464 -765 825 -1293 992 -90 29 -251 67 -330
79 -38 6 -86 13 -105 17 -38 7 -475 15 -481 10z m451 -441 c405 -70 662 -180
960 -408 93 -71 266 -248 342 -347 193 -256 325 -565 365 -855 10 -74 10 -298
0 -385 -17 -144 -79 -344 -149 -484 -201 -400 -560 -689 -993 -797 -107 -27
-338 -34 -450 -13 -224 41 -422 136 -584 279 -158 140 -285 342 -347 550 -33
112 -41 305 -18 407 57 251 184 444 379 574 64 43 170 96 208 104 1 0 25 8 52
16 69 22 224 26 308 9 81 -18 202 -72 260 -117 107 -82 172 -168 229 -301 21
-49 46 -96 56 -106 43 -44 84 -63 145 -68 169 -13 275 148 208 317 -23 57 -82
181 -91 190 -3 3 -23 32 -45 65 -95 141 -286 298 -453 370 -147 64 -250 86
-412 90 -211 5 -344 -24 -540 -117 -137 -64 -246 -143 -367 -265 -62 -62 -113
-117 -113 -122 0 -5 -6 -16 -12 -23 -97 -104 -213 -380 -245 -583 -10 -63 -10
-323 -1 -390 29 -196 123 -435 240 -608 22 -32 38 -61 35 -63 -6 -7 -1457 -7
-1463 -1 -5 5 -48 210 -58 277 -13 84 -20 216 -20 355 0 231 14 342 79 635 1
8 15 53 30 100 236 733 764 1302 1465 1580 98 39 273 94 326 103 16 3 40 8 54
11 44 10 83 16 155 22 39 4 72 8 75 11 6 5 348 -5 390 -12z"/>
</g>
</svg>
