<svg height="902pt" preserveAspectRatio="xMidYMid meet" viewBox="0 0 1280 902" width="1280pt" xmlns="http://www.w3.org/2000/svg"><path d="m7189 9007c-8-7-18-19-21-28-4-9-23-20-44-24-55-10-184-83-218-123-16-19-44-41-62-48s-65-50-105-94-82-83-93-86c-63-20-136-100-136-148 0-34-18-77-38-92-9-7-33-15-53-18-29-5-47-18-81-58l-43-52-3-163-3-163 55-64c31-35 56-66 56-70 0-24 33-36 100-36 106 0 170-38 227-135 34-58 35-62 24-108-6-27-11-95-11-151 0-91 3-107 23-137 19-29 29-34 68-37 40-3 52 2 107 43 34 25 65 45 68 45s11-15 19-34c11-25 23-36 44-41 17-4 33-15 36-26 4-11 23-28 42-37 41-19 73-75 73-125 0-40 26-132 47-163 8-13 31-32 50-44 26-15 33-24 25-32s-22-3-53 18l-42 29-341 7c-359 6-445 15-664 64-144 32-198 52-248 92-48 38-162 86-263 111-107 28-337 61-416 61-86 0-124 17-168 77-19 27-69 78-109 113-40 36-109 98-153 139-44 40-97 82-117 92-37 19-37 19-90-6-29-14-65-25-79-25-58 0-204-31-212-45-4-8-17-15-28-15-21 0-58-36-59-57 0-18-150-152-208-185-30-17-64-47-77-67-25-37-55-137-55-181 0-67 56-172 135-253 34-35 40-38 88-35s53 6 80 46c16 23 33 42 39 42s26-14 46-31c70-62 170-93 372-114 74-8 176-15 226-15s106-3 123-6l31-6v-107c0-58 5-140 11-181s13-185 17-320c6-216 10-250 27-285 33-66 51-69 415-69l315-1 104 29 103 30 197-32c108-17 250-33 316-36 147-6 197-21 272-79 32-24 69-50 83-57 15-8 99-16 231-21 124-4 216-12 229-19 22-12 22-15 18-178-4-149-7-176-32-247-15-44-32-91-39-104-28-56-154-114-374-171-289-74-486-89-874-64-151 9-427 20-614 24-300 7-348 10-413 29-40 11-137 28-215 36-78 9-212 27-297 41-113 17-198 24-315 24-88 1-196 5-240 10s-242 16-440 25c-374 16-648 32-1091 62-224 15-269 15-320 4-32-8-70-21-83-29-19-11-45-13-115-9-74 4-116 13-226 51-210 73-359 99-728 127-149 12-165 11-191-4-39-23-282-24-321-2-14 8-36 14-49 15-30 0-86 37-102 67-7 12-27 29-46 38s-38 26-42 39c-14 34-32 44-96 51l-60 7-57-65-58-66v-88c0-120 35-381 65-478 29-95 69-162 121-201 35-27 44-29 123-29 80 1 88 2 113 28 35 35 80 35 259 2 102-19 168-25 274-25 164 0 217 11 295 63 63 42 80 45 142 17 73-32 346-79 524-89 110-6 173-14 200-26 21-9 59-20 84-24l45-7v-51c-1-42 3-53 17-56 11-3 35-42 63-101 54-117 109-179 223-253 72-47 86-61 103-102 24-57 58-80 139-91 33-5 73-18 89-29 16-12 38-21 48-21 11 0 28-7 39-15 10-8 33-15 49-15 17 0 41-7 55-15s42-14 63-15c20 0 64-8 97-17 57-15 73-15 253 1 105 9 246 26 312 37 112 19 345 45 495 56 43 3 115-4 215-21 83-14 215-32 295-41 80-8 183-22 230-30 87-14 285-39 398-50 68-7 237-51 432-113 69-22 138-43 154-47 17-3 41-14 55-24 23-16 161-56 526-152 90-23 154-33 255-39 96-5 151-13 191-28 31-11 92-23 135-26 117-10 224-29 235-42 5-6 19-74 30-150 26-180 43-244 86-327 68-129 173-198 334-219l75-10 90 44c64 32 112 49 169 57 67 11 88 19 130 51 28 21 70 48 95 60 80 40 81 42 61 115-23 82-43 112-82 122-37 10-70 56-52 74 9 9 22 8 55-4 24-10 55-17 70-17 14 0 31-7 38-15 8-10 30-15 64-15 43 0 57-5 76-25 22-23 31-25 112-25 58 0 128-9 201-25 62-14 143-29 181-34 38-6 74-15 79-20 6-6 21-11 34-11 34 0 87-28 215-112 150-100 372-225 423-240 22-6 48-18 58-26 23-20 23-72-1-79-10-2-28-28-41-56-19-40-60-87-179-202-441-427-445-431-445-511 0-30 5-60 12-67 15-15 14-42-3-56-21-18-335-80-456-91-164-15-262-30-295-45-16-7-55-25-85-39-59-27-178-57-300-75-41-6-161-36-267-66s-211-55-234-55c-60 0-259-40-285-57-25-16-51-73-59-130-6-36-4-39 34-61 23-12 41-27 41-32 0-6 8-10 18-10s22-3 25-6c11-11-33-64-54-64-46 0-13-74 65-145 37-35 45-49 51-91 10-63 19-80 55-99 20-10 30-23 30-39 0-46 171-186 228-186 23 0 169 50 243 82 30 14 84 51 119 83 36 31 85 68 110 83 25 14 77 47 115 73 39 26 126 70 195 98 69 27 206 84 305 126 99 43 214 87 255 99 108 32 157 56 281 137 89 58 120 73 159 77 47 4 49 4 52-24 3-29 3-29 82-32 111-4 205 25 242 74 33 43 101 84 140 84 33 0 112 27 135 47 11 9 51 13 141 13 96 0 143 5 204 21 126 35 158 36 188 5 19-18 26-36 26-63 0-21 4-44 9-52 10-16 111-52 111-39 0 5 10 12 23 17 27 11 78 131 98 231 6 34 18 64 25 67 8 3 14 13 14 23 0 20 40 53 79 65 13 4 74 30 135 57s170 74 241 103c200 82 263 113 321 156 29 21 56 39 60 39s15 6 23 14c15 13 247 92 339 116 29 7 42 16 42 28 0 10 31 48 69 86s72 80 75 93c4 12 13 23 21 23 7 0 23 13 34 28 14 20 38 34 82 47 85 26 109 47 109 95 0 27 6 41 21 52 33 21 68 170 69 290 0 87-2 98-20 108-11 6-20 17-20 25 0 16-36 81-61 110-9 11-24 36-34 55s-204 220-431 446c-228 227-414 417-414 424s7 18 16 25c18 13 31 93 40 260l6 101-28 13c-16 8-65 17-110 21-109 11-133 25-184 110l-43 71 8 102c9 122 9 131-4 317-11 152-21 221-38 242-6 7-13 63-17 123-9 162-53 470-76 545-11 35-34 145-50 245-38 233-47 266-118 421-66 145-76 172-93 263-8 43-23 79-46 110-65 89-121 177-148 231-15 30-53 91-83 135-31 44-66 95-79 114-14 20-23 49-23 70 0 30-8 45-40 76-22 21-40 44-40 50 0 13-122 147-275 300-70 70-164 149-258 218-136 99-156 110-265 146-210 71-537 125-827 136-88 3-189 12-225 20-95 20-200 52-218 67-8 7-40 15-71 18-53 5-56 6-62 38-4 21-21 45-46 67-22 19-46 47-54 62-15 31-150 163-166 163-6 0-39 35-74 78-106 129-200 222-274 268-84 52-126 67-237 88-105 20-405 22-429 3z" transform="matrix(.1 0 0 -.1 0 902)"/></svg>