<svg width="186" height="71" viewBox="0 0 186 71" fill="none" xmlns="http://www.w3.org/2000/svg">
  <path d="M21.64 15.96C21.64 16.6533 21.48 17.3333 21.16 18C20.84 18.6667 20.44 19.2933 19.96 19.88C19.48 20.4667 18.96 21.0133 18.4 21.52C17.84 22 17.3333 22.4133 16.88 22.76C16.4 23.1333 15.84 23.5333 15.2 23.96C14.56 24.3867 13.9333 24.7867 13.32 25.16C12.7333 25.5333 12.2133 25.88 11.76 26.2C11.3067 26.4933 11.0267 26.6933 10.92 26.8L9.76 27.72C9.62667 27.8267 9.46667 27.8933 9.28 27.92C9.12 27.9467 8.98667 27.96 8.88 27.96C8.69333 27.96 8.54667 27.8667 8.44 27.68C8.33333 27.4667 8.28 27.2533 8.28 27.04C8.28 26.88 8.42667 26.6 8.72 26.2C9.04 25.7733 9.4 25.4133 9.8 25.12C10.2 24.8267 10.6933 24.5333 11.28 24.24C11.8667 23.9467 12.6667 23.48 13.68 22.84C14.1867 22.52 14.8 22.1067 15.52 21.6C16.24 21.0667 16.92 20.5067 17.56 19.92C18.2 19.3067 18.7467 18.68 19.2 18.04C19.6533 17.3733 19.88 16.7333 19.88 16.12C19.88 15.88 19.5867 15.64 19 15.4C18.44 15.1333 17.64 15 16.6 15C15.5333 15 14.4133 15.16 13.24 15.48C12.0667 15.8 10.9733 16.1467 9.96 16.52C8.97333 16.8933 8.12 17.24 7.4 17.56C6.68 17.88 6.24 18.04 6.08 18.04C6.16 18.6533 6.25333 19.4133 6.36 20.32C6.49333 21.2 6.62667 22.0533 6.76 22.88C6.89333 23.84 7.04 24.84 7.2 25.88H7.36C7.41333 26.1467 7.52 26.5333 7.68 27.04C7.84 27.5467 7.92 27.9467 7.92 28.24C7.92 28.6667 7.76 28.88 7.44 28.88C7.28 28.88 7.09333 28.7333 6.88 28.44C6.69333 28.1467 6.49333 27.8 6.28 27.4C6.09333 27 5.92 26.6133 5.76 26.24C5.62667 25.84 5.53333 25.56 5.48 25.4C5.24 24.52 5 23.5067 4.76 22.36C4.54667 21.2133 4.34667 20.0667 4.16 18.92C4 17.7467 3.86667 16.6533 3.76 15.64C3.68 14.6 3.64 13.7467 3.64 13.08C3.64 12.8933 3.68 12.7333 3.76 12.6C3.86667 12.4667 3.92 12.3333 3.92 12.2C3.92 12.0667 3.88 11.9733 3.8 11.92C3.74667 11.84 3.72 11.72 3.72 11.56C3.72 11.48 3.73333 11.4 3.76 11.32C3.81333 11.2133 3.93333 11.16 4.12 11.16C4.30667 11.2133 4.48 11.24 4.64 11.24C4.82667 11.24 4.98667 11.28 5.12 11.36C5.25333 11.4133 5.36 11.52 5.44 11.68C5.52 11.84 5.56 12.0933 5.56 12.44V12.68C5.56 12.7333 5.54667 12.8 5.52 12.88C5.52 12.9333 5.52 12.9867 5.52 13.04C5.52 13.4933 5.53333 13.8533 5.56 14.12C5.58667 14.3867 5.62667 14.52 5.68 14.52C5.76 14.52 6.04 14.3333 6.52 13.96C7.02667 13.56 7.62667 13.0667 8.32 12.48C9.01333 11.8933 9.76 11.24 10.56 10.52C11.3867 9.8 12.1733 9.10667 12.92 8.44C13.2133 8.17333 13.6133 7.8 14.12 7.32C14.6267 6.81333 15.12 6.28 15.6 5.72C16.1067 5.16 16.5333 4.64 16.88 4.16C17.2533 3.65333 17.44 3.26667 17.44 3C17.44 2.73333 17.36 2.6 17.2 2.6C16.9867 2.6 16.5333 2.69333 15.84 2.88C15.1467 3.06667 14.36 3.32 13.48 3.64C12.6 3.93333 11.6933 4.28 10.76 4.68C9.82667 5.08 9 5.49333 8.28 5.92C7.53333 6.42666 6.78667 6.98666 6.04 7.6C5.29333 8.21333 4.61333 8.8 4 9.36C3.41333 9.89333 2.92 10.36 2.52 10.76C2.14667 11.1333 1.94667 11.3467 1.92 11.4C1.86667 11.4533 1.84 11.5067 1.84 11.56C1.84 11.6133 1.85333 11.6933 1.88 11.8C1.93333 11.88 1.96 11.9467 1.96 12C1.96 12.08 1.90667 12.1467 1.8 12.2C1.69333 12.2533 1.57333 12.28 1.44 12.28C1.22667 12.28 0.96 12.24 0.64 12.16C0.32 12.0533 0.16 11.7867 0.16 11.36C0.16 10.9867 0.373333 10.52 0.8 9.96C1.22667 9.4 1.77333 8.8 2.44 8.16C3.13333 7.52 3.89333 6.89333 4.72 6.28C5.54667 5.64 6.36 5.05333 7.16 4.52C7.96 4.01333 8.82667 3.53333 9.76 3.08C10.72 2.6 11.6533 2.18667 12.56 1.84C13.4933 1.49333 14.3733 1.22666 15.2 1.04C16.0267 0.826665 16.7067 0.719998 17.24 0.719998C17.4533 0.719998 17.6933 0.746665 17.96 0.8C18.2267 0.853332 18.48 0.933332 18.72 1.04C18.96 1.14667 19.16 1.29333 19.32 1.48C19.48 1.64 19.56 1.84 19.56 2.08C19.56 2.8 19.3467 3.54667 18.92 4.32C18.4933 5.06667 17.9333 5.82667 17.24 6.6C16.5467 7.37333 15.76 8.16 14.88 8.96C14.0267 9.73333 13.16 10.4933 12.28 11.24C11.4267 11.96 10.6 12.6667 9.8 13.36C9 14.0267 8.33333 14.64 7.8 15.2C8.09333 15.0933 8.57333 14.92 9.24 14.68C9.90667 14.4133 10.6267 14.16 11.4 13.92C12.2 13.6533 13 13.4267 13.8 13.24C14.6 13.0533 15.3067 12.96 15.92 12.96C16.1067 12.96 16.5067 12.9733 17.12 13C17.7333 13.0267 18.3733 13.1333 19.04 13.32C19.7067 13.5067 20.3067 13.8133 20.84 14.24C21.3733 14.64 21.64 15.2133 21.64 15.96ZM35.8572 15.8C35.8572 15.9867 35.7772 16.1467 35.6172 16.28C35.4572 16.3867 35.2705 16.48 35.0572 16.56C34.8439 16.64 34.6305 16.7067 34.4172 16.76C34.2039 16.7867 34.0305 16.8 33.8972 16.8C33.4972 16.8 33.2305 16.7733 33.0972 16.72C32.9639 16.6667 32.8572 16.64 32.7772 16.64C32.1105 16.64 31.5772 16.6933 31.1772 16.8C30.7772 16.9067 30.4572 17.08 30.2172 17.32C30.0039 17.56 29.8572 17.8667 29.7772 18.24C29.7239 18.5867 29.6972 19.0133 29.6972 19.52C29.6972 20.3733 29.7239 21.0533 29.7772 21.56C29.8572 22.0667 29.9239 22.48 29.9772 22.8C30.0572 23.12 30.1239 23.3733 30.1772 23.56C30.2572 23.72 30.2972 23.88 30.2972 24.04C30.2972 24.2533 30.1772 24.48 29.9372 24.72C29.7239 24.96 29.5239 25.08 29.3372 25.08C29.0172 25.08 28.7239 24.8 28.4572 24.24C28.2172 23.6533 28.0039 22.9733 27.8172 22.2C27.6572 21.4 27.5239 20.6133 27.4172 19.84C27.3105 19.0667 27.2572 18.48 27.2572 18.08C27.2572 17.6267 27.2972 17.2 27.3772 16.8C27.4572 16.3733 27.5639 16.0133 27.6972 15.72C27.8305 15.4 27.9772 15.1467 28.1372 14.96C28.2972 14.7733 28.4572 14.68 28.6172 14.68C28.7505 14.68 28.8572 14.7333 28.9372 14.84C29.0172 14.92 29.0839 15.0267 29.1372 15.16C29.1905 15.2667 29.2439 15.3733 29.2972 15.48C29.3772 15.56 29.4705 15.6 29.5772 15.6C29.8172 15.6 30.2039 15.48 30.7372 15.24C31.2705 15 31.9239 14.88 32.6972 14.88C33.4172 14.88 33.9505 14.9067 34.2972 14.96C34.6705 14.9867 35.0305 15.0667 35.3772 15.2C35.4572 15.2267 35.5505 15.2933 35.6572 15.4C35.7905 15.48 35.8572 15.6133 35.8572 15.8ZM59.2734 19.68C59.2734 20.16 59.0468 20.76 58.5934 21.48C58.1668 22.1733 57.5801 22.8533 56.8334 23.52C56.0868 24.1867 55.2201 24.76 54.2334 25.24C53.2468 25.6933 52.2201 25.92 51.1534 25.92C50.6734 25.92 50.1668 25.84 49.6334 25.68C49.1001 25.52 48.5801 25.2933 48.0734 25C47.5668 24.68 47.1134 24.3067 46.7134 23.88C46.3134 23.4267 46.0201 22.92 45.8334 22.36C45.6734 22.52 45.4734 22.7867 45.2334 23.16C45.0201 23.5333 44.7801 23.92 44.5134 24.32C44.2468 24.6933 43.9534 25.0267 43.6334 25.32C43.3134 25.5867 42.9801 25.72 42.6334 25.72C42.2868 25.72 41.9934 25.5467 41.7534 25.2C41.5401 24.8267 41.3668 24.4267 41.2334 24C41.1001 23.5467 41.0068 23.12 40.9534 22.72C40.9001 22.32 40.8734 22.0933 40.8734 22.04C40.8734 21.72 40.9668 21.12 41.1534 20.24C41.3401 19.3333 41.6201 18.4 41.9934 17.44C42.3668 16.48 42.8334 15.6267 43.3934 14.88C43.9801 14.1333 44.6601 13.76 45.4334 13.76C45.7268 13.76 45.9134 13.8933 45.9934 14.16C46.1001 14.4 46.1534 14.64 46.1534 14.88V16.08C46.2868 16.1867 46.4201 16.2667 46.5534 16.32C46.7134 16.3467 46.8468 16.4 46.9534 16.48C47.0868 16.5333 47.1801 16.6267 47.2334 16.76C47.3134 16.8933 47.3534 17.1067 47.3534 17.4C47.3534 17.5867 47.3401 17.76 47.3134 17.92C47.2868 18.0533 47.2734 18.1867 47.2734 18.32C47.2734 19.0133 47.3268 19.6933 47.4334 20.36C47.5401 21.0267 47.7534 21.6267 48.0734 22.16C48.3934 22.6667 48.8334 23.0933 49.3934 23.44C49.9534 23.76 50.7001 23.92 51.6334 23.92C52.8068 23.92 53.7934 23.68 54.5934 23.2C55.4201 22.6933 56.1001 22.1467 56.6334 21.56C57.1934 20.9467 57.6334 20.4 57.9534 19.92C58.2734 19.4133 58.5401 19.16 58.7534 19.16C59.1001 19.16 59.2734 19.3333 59.2734 19.68ZM45.2334 17.92C45.2334 17.8133 45.2068 17.72 45.1534 17.64C45.1001 17.5333 45.0734 17.44 45.0734 17.36C45.0734 17.2533 45.1001 17.16 45.1534 17.08C45.2068 17 45.2334 16.8933 45.2334 16.76C45.2334 16.68 45.2068 16.6267 45.1534 16.6C45.1001 16.5467 45.0734 16.4933 45.0734 16.44C44.8334 16.4933 44.5801 16.72 44.3134 17.12C44.0734 17.52 43.8334 17.9867 43.5934 18.52C43.3801 19.0533 43.2068 19.6 43.0734 20.16C42.9401 20.6933 42.8734 21.1333 42.8734 21.48C42.8734 21.6667 42.9268 21.9733 43.0334 22.4C43.1401 22.8267 43.2601 23.1067 43.3934 23.24C43.8468 22.3067 44.2601 21.4 44.6334 20.52C45.0334 19.64 45.2334 18.7733 45.2334 17.92ZM63.3256 9.6C63.3256 9.65333 63.2323 9.76 63.0456 9.92C62.859 10.08 62.6323 10.2533 62.3656 10.44C62.1256 10.6 61.8723 10.7467 61.6056 10.88C61.339 11.0133 61.1256 11.08 60.9656 11.08C60.859 11.08 60.7123 11.08 60.5256 11.08C60.3656 11.0533 60.1923 11 60.0056 10.92C59.8456 10.84 59.699 10.7333 59.5656 10.6C59.4323 10.44 59.3656 10.24 59.3656 10C59.3656 9.62667 59.499 9.28 59.7656 8.96C60.0323 8.61333 60.379 8.44 60.8056 8.44C60.8856 8.44 61.059 8.48 61.3256 8.56C61.619 8.61333 61.9123 8.69333 62.2056 8.8C62.499 8.90667 62.7523 9.02667 62.9656 9.16C63.2056 9.29333 63.3256 9.44 63.3256 9.6ZM64.6456 24.56C64.6456 24.7467 64.499 24.9067 64.2056 25.04C63.939 25.1733 63.739 25.24 63.6056 25.24C63.339 25.24 63.099 25.0667 62.8856 24.72C62.6723 24.3733 62.4856 23.9733 62.3256 23.52C62.1656 23.0667 62.0323 22.64 61.9256 22.24C61.819 21.8133 61.739 21.52 61.6856 21.36C61.6056 21.0933 61.499 20.7733 61.3656 20.4C61.2323 20.0267 61.099 19.6667 60.9656 19.32C60.859 18.9733 60.7656 18.6667 60.6856 18.4C60.6056 18.1333 60.5656 17.9867 60.5656 17.96C60.5656 17.5867 60.6323 17.24 60.7656 16.92C60.9256 16.6 61.1123 16.44 61.3256 16.44C61.5656 16.44 61.819 16.6267 62.0856 17C62.3523 17.3733 62.6056 17.8533 62.8456 18.44C63.1123 19 63.3523 19.6267 63.5656 20.32C63.779 20.9867 63.9656 21.6267 64.1256 22.24C64.2856 22.8267 64.4056 23.3467 64.4856 23.8C64.5923 24.2267 64.6456 24.48 64.6456 24.56ZM80.3766 23.08C80.3766 23.24 80.3232 23.4 80.2166 23.56C80.1099 23.72 79.9766 23.8667 79.8166 24C79.6832 24.1333 79.5232 24.2533 79.3366 24.36C79.1766 24.44 79.0299 24.48 78.8966 24.48C78.4432 24.48 77.8566 24.3867 77.1366 24.2C76.4432 23.9867 75.8832 23.6667 75.4566 23.24C75.0032 22.7867 74.6032 22.2533 74.2566 21.64C73.9099 21 73.5232 20.0667 73.0966 18.84C72.8032 20.0133 72.4566 21.1733 72.0566 22.32C71.6832 23.4667 71.0699 24.52 70.2166 25.48C70.1632 25.5333 70.0832 25.56 69.9766 25.56C69.7899 25.56 69.5899 25.4667 69.3766 25.28C69.1632 25.0933 69.0566 24.9067 69.0566 24.72C69.0566 24.5333 69.0299 24.1067 68.9766 23.44C68.9499 22.7467 68.9099 21.9867 68.8566 21.16C68.8032 20.3067 68.7499 19.4533 68.6966 18.6C68.6699 17.72 68.6566 17 68.6566 16.44C68.6566 16.1733 68.6699 15.8267 68.6966 15.4C68.7232 14.9467 68.8032 14.56 68.9366 14.24C68.9632 14.1867 69.0566 14.08 69.2166 13.92C69.4032 13.76 69.6032 13.68 69.8166 13.68C70.0032 13.68 70.1099 13.8 70.1366 14.04C70.1632 14.28 70.1766 14.5467 70.1766 14.84V21.16C70.1766 21.2933 70.1899 21.48 70.2166 21.72C70.2699 21.96 70.3366 22.1333 70.4166 22.24C70.7099 21.6 70.9766 20.8533 71.2166 20C71.4832 19.12 71.7366 18.2933 71.9766 17.52C72.2166 16.72 72.4566 16.0533 72.6966 15.52C72.9366 14.96 73.1766 14.68 73.4166 14.68C73.6832 14.68 73.8966 14.7333 74.0566 14.84C74.2166 14.9467 74.3499 15.16 74.4566 15.48C74.5899 16.2533 74.6966 16.9467 74.7766 17.56C74.8566 18.1467 74.9499 18.68 75.0566 19.16C75.1899 19.64 75.3632 20.0933 75.5766 20.52C75.8166 20.92 76.1366 21.2933 76.5366 21.64C76.9099 21.9867 77.3232 22.24 77.7766 22.4C78.2566 22.56 78.6699 22.64 79.0166 22.64C79.1766 22.64 79.3499 22.6133 79.5366 22.56C79.7232 22.48 79.8566 22.44 79.9366 22.44C80.0432 22.44 80.1366 22.5333 80.2166 22.72C80.3232 22.9067 80.3766 23.0267 80.3766 23.08ZM99.6391 29.84C99.6391 30.16 99.5591 30.36 99.3991 30.44C99.2391 30.5467 99.0524 30.6 98.8391 30.6C98.6791 30.6 98.4657 30.5733 98.1991 30.52C98.0657 30.4933 97.8657 30.36 97.5991 30.12C97.3591 29.9067 97.0924 29.6533 96.7991 29.36C96.4791 29.04 96.1324 28.68 95.7591 28.28L93.7591 26C93.7057 26.08 93.5857 26.2533 93.3991 26.52C93.2124 26.76 92.9724 27.0267 92.6791 27.32C92.4124 27.5867 92.0924 27.8267 91.7191 28.04C91.3457 28.2533 90.9457 28.36 90.5191 28.36C90.2257 28.36 89.8657 28.2667 89.4391 28.08C89.0391 27.92 88.6257 27.68 88.1991 27.36C87.7724 27.04 87.3457 26.6533 86.9191 26.2C86.5191 25.7467 86.1724 25.24 85.8791 24.68C85.5057 23.96 85.1857 23.2133 84.9191 22.44C84.6791 21.64 84.4791 20.84 84.3191 20.04C84.1857 19.24 84.0924 18.4533 84.0391 17.68C83.9857 16.88 83.9591 16.1333 83.9591 15.44C83.9591 14.4533 83.9991 13.7467 84.0791 13.32C84.1857 12.8933 84.5057 12.68 85.0391 12.68C85.2524 12.68 85.4124 12.76 85.5191 12.92C85.6524 13.0533 85.7191 13.2 85.7191 13.36C85.7191 14.8533 85.8257 16.3733 86.0391 17.92C86.2524 19.44 86.5591 20.84 86.9591 22.12C87.3591 23.3733 87.8524 24.4 88.4391 25.2C89.0524 26 89.7591 26.4 90.5591 26.4C90.9057 26.4 91.2124 26.28 91.4791 26.04C91.7457 25.7733 91.9591 25.4667 92.1191 25.12C92.3057 24.7733 92.4391 24.44 92.5191 24.12C92.5991 23.8 92.6524 23.56 92.6791 23.4C92.5191 23.0267 92.3457 22.5333 92.1591 21.92C91.9991 21.28 91.8524 20.5867 91.7191 19.84C91.5857 19.0933 91.4791 18.32 91.3991 17.52C91.3191 16.72 91.2791 15.9467 91.2791 15.2C91.2791 14.0533 91.2791 13.12 91.2791 12.4C91.3057 11.6533 91.3591 11.08 91.4391 10.68C91.5191 10.2533 91.6391 9.97333 91.7991 9.84C91.9591 9.68 92.1857 9.6 92.4791 9.6C92.6391 9.6 92.7857 9.65333 92.9191 9.76C93.0791 9.84 93.1991 9.93333 93.2791 10.04C93.3857 10.1467 93.4657 10.2533 93.5191 10.36C93.5724 10.4667 93.5991 10.5333 93.5991 10.56C93.5991 10.6667 93.5724 10.76 93.5191 10.84C93.4657 10.8933 93.4391 10.9733 93.4391 11.08C93.4391 11.2933 93.4657 11.6 93.5191 12C93.5991 12.4 93.6791 12.8133 93.7591 13.24C93.9191 14.0933 94.0657 15.0667 94.1991 16.16C94.3591 17.2533 94.4391 18.52 94.4391 19.96V21.64C94.4391 21.8533 94.5457 22.2933 94.7591 22.96C94.9991 23.6 95.5191 24.5467 96.3191 25.8C96.8524 26.6533 97.3457 27.3333 97.7991 27.84C98.2791 28.3467 98.6657 28.7467 98.9591 29.04C99.1457 29.2 99.3057 29.3467 99.4391 29.48C99.5724 29.64 99.6391 29.76 99.6391 29.84ZM93.5191 16.48C93.4924 16.32 93.4524 16.12 93.3991 15.88C93.3457 15.64 93.2791 15.4 93.1991 15.16C93.1457 14.92 93.0924 14.72 93.0391 14.56C93.0124 14.4 92.9991 14.32 92.9991 14.32C92.9991 14.6133 92.9991 14.9733 92.9991 15.4C93.0257 15.8 93.0524 16.2133 93.0791 16.64C93.1324 17.04 93.1857 17.44 93.2391 17.84C93.2924 18.2133 93.3591 18.5333 93.4391 18.8C93.4391 18.6133 93.4524 18.4267 93.4791 18.24C93.4791 18.08 93.4791 17.9067 93.4791 17.72C93.5057 17.5067 93.5191 17.2933 93.5191 17.08V16.48ZM111.736 9.04C111.736 10.7733 111.522 12.2933 111.096 13.6C110.696 14.9067 110.229 16.0667 109.696 17.08C109.189 18.0667 108.682 18.96 108.176 19.76C107.696 20.5333 107.376 21.28 107.216 22C107.082 22.48 106.789 22.72 106.336 22.72C106.282 22.72 106.242 22.72 106.216 22.72C106.189 22.6933 106.149 22.68 106.096 22.68C106.282 23.1333 106.562 23.6533 106.936 24.24C107.309 24.8 107.682 25.3733 108.056 25.96C108.429 26.5467 108.749 27.12 109.016 27.68C109.309 28.24 109.456 28.72 109.456 29.12C109.456 29.3333 109.309 29.5333 109.016 29.72C108.749 29.9333 108.509 30.04 108.296 30.04C108.189 30.04 108.109 29.9733 108.056 29.84C107.789 28.88 107.296 27.8533 106.576 26.76C105.856 25.6667 105.109 24.44 104.336 23.08C103.589 21.72 102.922 20.1867 102.336 18.48C101.749 16.7733 101.456 14.84 101.456 12.68C101.456 11.7733 101.496 11.0133 101.576 10.4C101.682 9.76 101.962 9.44 102.416 9.44C102.682 9.44 102.869 9.52 102.976 9.68C103.082 9.84 103.136 10.0133 103.136 10.2C103.136 12.6267 103.362 14.76 103.816 16.6C104.269 18.44 104.776 19.8667 105.336 20.88L106.016 19.84C106.709 18.7733 107.309 17.84 107.816 17.04C108.322 16.2133 108.736 15.4133 109.056 14.64C109.376 13.84 109.602 13.0267 109.736 12.2C109.896 11.3733 109.976 10.4133 109.976 9.32C109.976 9.02667 109.936 8.70667 109.856 8.36C109.802 8.01333 109.696 7.70667 109.536 7.44C109.402 7.14667 109.229 6.90667 109.016 6.72C108.802 6.53333 108.536 6.44 108.216 6.44C107.789 6.44 107.136 6.56 106.256 6.8C105.402 7.04 104.522 7.36 103.616 7.76C102.709 8.16 101.882 8.61333 101.136 9.12C100.389 9.6 99.9356 10.0933 99.7756 10.6C99.749 10.6533 99.709 10.72 99.6556 10.8C99.6023 10.88 99.549 10.92 99.4956 10.92C99.309 10.92 99.109 10.7733 98.8956 10.48C98.6823 10.1867 98.5756 9.93333 98.5756 9.72C98.5756 9.24 98.789 8.77333 99.2156 8.32C99.6423 7.86667 100.176 7.45333 100.816 7.08C101.482 6.70667 102.216 6.37333 103.016 6.08C103.816 5.76 104.589 5.50667 105.336 5.32C106.082 5.10666 106.749 4.94666 107.336 4.84C107.949 4.70666 108.389 4.64 108.656 4.64C109.082 4.64 109.482 4.76 109.856 5C110.256 5.24 110.589 5.56 110.856 5.96C111.122 6.36 111.336 6.82667 111.496 7.36C111.656 7.89333 111.736 8.45333 111.736 9.04ZM15.16 69.76C15.1867 69.8667 15.2 69.96 15.2 70.04C15.2 70.1467 15.2 70.2267 15.2 70.28C15.2 70.5467 15.1333 70.7333 15 70.84C14.8933 70.9467 14.6667 71 14.32 71C14 71 13.7867 70.9467 13.68 70.84C13.52 70.68 13.3067 70.2667 13.04 69.6C12.7733 68.9333 12.4933 68.1467 12.2 67.24C11.9067 66.3333 11.6133 65.36 11.32 64.32C11.0533 63.28 10.8133 62.2933 10.6 61.36C10.3067 61.4933 9.90667 61.64 9.4 61.8C8.89333 61.9333 8.37333 62.0667 7.84 62.2C7.22667 62.3333 6.58667 62.48 5.92 62.64C5.68 63.7867 5.49333 64.7733 5.36 65.6C5.25333 66.4 5.14667 67.0667 5.04 67.6C4.96 68.1067 4.84 68.48 4.68 68.72C4.54667 68.9867 4.32 69.12 4 69.12C3.78667 69.12 3.6 69 3.44 68.76C3.28 68.52 3.2 68.16 3.2 67.68C3.2 67.44 3.26667 66.88 3.4 66C3.53333 65.12 3.68 64.1467 3.84 63.08C4 61.9867 4.16 60.9067 4.32 59.84C4.48 58.7733 4.58667 57.9333 4.64 57.32C4.66667 57 4.74667 56.48 4.88 55.76C5.04 55.04 5.2 54.3067 5.36 53.56C5.52 52.7867 5.68 52.0933 5.84 51.48C6 50.8667 6.10667 50.52 6.16 50.44C6.58667 49.4533 6.85333 48.44 6.96 47.4C7.09333 46.36 7.18667 45.4133 7.24 44.56C7.32 43.68 7.44 42.9733 7.6 42.44C7.76 41.88 8.09333 41.6 8.6 41.6C8.73333 41.6 8.86667 41.7067 9 41.92C9.16 42.1333 9.30667 42.3867 9.44 42.68C9.57333 42.9733 9.68 43.2667 9.76 43.56C9.84 43.8267 9.89333 44.04 9.92 44.2C9.94667 44.36 9.97333 44.68 10 45.16C10.0533 45.64 10.0933 46.1733 10.12 46.76C10.1733 47.32 10.2133 47.88 10.24 48.44C10.2933 48.9733 10.3333 49.3867 10.36 49.68C10.44 50.56 10.56 51.5467 10.72 52.64C10.9067 53.7333 11.0933 54.76 11.28 55.72C11.4667 56.68 11.64 57.4933 11.8 58.16C11.96 58.8 12.08 59.12 12.16 59.12C12.2667 59.12 12.4 59.0933 12.56 59.04C12.7467 58.9867 12.92 58.96 13.08 58.96C13.2933 58.96 13.4 59.0667 13.4 59.28C13.4 59.4933 13.3467 59.6667 13.24 59.8C13.1333 59.9333 13.0133 60.0533 12.88 60.16C12.7733 60.2667 12.6667 60.36 12.56 60.44C12.48 60.52 12.44 60.6133 12.44 60.72C12.44 60.9333 12.56 61.48 12.8 62.36L13.44 64.72C13.4933 64.9333 13.6133 65.2933 13.8 65.8C13.9867 66.3067 14.1733 66.84 14.36 67.4C14.5733 67.9333 14.76 68.4267 14.92 68.88C15.08 69.36 15.16 69.6533 15.16 69.76ZM6.28 60.6C6.44 60.6 6.73333 60.56 7.16 60.48C7.58667 60.3733 8.02667 60.2533 8.48 60.12C8.93333 59.9867 9.33333 59.8533 9.68 59.72C10.0267 59.5867 10.2 59.48 10.2 59.4C10.2 59.32 10.1467 59.12 10.04 58.8C9.96 58.4533 9.85333 58.0267 9.72 57.52C9.61333 56.9867 9.49333 56.3867 9.36 55.72C9.22667 55.0533 9.10667 54.3467 9 53.6C8.94667 53.12 8.88 52.4667 8.8 51.64C8.72 50.8133 8.64 50 8.56 49.2C8.48 48.3733 8.41333 47.6667 8.36 47.08C8.30667 46.4933 8.28 46.2 8.28 46.2C8.28 46.2 8.24 46.4 8.16 46.8C8.08 47.1733 7.98667 47.6 7.88 48.08C7.8 48.5333 7.72 48.9733 7.64 49.4C7.58667 49.8 7.56 50.0267 7.56 50.08V51.2C7.56 51.2533 7.52 51.4933 7.44 51.92C7.38667 52.32 7.30667 52.84 7.2 53.48C7.09333 54.0933 6.97333 54.7733 6.84 55.52C6.73333 56.24 6.62667 56.9333 6.52 57.6C6.41333 58.2667 6.32 58.8667 6.24 59.4C6.18667 59.9067 6.16 60.2533 6.16 60.44C6.16 60.5467 6.2 60.6 6.28 60.6ZM31.37 61.56C31.37 61.6933 31.3033 61.8267 31.17 61.96C31.0633 62.0667 30.9967 62.1867 30.97 62.32C30.97 62.6133 31.0233 62.8933 31.13 63.16C31.2633 63.4267 31.33 63.7467 31.33 64.12C31.33 64.4667 31.2233 64.64 31.01 64.64C30.7433 64.64 30.5433 64.68 30.41 64.76C30.3033 64.8133 30.1033 64.8667 29.81 64.92C29.65 64.92 29.4767 64.7733 29.29 64.48C29.1833 64.3467 29.09 64.1867 29.01 64C29.01 63.9733 28.93 64.0267 28.77 64.16C28.6367 64.2933 28.3967 64.4533 28.05 64.64C27.73 64.8 27.2767 64.96 26.69 65.12C26.13 65.2533 25.41 65.32 24.53 65.32C23.7833 65.32 23.13 65.16 22.57 64.84C22.01 64.4933 21.5433 64.0533 21.17 63.52C20.8233 62.9867 20.5567 62.3867 20.37 61.72C20.21 61.0267 20.13 60.3333 20.13 59.64C20.13 59 20.1967 58.4 20.33 57.84C20.49 57.2533 20.7033 56.7467 20.97 56.32C21.2367 55.8667 21.57 55.5067 21.97 55.24C22.37 54.9733 22.8367 54.84 23.37 54.84C23.8767 54.84 24.3833 55 24.89 55.32C25.3967 55.64 25.85 55.9867 26.25 56.36C26.65 56.7333 26.97 57.08 27.21 57.4C27.4767 57.6933 27.61 57.84 27.61 57.84C27.2367 55.76 26.9033 53.88 26.61 52.2C26.4767 51.48 26.3433 50.7733 26.21 50.08C26.1033 49.36 25.9967 48.72 25.89 48.16C25.7833 47.6 25.69 47.1333 25.61 46.76C25.5567 46.36 25.53 46.12 25.53 46.04C25.5033 45.88 25.4767 45.6 25.45 45.2C25.4233 44.7733 25.3967 44.3333 25.37 43.88C25.3433 43.4267 25.3167 43.0133 25.29 42.64C25.2633 42.2667 25.2367 42.0267 25.21 41.92C25.13 41.6533 25.0233 41.32 24.89 40.92C24.7833 40.52 24.73 40.2933 24.73 40.24C24.73 40.1067 24.7967 39.9467 24.93 39.76C25.0633 39.5467 25.2367 39.44 25.45 39.44C25.61 39.44 25.7567 39.4533 25.89 39.48C26.0233 39.5067 26.1433 39.5867 26.25 39.72C26.3567 39.8533 26.45 40.0667 26.53 40.36C26.6367 40.6267 26.73 41.0133 26.81 41.52C26.8367 41.7867 26.9167 42.2933 27.05 43.04C27.1833 43.7867 27.3167 44.6 27.45 45.48C27.5833 46.36 27.7167 47.2 27.85 48C27.9833 48.8 28.0767 49.3867 28.13 49.76C28.2633 50.7733 28.4367 51.88 28.65 53.08C28.89 54.2533 29.13 55.3867 29.37 56.48C29.61 57.5733 29.85 58.5467 30.09 59.4C30.33 60.2267 30.5433 60.7867 30.73 61.08C30.7833 61.1867 30.89 61.2667 31.05 61.32C31.21 61.3467 31.3167 61.4267 31.37 61.56ZM28.41 62.36C28.3833 62.28 28.21 61.9467 27.89 61.36C27.5967 60.7467 27.21 60.0933 26.73 59.4C26.2767 58.68 25.7567 58.04 25.17 57.48C24.61 56.92 24.0633 56.64 23.53 56.64C23.0767 56.64 22.7033 56.9867 22.41 57.68C22.1433 58.3733 22.01 59.1733 22.01 60.08C22.01 61.0933 22.3033 61.9067 22.89 62.52C23.5033 63.1333 24.1833 63.44 24.93 63.44C25.57 63.44 26.2367 63.3333 26.93 63.12C27.6233 62.9067 28.1167 62.6533 28.41 62.36ZM53.4241 64.24C53.4241 64.4533 53.3574 64.64 53.2241 64.8C53.0907 64.96 52.9307 65.0933 52.7441 65.2C52.5574 65.28 52.3574 65.3467 52.1441 65.4C51.9574 65.4533 51.7974 65.48 51.6641 65.48C51.1041 65.48 50.6241 65.1867 50.2241 64.6C49.8241 63.9867 49.4907 63.32 49.2241 62.6C48.9574 61.8533 48.7574 61.16 48.6241 60.52C48.5174 59.88 48.4641 59.5333 48.4641 59.48C48.3041 59.7733 48.1307 60.2667 47.9441 60.96C47.7841 61.6533 47.5841 62.36 47.3441 63.08C47.1041 63.7733 46.7974 64.4 46.4241 64.96C46.0774 65.4933 45.6241 65.76 45.0641 65.76C44.7974 65.76 44.5441 65.6 44.3041 65.28C44.0641 64.96 43.8374 64.5467 43.6241 64.04C43.4107 63.5333 43.1974 62.96 42.9841 62.32C42.7974 61.68 42.5974 61.0533 42.3841 60.44C42.1974 59.8267 42.0107 59.2533 41.8241 58.72C41.6374 58.16 41.4507 57.72 41.2641 57.4C41.1041 57.8 40.9574 58.3467 40.8241 59.04C40.7174 59.7333 40.6241 60.4667 40.5441 61.24C40.4641 61.9867 40.3974 62.7333 40.3441 63.48C40.2907 64.2267 40.2641 64.88 40.2641 65.44C40.2641 65.8133 40.1574 66.08 39.9441 66.24C39.7574 66.4 39.5574 66.48 39.3441 66.48C39.0507 66.48 38.7574 66.2933 38.4641 65.92C38.1707 65.52 37.8774 65.0133 37.5841 64.4C37.2907 63.7867 37.0107 63.0933 36.7441 62.32C36.5041 61.5467 36.2774 60.7733 36.0641 60C35.8774 59.2267 35.7307 58.4933 35.6241 57.8C35.5174 57.08 35.4641 56.48 35.4641 56C35.4641 55.6533 35.4774 55.3333 35.5041 55.04C35.5307 54.8 35.5441 54.5733 35.5441 54.36C35.5707 54.1467 35.5841 54.0267 35.5841 54C35.5841 53.92 35.5574 53.8667 35.5041 53.84C35.4774 53.8133 35.4641 53.7467 35.4641 53.64C35.4641 53.56 35.5574 53.44 35.7441 53.28C35.9574 53.0933 36.1707 53 36.3841 53C36.7574 53 36.9974 53.08 37.1041 53.24C37.2374 53.4 37.3041 53.5867 37.3041 53.8C37.3041 53.88 37.2907 54 37.2641 54.16C37.2641 54.32 37.2641 54.68 37.2641 55.24C37.2641 55.6133 37.3307 56.1733 37.4641 56.92C37.5974 57.6667 37.7574 58.4267 37.9441 59.2C38.1307 59.9733 38.3174 60.6933 38.5041 61.36C38.7174 62 38.8907 62.4 39.0241 62.56C39.0774 62.4533 39.1041 62.3333 39.1041 62.2C39.1307 62.04 39.1574 61.92 39.1841 61.84L39.6241 58.56C39.7307 57.7333 39.9441 56.8667 40.2641 55.96C40.6107 55.0267 40.9707 54.3067 41.3441 53.8C41.4774 53.5867 41.6241 53.48 41.7841 53.48C41.9441 53.48 42.0907 53.6 42.2241 53.84C42.6774 54.5867 43.0107 55.3333 43.2241 56.08C43.4641 56.8 43.6641 57.52 43.8241 58.24C44.0107 58.9333 44.2107 59.64 44.4241 60.36C44.6641 61.0533 45.0241 61.76 45.5041 62.48C45.7174 62.1333 45.9841 61.5733 46.3041 60.8C46.6241 60 46.9441 59.2 47.2641 58.4C47.6107 57.6 47.9307 56.9067 48.2241 56.32C48.5174 55.7067 48.7441 55.4 48.9041 55.4C48.9841 55.4 49.1174 55.4133 49.3041 55.44C49.4907 55.4667 49.6241 55.48 49.7041 55.48C49.9441 55.48 50.1441 55.76 50.3041 56.32C50.4641 56.8533 50.5974 57.4933 50.7041 58.24C50.8374 58.96 50.9574 59.6933 51.0641 60.44C51.1974 61.16 51.3441 61.7067 51.5041 62.08C51.6107 62.3467 51.7707 62.6 51.9841 62.84C52.1974 63.08 52.4107 63.3067 52.6241 63.52C52.8907 63.76 53.1574 64 53.4241 64.24ZM60.2006 49.6C60.2006 49.6533 60.1073 49.76 59.9206 49.92C59.734 50.08 59.5073 50.2533 59.2406 50.44C59.0006 50.6 58.7473 50.7467 58.4806 50.88C58.214 51.0133 58.0006 51.08 57.8406 51.08C57.734 51.08 57.5873 51.08 57.4006 51.08C57.2406 51.0533 57.0673 51 56.8806 50.92C56.7206 50.84 56.574 50.7333 56.4406 50.6C56.3073 50.44 56.2406 50.24 56.2406 50C56.2406 49.6267 56.374 49.28 56.6406 48.96C56.9073 48.6133 57.254 48.44 57.6806 48.44C57.7606 48.44 57.934 48.48 58.2006 48.56C58.494 48.6133 58.7873 48.6933 59.0806 48.8C59.374 48.9067 59.6273 49.0267 59.8406 49.16C60.0806 49.2933 60.2006 49.44 60.2006 49.6ZM61.5206 64.56C61.5206 64.7467 61.374 64.9067 61.0806 65.04C60.814 65.1733 60.614 65.24 60.4806 65.24C60.214 65.24 59.974 65.0667 59.7606 64.72C59.5473 64.3733 59.3606 63.9733 59.2006 63.52C59.0406 63.0667 58.9073 62.64 58.8006 62.24C58.694 61.8133 58.614 61.52 58.5606 61.36C58.4806 61.0933 58.374 60.7733 58.2406 60.4C58.1073 60.0267 57.974 59.6667 57.8406 59.32C57.734 58.9733 57.6406 58.6667 57.5606 58.4C57.4806 58.1333 57.4406 57.9867 57.4406 57.96C57.4406 57.5867 57.5073 57.24 57.6406 56.92C57.8006 56.6 57.9873 56.44 58.2006 56.44C58.4406 56.44 58.694 56.6267 58.9606 57C59.2273 57.3733 59.4806 57.8533 59.7206 58.44C59.9873 59 60.2273 59.6267 60.4406 60.32C60.654 60.9867 60.8406 61.6267 61.0006 62.24C61.1606 62.8267 61.2806 63.3467 61.3606 63.8C61.4673 64.2267 61.5206 64.48 61.5206 64.56ZM77.2516 63.08C77.2516 63.24 77.1982 63.4 77.0916 63.56C76.9849 63.72 76.8516 63.8667 76.6916 64C76.5582 64.1333 76.3982 64.2533 76.2116 64.36C76.0516 64.44 75.9049 64.48 75.7716 64.48C75.3182 64.48 74.7316 64.3867 74.0116 64.2C73.3182 63.9867 72.7582 63.6667 72.3316 63.24C71.8782 62.7867 71.4782 62.2533 71.1316 61.64C70.7849 61 70.3982 60.0667 69.9716 58.84C69.6782 60.0133 69.3316 61.1733 68.9316 62.32C68.5582 63.4667 67.9449 64.52 67.0916 65.48C67.0382 65.5333 66.9582 65.56 66.8516 65.56C66.6649 65.56 66.4649 65.4667 66.2516 65.28C66.0382 65.0933 65.9316 64.9067 65.9316 64.72C65.9316 64.5333 65.9049 64.1067 65.8516 63.44C65.8249 62.7467 65.7849 61.9867 65.7316 61.16C65.6782 60.3067 65.6249 59.4533 65.5716 58.6C65.5449 57.72 65.5316 57 65.5316 56.44C65.5316 56.1733 65.5449 55.8267 65.5716 55.4C65.5982 54.9467 65.6782 54.56 65.8116 54.24C65.8382 54.1867 65.9316 54.08 66.0916 53.92C66.2782 53.76 66.4782 53.68 66.6916 53.68C66.8782 53.68 66.9849 53.8 67.0116 54.04C67.0382 54.28 67.0516 54.5467 67.0516 54.84V61.16C67.0516 61.2933 67.0649 61.48 67.0916 61.72C67.1449 61.96 67.2116 62.1333 67.2916 62.24C67.5849 61.6 67.8516 60.8533 68.0916 60C68.3582 59.12 68.6116 58.2933 68.8516 57.52C69.0916 56.72 69.3316 56.0533 69.5716 55.52C69.8116 54.96 70.0516 54.68 70.2916 54.68C70.5582 54.68 70.7716 54.7333 70.9316 54.84C71.0916 54.9467 71.2249 55.16 71.3316 55.48C71.4649 56.2533 71.5716 56.9467 71.6516 57.56C71.7316 58.1467 71.8249 58.68 71.9316 59.16C72.0649 59.64 72.2382 60.0933 72.4516 60.52C72.6916 60.92 73.0116 61.2933 73.4116 61.64C73.7849 61.9867 74.1982 62.24 74.6516 62.4C75.1316 62.56 75.5449 62.64 75.8916 62.64C76.0516 62.64 76.2249 62.6133 76.4116 62.56C76.5982 62.48 76.7316 62.44 76.8116 62.44C76.9182 62.44 77.0116 62.5333 77.0916 62.72C77.1982 62.9067 77.2516 63.0267 77.2516 63.08ZM82.8741 49.6C82.8741 49.6533 82.7807 49.76 82.5941 49.92C82.4074 50.08 82.1807 50.2533 81.9141 50.44C81.6741 50.6 81.4207 50.7467 81.1541 50.88C80.8874 51.0133 80.6741 51.08 80.5141 51.08C80.4074 51.08 80.2607 51.08 80.0741 51.08C79.9141 51.0533 79.7407 51 79.5541 50.92C79.3941 50.84 79.2474 50.7333 79.1141 50.6C78.9807 50.44 78.9141 50.24 78.9141 50C78.9141 49.6267 79.0474 49.28 79.3141 48.96C79.5807 48.6133 79.9274 48.44 80.3541 48.44C80.4341 48.44 80.6074 48.48 80.8741 48.56C81.1674 48.6133 81.4607 48.6933 81.7541 48.8C82.0474 48.9067 82.3007 49.0267 82.5141 49.16C82.7541 49.2933 82.8741 49.44 82.8741 49.6ZM84.1941 64.56C84.1941 64.7467 84.0474 64.9067 83.7541 65.04C83.4874 65.1733 83.2874 65.24 83.1541 65.24C82.8874 65.24 82.6474 65.0667 82.4341 64.72C82.2207 64.3733 82.0341 63.9733 81.8741 63.52C81.7141 63.0667 81.5807 62.64 81.4741 62.24C81.3674 61.8133 81.2874 61.52 81.2341 61.36C81.1541 61.0933 81.0474 60.7733 80.9141 60.4C80.7807 60.0267 80.6474 59.6667 80.5141 59.32C80.4074 58.9733 80.3141 58.6667 80.2341 58.4C80.1541 58.1333 80.1141 57.9867 80.1141 57.96C80.1141 57.5867 80.1807 57.24 80.3141 56.92C80.4741 56.6 80.6607 56.44 80.8741 56.44C81.1141 56.44 81.3674 56.6267 81.6341 57C81.9007 57.3733 82.1541 57.8533 82.3941 58.44C82.6607 59 82.9007 59.6267 83.1141 60.32C83.3274 60.9867 83.5141 61.6267 83.6741 62.24C83.8341 62.8267 83.9541 63.3467 84.0341 63.8C84.1407 64.2267 84.1941 64.48 84.1941 64.56ZM96.925 62.72C96.925 63.1733 96.765 63.5733 96.445 63.92C96.1517 64.24 95.765 64.52 95.285 64.76C94.8317 64.9733 94.325 65.1467 93.765 65.28C93.205 65.4133 92.6717 65.52 92.165 65.6C91.6583 65.6533 91.205 65.6933 90.805 65.72C90.4317 65.72 90.1917 65.72 90.085 65.72C89.4983 65.72 89.045 65.6267 88.725 65.44C88.405 65.2533 88.245 64.92 88.245 64.44C88.245 64.28 88.2583 64.1467 88.285 64.04C88.3117 63.9067 88.4183 63.84 88.605 63.84C88.685 63.84 88.8183 63.8667 89.005 63.92C89.1917 63.9467 89.3383 63.96 89.445 63.96C89.5517 63.96 89.885 63.9467 90.445 63.92C91.0317 63.8667 91.645 63.7867 92.285 63.68C92.9517 63.5733 93.5383 63.4267 94.045 63.24C94.5783 63.0267 94.845 62.76 94.845 62.44C94.845 62.3867 94.565 62.2267 94.005 61.96C93.4717 61.6667 92.6583 61.1867 91.565 60.52C90.7117 59.9867 90.1117 59.4533 89.765 58.92C89.4183 58.36 89.245 57.6133 89.245 56.68C89.245 56.0933 89.365 55.6133 89.605 55.24C89.8717 54.8667 90.2183 54.5733 90.645 54.36C91.0983 54.1467 91.605 54 92.165 53.92C92.7517 53.8133 93.365 53.76 94.005 53.76C94.0583 53.76 94.2183 53.7867 94.485 53.84C94.7783 53.8933 95.085 53.9867 95.405 54.12C95.725 54.2267 96.005 54.3733 96.245 54.56C96.5117 54.72 96.645 54.9067 96.645 55.12C96.645 55.1733 96.5917 55.2533 96.485 55.36C96.405 55.4667 96.2583 55.6667 96.045 55.96C95.965 55.9333 95.8183 55.8933 95.605 55.84C95.4183 55.7867 95.1917 55.7333 94.925 55.68C94.685 55.6 94.4317 55.5467 94.165 55.52C93.8983 55.4667 93.685 55.44 93.525 55.44C92.8317 55.44 92.2717 55.5733 91.845 55.84C91.4183 56.08 91.205 56.56 91.205 57.28C91.205 57.6267 91.3383 57.9467 91.605 58.24C91.8983 58.5333 92.2583 58.8133 92.685 59.08C93.1117 59.32 93.565 59.5733 94.045 59.84C94.5517 60.08 95.0183 60.3467 95.445 60.64C95.8717 60.9333 96.2183 61.2533 96.485 61.6C96.7783 61.92 96.925 62.2933 96.925 62.72ZM112.147 49.92C111.8 50.32 111.307 50.72 110.667 51.12C110.027 51.4933 109.387 51.84 108.747 52.16C108.107 52.48 107.547 52.76 107.067 53C106.587 53.2133 106.347 53.36 106.347 53.44C106.347 53.52 106.4 53.76 106.507 54.16C106.614 54.56 106.734 55.04 106.867 55.6C107.027 56.1333 107.187 56.6933 107.347 57.28C107.507 57.8667 107.64 58.3867 107.747 58.84C107.8 59.1067 107.867 59.4533 107.947 59.88C108.027 60.3067 108.094 60.7333 108.147 61.16C108.227 61.5867 108.294 61.9733 108.347 62.32C108.4 62.64 108.427 62.8133 108.427 62.84C108.427 63.24 108.36 63.6533 108.227 64.08C108.094 64.5067 107.88 64.72 107.587 64.72C107.427 64.72 107.28 64.6533 107.147 64.52C107.014 64.3867 106.894 64.24 106.787 64.08C106.68 63.8933 106.6 63.72 106.547 63.56C106.494 63.4 106.467 63.28 106.467 63.2C106.467 63.1467 106.467 63.0667 106.467 62.96C106.494 62.8533 106.507 62.7333 106.507 62.6C106.507 62.0933 106.427 61.36 106.267 60.4C106.214 60.1067 106.107 59.6533 105.947 59.04C105.787 58.4267 105.627 57.8 105.467 57.16C105.28 56.4133 105.067 55.6 104.827 54.72C104.72 54.3467 104.654 54.16 104.627 54.16C104.44 54.16 104.12 54.28 103.667 54.52C103.24 54.7333 102.747 55.0133 102.187 55.36C101.627 55.68 101.04 56.04 100.427 56.44C99.8135 56.8133 99.2402 57.1733 98.7069 57.52C98.1735 57.84 97.7202 58.12 97.3469 58.36C96.9469 58.5733 96.7069 58.68 96.6269 58.68C96.2802 58.68 96.0002 58.56 95.7869 58.32C95.5735 58.08 95.4669 57.8133 95.4669 57.52C95.4669 57.36 95.6935 57.1333 96.1469 56.84C96.5735 56.52 97.1202 56.1733 97.7869 55.8C98.4269 55.4267 99.1335 55.04 99.9069 54.64C100.654 54.24 101.347 53.88 101.987 53.56C102.654 53.24 103.2 52.9733 103.627 52.76C104.08 52.5467 104.307 52.44 104.307 52.44C104.067 51.2133 103.867 50.12 103.707 49.16C103.574 48.3333 103.44 47.5733 103.307 46.88C103.2 46.1867 103.147 45.8133 103.147 45.76C103.147 45.4133 103.214 45.16 103.347 45C103.507 44.8133 103.68 44.72 103.867 44.72C104.16 44.72 104.347 44.92 104.427 45.32C104.72 46.76 104.987 48.04 105.227 49.16C105.494 50.28 105.747 51.1867 105.987 51.88C106.227 51.8267 106.64 51.68 107.227 51.44C107.814 51.1733 108.427 50.8933 109.067 50.6C109.707 50.3067 110.28 50.0533 110.787 49.84C111.32 49.6 111.627 49.48 111.707 49.48C111.867 49.48 111.96 49.5333 111.987 49.64C112.04 49.7467 112.094 49.84 112.147 49.92ZM124.96 55.8C124.96 55.9867 124.88 56.1467 124.72 56.28C124.56 56.3867 124.374 56.48 124.16 56.56C123.947 56.64 123.734 56.7067 123.52 56.76C123.307 56.7867 123.134 56.8 123 56.8C122.6 56.8 122.334 56.7733 122.2 56.72C122.067 56.6667 121.96 56.64 121.88 56.64C121.214 56.64 120.68 56.6933 120.28 56.8C119.88 56.9067 119.56 57.08 119.32 57.32C119.107 57.56 118.96 57.8667 118.88 58.24C118.827 58.5867 118.8 59.0133 118.8 59.52C118.8 60.3733 118.827 61.0533 118.88 61.56C118.96 62.0667 119.027 62.48 119.08 62.8C119.16 63.12 119.227 63.3733 119.28 63.56C119.36 63.72 119.4 63.88 119.4 64.04C119.4 64.2533 119.28 64.48 119.04 64.72C118.827 64.96 118.627 65.08 118.44 65.08C118.12 65.08 117.827 64.8 117.56 64.24C117.32 63.6533 117.107 62.9733 116.92 62.2C116.76 61.4 116.627 60.6133 116.52 59.84C116.414 59.0667 116.36 58.48 116.36 58.08C116.36 57.6267 116.4 57.2 116.48 56.8C116.56 56.3733 116.667 56.0133 116.8 55.72C116.934 55.4 117.08 55.1467 117.24 54.96C117.4 54.7733 117.56 54.68 117.72 54.68C117.854 54.68 117.96 54.7333 118.04 54.84C118.12 54.92 118.187 55.0267 118.24 55.16C118.294 55.2667 118.347 55.3733 118.4 55.48C118.48 55.56 118.574 55.6 118.68 55.6C118.92 55.6 119.307 55.48 119.84 55.24C120.374 55 121.027 54.88 121.8 54.88C122.52 54.88 123.054 54.9067 123.4 54.96C123.774 54.9867 124.134 55.0667 124.48 55.2C124.56 55.2267 124.654 55.2933 124.76 55.4C124.894 55.48 124.96 55.6133 124.96 55.8ZM148.377 59.68C148.377 60.16 148.15 60.76 147.697 61.48C147.27 62.1733 146.683 62.8533 145.937 63.52C145.19 64.1867 144.323 64.76 143.337 65.24C142.35 65.6933 141.323 65.92 140.257 65.92C139.777 65.92 139.27 65.84 138.737 65.68C138.203 65.52 137.683 65.2933 137.177 65C136.67 64.68 136.217 64.3067 135.817 63.88C135.417 63.4267 135.123 62.92 134.937 62.36C134.777 62.52 134.577 62.7867 134.337 63.16C134.123 63.5333 133.883 63.92 133.617 64.32C133.35 64.6933 133.057 65.0267 132.737 65.32C132.417 65.5867 132.083 65.72 131.737 65.72C131.39 65.72 131.097 65.5467 130.857 65.2C130.643 64.8267 130.47 64.4267 130.337 64C130.203 63.5467 130.11 63.12 130.057 62.72C130.003 62.32 129.977 62.0933 129.977 62.04C129.977 61.72 130.07 61.12 130.257 60.24C130.443 59.3333 130.723 58.4 131.097 57.44C131.47 56.48 131.937 55.6267 132.497 54.88C133.083 54.1333 133.763 53.76 134.537 53.76C134.83 53.76 135.017 53.8933 135.097 54.16C135.203 54.4 135.257 54.64 135.257 54.88V56.08C135.39 56.1867 135.523 56.2667 135.657 56.32C135.817 56.3467 135.95 56.4 136.057 56.48C136.19 56.5333 136.283 56.6267 136.337 56.76C136.417 56.8933 136.457 57.1067 136.457 57.4C136.457 57.5867 136.443 57.76 136.417 57.92C136.39 58.0533 136.377 58.1867 136.377 58.32C136.377 59.0133 136.43 59.6933 136.537 60.36C136.643 61.0267 136.857 61.6267 137.177 62.16C137.497 62.6667 137.937 63.0933 138.497 63.44C139.057 63.76 139.803 63.92 140.737 63.92C141.91 63.92 142.897 63.68 143.697 63.2C144.523 62.6933 145.203 62.1467 145.737 61.56C146.297 60.9467 146.737 60.4 147.057 59.92C147.377 59.4133 147.643 59.16 147.857 59.16C148.203 59.16 148.377 59.3333 148.377 59.68ZM134.337 57.92C134.337 57.8133 134.31 57.72 134.257 57.64C134.203 57.5333 134.177 57.44 134.177 57.36C134.177 57.2533 134.203 57.16 134.257 57.08C134.31 57 134.337 56.8933 134.337 56.76C134.337 56.68 134.31 56.6267 134.257 56.6C134.203 56.5467 134.177 56.4933 134.177 56.44C133.937 56.4933 133.683 56.72 133.417 57.12C133.177 57.52 132.937 57.9867 132.697 58.52C132.483 59.0533 132.31 59.6 132.177 60.16C132.043 60.6933 131.977 61.1333 131.977 61.48C131.977 61.6667 132.03 61.9733 132.137 62.4C132.243 62.8267 132.363 63.1067 132.497 63.24C132.95 62.3067 133.363 61.4 133.737 60.52C134.137 59.64 134.337 58.7733 134.337 57.92ZM160.669 49.92C160.322 50.32 159.829 50.72 159.189 51.12C158.549 51.4933 157.909 51.84 157.269 52.16C156.629 52.48 156.069 52.76 155.589 53C155.109 53.2133 154.869 53.36 154.869 53.44C154.869 53.52 154.922 53.76 155.029 54.16C155.135 54.56 155.255 55.04 155.389 55.6C155.549 56.1333 155.709 56.6933 155.869 57.28C156.029 57.8667 156.162 58.3867 156.269 58.84C156.322 59.1067 156.389 59.4533 156.469 59.88C156.549 60.3067 156.615 60.7333 156.669 61.16C156.749 61.5867 156.815 61.9733 156.869 62.32C156.922 62.64 156.949 62.8133 156.949 62.84C156.949 63.24 156.882 63.6533 156.749 64.08C156.615 64.5067 156.402 64.72 156.109 64.72C155.949 64.72 155.802 64.6533 155.669 64.52C155.535 64.3867 155.415 64.24 155.309 64.08C155.202 63.8933 155.122 63.72 155.069 63.56C155.015 63.4 154.989 63.28 154.989 63.2C154.989 63.1467 154.989 63.0667 154.989 62.96C155.015 62.8533 155.029 62.7333 155.029 62.6C155.029 62.0933 154.949 61.36 154.789 60.4C154.735 60.1067 154.629 59.6533 154.469 59.04C154.309 58.4267 154.149 57.8 153.989 57.16C153.802 56.4133 153.589 55.6 153.349 54.72C153.242 54.3467 153.175 54.16 153.149 54.16C152.962 54.16 152.642 54.28 152.189 54.52C151.762 54.7333 151.269 55.0133 150.709 55.36C150.149 55.68 149.562 56.04 148.949 56.44C148.335 56.8133 147.762 57.1733 147.229 57.52C146.695 57.84 146.242 58.12 145.869 58.36C145.469 58.5733 145.229 58.68 145.149 58.68C144.802 58.68 144.522 58.56 144.309 58.32C144.095 58.08 143.989 57.8133 143.989 57.52C143.989 57.36 144.215 57.1333 144.669 56.84C145.095 56.52 145.642 56.1733 146.309 55.8C146.949 55.4267 147.655 55.04 148.429 54.64C149.175 54.24 149.869 53.88 150.509 53.56C151.175 53.24 151.722 52.9733 152.149 52.76C152.602 52.5467 152.829 52.44 152.829 52.44C152.589 51.2133 152.389 50.12 152.229 49.16C152.095 48.3333 151.962 47.5733 151.829 46.88C151.722 46.1867 151.669 45.8133 151.669 45.76C151.669 45.4133 151.735 45.16 151.869 45C152.029 44.8133 152.202 44.72 152.389 44.72C152.682 44.72 152.869 44.92 152.949 45.32C153.242 46.76 153.509 48.04 153.749 49.16C154.015 50.28 154.269 51.1867 154.509 51.88C154.749 51.8267 155.162 51.68 155.749 51.44C156.335 51.1733 156.949 50.8933 157.589 50.6C158.229 50.3067 158.802 50.0533 159.309 49.84C159.842 49.6 160.149 49.48 160.229 49.48C160.389 49.48 160.482 49.5333 160.509 49.64C160.562 49.7467 160.615 49.84 160.669 49.92ZM171.202 59.36C171.202 59.9467 171.122 60.5067 170.962 61.04C170.802 61.5733 170.589 62.04 170.322 62.44C170.056 62.84 169.736 63.16 169.362 63.4C169.016 63.6133 168.629 63.72 168.202 63.72C167.456 63.72 166.869 63.5067 166.442 63.08C166.016 62.6533 165.682 62.16 165.442 61.6C165.229 61.04 165.082 60.48 165.002 59.92C164.949 59.3333 164.922 58.8933 164.922 58.6C164.922 58.12 164.989 57.5867 165.122 57C165.282 56.3867 165.482 55.8267 165.722 55.32C165.989 54.8133 166.282 54.3867 166.602 54.04C166.922 53.6933 167.256 53.52 167.602 53.52C167.682 53.52 167.802 53.5467 167.962 53.6C168.149 53.6533 168.336 53.7333 168.522 53.84C168.709 53.9467 168.869 54.08 169.002 54.24C169.162 54.4 169.269 54.5867 169.322 54.8C169.616 54.8267 169.909 54.9333 170.202 55.12C170.496 55.3067 170.656 55.4533 170.682 55.56C170.896 56.2533 171.029 56.9467 171.082 57.64C171.162 58.3333 171.202 58.9067 171.202 59.36ZM169.402 58.64C169.402 58.24 169.362 57.8267 169.282 57.4C169.202 56.9467 169.042 56.4933 168.802 56.04C168.749 56.0667 168.682 56.08 168.602 56.08C168.496 56.08 168.402 56.0667 168.322 56.04C168.269 56.0133 168.216 56 168.162 56C167.842 56 167.589 56.0933 167.402 56.28C167.216 56.44 167.069 56.6667 166.962 56.96C166.882 57.2267 166.829 57.52 166.802 57.84C166.776 58.16 166.762 58.4667 166.762 58.76C166.762 59.0533 166.776 59.3867 166.802 59.76C166.829 60.1067 166.882 60.44 166.962 60.76C167.069 61.08 167.202 61.36 167.362 61.6C167.522 61.8133 167.736 61.92 168.002 61.92C168.269 61.92 168.496 61.7867 168.682 61.52C168.869 61.2267 169.016 60.8933 169.122 60.52C169.229 60.1467 169.296 59.7867 169.322 59.44C169.376 59.0667 169.402 58.8 169.402 58.64ZM185.893 55.8C185.893 55.9867 185.813 56.1467 185.653 56.28C185.493 56.3867 185.306 56.48 185.093 56.56C184.88 56.64 184.666 56.7067 184.453 56.76C184.24 56.7867 184.066 56.8 183.933 56.8C183.533 56.8 183.266 56.7733 183.133 56.72C183 56.6667 182.893 56.64 182.813 56.64C182.146 56.64 181.613 56.6933 181.213 56.8C180.813 56.9067 180.493 57.08 180.253 57.32C180.04 57.56 179.893 57.8667 179.813 58.24C179.76 58.5867 179.733 59.0133 179.733 59.52C179.733 60.3733 179.76 61.0533 179.813 61.56C179.893 62.0667 179.96 62.48 180.013 62.8C180.093 63.12 180.16 63.3733 180.213 63.56C180.293 63.72 180.333 63.88 180.333 64.04C180.333 64.2533 180.213 64.48 179.973 64.72C179.76 64.96 179.56 65.08 179.373 65.08C179.053 65.08 178.76 64.8 178.493 64.24C178.253 63.6533 178.04 62.9733 177.853 62.2C177.693 61.4 177.56 60.6133 177.453 59.84C177.346 59.0667 177.293 58.48 177.293 58.08C177.293 57.6267 177.333 57.2 177.413 56.8C177.493 56.3733 177.6 56.0133 177.733 55.72C177.866 55.4 178.013 55.1467 178.173 54.96C178.333 54.7733 178.493 54.68 178.653 54.68C178.786 54.68 178.893 54.7333 178.973 54.84C179.053 54.92 179.12 55.0267 179.173 55.16C179.226 55.2667 179.28 55.3733 179.333 55.48C179.413 55.56 179.506 55.6 179.613 55.6C179.853 55.6 180.24 55.48 180.773 55.24C181.306 55 181.96 54.88 182.733 54.88C183.453 54.88 183.986 54.9067 184.333 54.96C184.706 54.9867 185.066 55.0667 185.413 55.2C185.493 55.2267 185.586 55.2933 185.693 55.4C185.826 55.48 185.893 55.6133 185.893 55.8Z" fill="#0C0B10"/>
</svg>
